<?xml version="1.0" encoding="UTF-8" standalone="no"?>
<!-- Created with Inkscape (http://www.inkscape.org/) -->

<svg
   width="210mm"
   height="297mm"
   viewBox="0 0 210 297"
   version="1.1"
   id="svg1"
   xml:space="preserve"
   xmlns="http://www.w3.org/2000/svg"
   xmlns:svg="http://www.w3.org/2000/svg"><defs
     id="defs1" /><g
     id="layer1"><path
       style="opacity:0.850602;mix-blend-mode:normal;fill:#1aff3c;fill-opacity:0.344737;stroke-width:0.699286"
       d="m 61.0516,259.70707 c -1.55586,-0.14739 -4.38624,-0.79668 -4.98738,-1.1441 -0.33664,-0.19454 -1.23661,-2.88775 -1.502,-4.49475 -0.10935,-0.66227 -0.0878,-0.73203 0.19112,-0.61647 0.17295,0.0716 0.89443,0.22769 1.60329,0.34669 1.07737,0.18088 1.54239,0.16258 2.83405,-0.11143 1.39554,-0.29612 1.5648,-0.2989 1.74758,-0.0287 0.4152,0.61382 3.17988,5.888 3.11674,5.94587 -0.19427,0.17805 -1.67486,0.22881 -3.0034,0.10296 z m 3.20479,-1.95337 c -0.34273,-0.65479 -1.0406,-2.01524 -1.55083,-3.02325 -0.92711,-1.83164 -0.92745,-1.8329 -0.53414,-2.06896 0.21646,-0.12992 0.52514,-0.23928 0.68596,-0.24302 0.34823,-0.008 1.67068,1.5038 3.71113,4.24288 l 1.48914,1.99901 -0.52078,0.12144 c -0.28643,0.0667 -1.00151,0.13067 -1.58906,0.14193 l -1.06826,0.0204 z m 44.07808,-4.97971 c -1.95177,-0.0857 -3.64257,-0.19461 -3.75735,-0.24218 -0.17845,-0.0739 -1.86323,-3.36775 -1.86323,-3.64269 0,-0.0532 0.3405,-0.15729 0.75668,-0.23125 0.41619,-0.0739 1.71812,-0.47584 2.8932,-0.893 l 2.13653,-0.7585 0.76667,0.92416 c 0.72457,0.87344 3.20317,4.2993 3.48552,4.81758 0.0931,0.17098 -0.0133,0.23187 -0.36923,0.21098 -0.27506,-0.0161 -2.09702,-0.0995 -4.04879,-0.1851 z m -52.94226,-0.38068 c -1.61613,-0.21971 -3.01434,-0.95798 -3.32245,-1.75432 -0.28127,-0.72697 -0.54848,-2.45698 -2.14653,-13.89717 -0.63516,-4.54714 -1.19159,-8.44055 -1.23649,-8.65205 -0.0687,-0.32346 0.16454,-0.5049 1.46796,-1.14215 2.99252,-1.46308 5.348,-4.70097 6.25862,-8.60321 0.44493,-1.9067 0.67245,-4.38832 0.80753,-8.8085 0.33315,-10.9018 2.16999,-16.8211 9.6592,-31.12717 l 1.95215,-3.72904 1.85162,-0.71089 c 4.78784,-1.8382 9.00295,-4.31094 12.67492,-7.43552 1.99453,-1.69718 5.45976,-5.53803 6.91085,-7.65994 2.28906,-3.34722 4.23153,-7.42149 5.15624,-10.81507 l 0.22265,-0.81713 0.90656,-0.0142 c 3.58352,-0.0556 5.6113,0.25008 8.44496,1.27305 4.24869,1.53382 9.09861,4.89971 13.38174,9.28703 l 1.33535,1.36783 -0.99521,-0.47727 c -4.25524,-2.04067 -11.26143,-2.1386 -18.54452,-0.25925 -1.24821,0.32211 -2.31453,0.66436 -2.36959,0.76059 -0.13639,0.23831 -0.17081,0.24209 3.13555,-0.3443 2.59885,-0.46091 3.41801,-0.52033 7.28993,-0.52874 4.47906,-0.0101 5.37975,0.0889 8.1606,0.89433 0.71824,0.20801 1.5595,0.5053 1.86946,0.66065 l 0.56356,0.28245 -0.58638,-0.10322 c -5.2174,-0.918 -5.66212,-0.96133 -9.74019,-0.94899 -4.87855,0.0148 -6.37141,0.32705 -2.58163,0.54007 1.32197,0.0743 2.88431,0.21199 3.47187,0.30598 1.38842,0.22208 6.86467,1.52267 7.21076,1.71253 0.16262,0.0892 0.3585,0.70293 0.50082,1.56902 0.30056,1.82897 0.0539,3.84205 -0.75779,6.18113 -0.32105,0.92529 -0.53138,1.68236 -0.46742,1.68236 0.0639,0 0.40732,-0.54076 0.76303,-1.20168 1.20885,-2.24608 1.71486,-4.72272 1.41595,-6.93032 -0.12632,-0.93261 -0.10934,-1.09699 0.10406,-1.00858 0.14019,0.0581 0.44774,0.15789 0.68348,0.22178 0.41775,0.11325 0.42849,0.16535 0.42548,2.06605 -0.006,4.13124 -1.14168,7.09051 -4.22783,11.02213 -0.56566,0.72062 -1.14707,1.47777 -1.29201,1.68253 -0.64146,0.90625 0.97303,-0.42538 2.21766,-1.82914 2.97055,-3.3503 4.32695,-6.62996 4.41298,-10.67031 l 0.0378,-1.77202 1.51928,0.57534 c 2.42768,0.9193 4.45702,2.39709 4.45702,3.24564 0,0.83815 -0.52401,3.8364 -0.90245,5.16356 -0.75308,2.64095 -2.64366,6.2729 -4.60999,8.85613 -1.45169,1.90712 -0.86058,1.68536 0.90988,-0.34134 2.90681,-3.32753 4.90167,-7.86286 5.42479,-12.33332 l 0.12202,-1.04243 0.32909,0.43887 c 0.40264,0.53696 0.41328,1.30854 0.0492,3.5687 -1.00459,6.23692 -4.41174,11.35449 -10.49181,15.75879 -2.38529,1.72786 -4.72044,3.01384 -8.21375,4.52336 -2.73313,1.18104 -2.93404,1.35907 -0.96934,0.85896 4.08368,-1.03946 8.81606,-3.57412 12.40567,-6.64446 1.54971,-1.32556 4.10938,-4.28053 5.11314,-5.90283 1.82556,-2.95058 2.83117,-6.04581 3.10588,-9.55982 l 0.13128,-1.67902 2.22552,2.10379 c 1.22406,1.15707 2.95697,2.94635 3.85095,3.97616 l 1.62538,1.87237 1.31234,-0.85727 c 1.63603,-1.06871 2.03338,-1.18151 5.86362,-1.66464 3.65683,-0.46126 4.89211,-0.68408 5.81078,-1.04812 l 0.67666,-0.26816 -0.90923,-0.0136 c -0.50008,-0.007 -1.94224,0.0789 -3.20479,0.19184 -1.26255,0.113 -2.77034,0.17785 -3.35064,0.1442 l -1.0551,-0.0612 1.0551,-0.74908 c 1.40214,-0.99546 3.3294,-2.60971 7.76026,-6.49992 2.02313,-1.77628 3.77647,-3.2296 3.89635,-3.2296 0.11978,0 1.7094,0.59776 3.53233,1.32835 5.19621,2.08252 8.39407,3.08073 11.77153,3.67452 1.3813,0.24284 3.12412,0.85319 3.29654,1.15444 0.0543,0.0947 -0.14902,0.0789 -0.45154,-0.035 -0.5065,-0.19068 -0.61465,-0.14791 -1.36684,0.54057 -1.58097,1.44706 -1.91393,2.9779 -0.91494,4.20659 0.65082,0.80047 2.40389,1.82061 3.12613,1.81917 0.70806,-0.001 1.81363,-0.78786 2.27958,-1.62162 l 0.39968,-0.71514 0.89844,1.60148 c 2.54554,4.53741 5.4192,7.47998 9.95746,10.19625 l 1.10786,0.66309 -1.4985,0.79843 c -1.94328,1.03541 -3.71616,1.55834 -5.70611,1.68309 -0.88132,0.0552 -1.84592,0.13185 -2.14353,0.17023 -0.50685,0.0654 -0.58005,-0.0109 -1.15505,-1.20935 -1.61073,-3.35608 -4.40107,-7.21277 -6.91997,-9.56451 -1.68321,-1.57152 -2.6858,-2.08758 -4.61713,-2.37655 -2.2204,-0.33222 -9.76289,-0.44891 -13.8294,-0.21397 -3.16342,0.18279 -11.03955,1.10069 -14.35086,1.6725 -0.61402,0.10598 -0.68705,0.19182 -1.03138,1.21167 -0.40916,1.21176 -1.70088,3.61931 -2.74043,5.1077 -1.18745,1.70013 -4.07788,4.70513 -6.0913,6.33275 -2.71774,2.19696 -5.38415,3.96287 -8.72417,5.77788 -4.01071,2.17947 -6.45847,3.18573 -16.38004,6.73375 -11.42147,4.08437 -15.64271,5.9495 -20.19268,8.92198 -0.82394,0.53829 -1.51611,0.95684 -1.53818,0.93013 -0.0734,-0.0888 3.01726,-4.48667 4.28255,-6.09385 2.64648,-3.3616 6.01382,-5.82821 9.25828,-6.7818 1.22478,-0.35996 1.89048,-0.41874 4.75114,-0.41948 1.82974,-4.6e-4 3.29275,-0.0603 3.25115,-0.13299 -0.0415,-0.0727 -0.73743,-0.32558 -1.54633,-0.56201 -1.85482,-0.54212 -4.51022,-0.46132 -6.45596,0.19644 -1.63179,0.55165 -4.01789,1.88739 -5.70062,3.19121 -1.60404,1.24286 -1.51533,0.85226 0.2409,-1.06096 1.39621,-1.52099 2.99721,-2.77793 5.3541,-4.20349 1.62722,-0.98422 1.67061,-1.02679 0.91712,-0.89981 -2.2699,0.3825 -5.01762,2.2297 -7.85135,5.27823 -2.26997,2.44203 -3.69526,4.35513 -7.40014,9.93287 -3.38982,5.10341 -5.17778,7.46719 -7.42027,9.8099 -3.08108,3.2188 -6.45533,5.66723 -12.26132,8.89714 l -3.13974,1.74665 -0.24199,1.29368 c -0.16423,0.87792 -0.23782,2.68394 -0.22901,5.61971 0.0118,3.81593 0.0587,4.50739 0.40046,5.86417 0.82654,3.28106 2.13375,5.29741 4.73272,7.30015 0.64591,0.49774 1.17439,0.93632 1.17439,0.97461 0,0.18378 -3.95678,1.41519 -4.8962,1.52377 -0.58755,0.068 -1.2285,0.14904 -1.42436,0.18029 -0.19584,0.0312 -0.85975,-0.0121 -1.47536,-0.0954 z m 0.67416,-1.2398 c 0,-0.0574 -0.43339,-0.56146 -0.96307,-1.1199 -1.28522,-1.35503 -1.47275,-2.09773 -1.80255,-7.13923 -0.35078,-5.36209 -1.02449,-11.46187 -1.43708,-13.01132 -0.0641,-0.24109 0.23955,-0.50455 1.21282,-1.05201 1.66738,-0.93787 4.07985,-3.49346 4.91509,-5.20665 1.51703,-3.11165 1.99024,-5.85436 2.34774,-13.60781 0.10243,-2.22069 0.2728,-4.81632 0.37869,-5.76804 0.15177,-1.36412 1.08095,-5.35985 2.05111,-8.82032 0.22725,-0.8106 -0.33621,-0.0186 -0.98505,1.38448 -1.68864,3.65175 -2.32598,6.96537 -2.77998,14.45362 -0.40896,6.74571 -0.81991,8.9837 -2.15354,11.72834 -1.11047,2.28535 -2.69281,3.90685 -5.06678,5.19219 -0.63126,0.34178 -1.17338,0.64607 -1.20472,0.67618 -0.0314,0.0301 0.14495,0.9067 0.39173,1.94796 0.94707,3.99587 1.62518,8.89478 1.8855,13.62154 0.16336,2.96596 0.39944,4.07275 1.09321,5.12489 0.55737,0.84528 2.11688,2.02112 2.11688,1.59608 z m 7.4063,-28.63974 c 1.31258,-0.47581 3.46243,-1.58387 4.7357,-2.44082 2.41266,-1.62382 8.9428,-8.99888 7.9679,-8.99888 -0.10791,0 -1.69235,1.62894 -3.52093,3.61989 -1.82859,1.99093 -3.86809,4.03376 -4.53224,4.53959 -0.66415,0.50585 -2.25781,1.43289 -3.54148,2.06011 -2.57049,1.25597 -3.29135,1.70101 -2.75532,1.70101 0.1759,0 0.91677,-0.21641 1.64637,-0.4809 z m 14.19802,-22.9478 c 0.45908,-1.5136 1.22428,-4.85912 1.80861,-7.90752 1.13796,-5.93656 1.81637,-8.38226 3.10096,-11.17918 2.88311,-6.2773 7.2269,-11.11821 12.52984,-13.96373 0.86929,-0.46646 1.53628,-0.8959 1.48219,-0.95431 -0.13431,-0.14506 -2.0661,0.63445 -3.5818,1.44532 -3.45555,1.84861 -6.99911,5.2049 -9.16085,8.67673 -1.34775,2.16451 -2.79162,5.24603 -3.56482,7.60808 -0.65066,1.98767 -4.02809,19.81122 -3.64759,19.24929 0.13074,-0.19309 0.5958,-1.5317 1.03346,-2.97468 z m 3.87339,-5.21921 c 1.22604,-7.80294 2.19778,-10.86625 5.11653,-16.12946 0.90254,-1.62751 1.60822,-2.9945 1.56817,-3.03776 -0.0401,-0.0432 -0.60905,0.59618 -1.26445,1.42098 -3.62359,4.56017 -5.16435,8.88014 -5.975,16.75276 -0.39233,3.81005 -0.44992,5.64212 -0.15213,4.83884 0.098,-0.26437 0.4161,-1.99479 0.70688,-3.84536 z m -15.03396,-9.42111 c 0.77661,-1.4276 2.08106,-3.73018 2.89878,-5.11685 l 1.48679,-2.52124 0.99792,-0.33482 c 0.54885,-0.18416 1.87455,-0.72025 2.94598,-1.19129 8.80847,-3.87256 15.62266,-9.91 20.25437,-17.94558 1.33639,-2.31849 2.32337,-4.37881 2.92645,-6.1089 0.76283,-2.18837 0.43347,-1.90861 -0.8451,0.71784 -3.73859,7.67985 -8.65887,13.52798 -15.11451,17.96476 -1.95257,1.34194 -7.04333,4.01506 -9.67106,5.0782 l -2.28221,0.92336 -1.77929,3.45011 c -1.99668,3.87165 -3.26927,6.62767 -3.45747,7.48775 -0.18905,0.86397 0.0628,0.49468 1.63935,-2.40334 z m 113.02164,0.93653 c -0.58579,-1.79292 -2.62177,-5.26003 -4.46225,-7.5988 -0.73942,-0.93963 -2.35333,-2.27964 -2.52384,-2.09552 -0.0436,0.0472 0.50629,0.78293 1.22219,1.63497 1.77194,2.10889 3.15232,4.13413 4.17583,6.12659 1.02771,2.00068 1.47753,2.72664 1.68941,2.72664 0.0869,0 0.0412,-0.35725 -0.10145,-0.79388 z m -21.74875,-14.32941 c 2.68722,-0.27364 0.55222,-0.4745 -6.23018,-0.58611 -5.03832,-0.0829 -7.15588,-0.0561 -7.24042,0.0916 -0.17982,0.31423 0.44026,0.4578 2.71811,0.62935 2.14388,0.16145 8.64339,0.08 10.75249,-0.13479 z m 6.52546,-2.9436 c -0.15162,-0.0958 -1.35342,-0.36133 -2.67065,-0.58994 -2.5854,-0.4487 -5.14571,-1.04355 -7.82531,-1.8181 -2.24058,-0.64766 -3.63894,-0.83157 -3.52571,-0.46372 0.11846,0.385 2.52657,1.22539 5.15514,1.79907 3.98466,0.86966 9.62473,1.552 8.86653,1.07269 z m -50.69954,-12.45564 c -0.816,-1.11074 -2.5022,-2.776 -3.68426,-3.63853 -2.06192,-1.50456 -5.19029,-2.94934 -7.03867,-3.25069 -1.02544,-0.16717 -0.77871,0.10284 0.62909,0.68849 1.46245,0.60838 4.3789,2.18418 5.58901,3.01983 0.54923,0.37927 1.5995,1.26832 2.33394,1.97566 1.51789,1.46188 2.11048,1.92625 2.45816,1.92625 0.15346,0 0.0479,-0.26461 -0.28727,-0.72101 z m -1.1418,94.40098 c -0.74355,-0.92391 -1.73097,-2.17893 -2.19429,-2.78897 -0.81878,-1.07803 -0.83345,-1.11985 -0.5232,-1.49008 0.17558,-0.2095 0.41792,-0.38092 0.5385,-0.38092 0.20754,0 4.20099,3.87644 5.32384,5.16785 0.63647,0.732 0.51072,0.89714 -0.80244,1.05377 l -0.99054,0.11821 z m -12.74626,-2.75233 c -0.22626,-0.0954 -1.26782,-0.89998 -2.31457,-1.78795 -2.94869,-2.50141 -6.88921,-5.28812 -13.32612,-9.42411 l -5.90357,-3.79331 1.12606,-2.00537 c 1.56066,-2.7793 1.78212,-3.55028 1.76451,-6.1425 -0.0118,-1.79751 -0.084,-2.30818 -0.47806,-3.40247 -0.49801,-1.38285 -1.40528,-3.0192 -2.4069,-4.34119 -0.34256,-0.45211 -0.59148,-0.84792 -0.55318,-0.87955 0.0383,-0.0315 0.75069,-0.62406 1.58305,-1.31646 4.18181,-3.47876 8.75593,-6.17395 14.82148,-8.7332 2.14053,-0.90316 6.45772,-2.57271 6.65261,-2.57271 0.18457,0 0.0313,1.40792 -0.2935,2.6956 -1.86415,7.39107 -3.69868,10.97202 -8.28112,16.16459 -2.65594,3.00956 -3.60642,4.58988 -3.9038,6.49067 -0.37845,2.41899 1.07987,4.62174 4.84441,7.31731 1.72532,1.2354 5.9048,3.92833 7.73738,4.98536 2.14489,1.23715 4.56113,2.1945 6.95352,2.75505 1.05237,0.24658 1.91368,0.5029 1.91398,0.56962 6.6e-4,0.17228 -2.35234,1.40356 -3.81954,1.99857 -1.02093,0.41402 -3.79879,1.20467 -5.34917,1.52251 -0.19585,0.0402 -0.54122,-0.005 -0.76747,-0.10042 z m 0.0375,-3.03002 c -2.2469,-2.13788 -10.82245,-8.60246 -16.16302,-12.18432 l -1.34999,-0.90542 0.6228,-1.12903 c 1.80387,-3.2701 1.93589,-6.2507 0.42101,-9.5046 -1.04912,-2.25343 -3.16292,-5.4187 -3.43098,-5.13762 -0.0559,0.0585 0.26532,0.69721 0.7138,1.41913 1.19722,1.92722 2.17005,4.24552 2.48795,5.92898 0.23253,1.23132 0.24452,1.70846 0.0709,2.81996 -0.21917,1.4032 -1.04824,3.48298 -1.95704,4.90939 -0.29558,0.46393 -0.53741,0.88392 -0.53741,0.93329 0,0.14552 3.01723,2.19668 7.12175,4.84148 4.28063,2.75828 7.56992,5.10183 10.54831,7.51546 1.19768,0.97059 2.0308,1.52817 2.07404,1.38811 0.0397,-0.12877 -0.24022,-0.53143 -0.62215,-0.89481 z M 32.38653,216.96899 c 0,-1.05052 -0.64367,-3.45038 -1.30683,-4.87245 -0.67607,-1.44974 -1.49841,-2.65223 -3.32901,-4.86784 -2.69129,-3.25732 -3.88297,-5.40833 -4.63355,-8.36364 -0.32217,-1.26845 -0.40587,-2.22084 -0.47733,-5.43157 -0.0764,-3.43502 -0.0541,-3.89342 0.19039,-3.89342 0.46538,0 0.55185,0.38601 0.66754,2.98015 0.0984,2.20602 0.1786,2.68007 0.68321,4.03762 0.69867,1.87968 1.72613,3.68614 3.82319,6.72178 2.20692,3.1947 3.42317,5.25172 4.10214,6.93788 0.67323,1.67194 0.86263,1.95042 0.70375,1.03481 -0.39994,-2.30493 -1.84341,-5.18251 -4.5742,-9.11869 -1.97491,-2.84665 -3.56315,-6.09056 -3.85332,-7.87023 -0.22689,-1.39164 -0.23846,-3.56707 -0.0209,-3.93818 0.17641,-0.30094 0.51591,0.7459 0.90263,2.78331 0.46967,2.4743 1.4116,3.91527 4.306,6.58729 2.83327,2.61559 3.48926,3.69722 4.25506,7.01602 0.27561,1.1944 0.44666,1.63403 0.57984,1.49023 0.37511,-0.40508 -0.14201,-3.00409 -0.95407,-4.79516 -0.68436,-1.50941 -0.99421,-1.91602 -3.46111,-4.54184 -2.90717,-3.09446 -3.38205,-3.80155 -4.09036,-6.09035 -0.88888,-2.87224 -0.43447,-3.25953 1.08743,-0.92681 1.28508,1.96973 1.73876,2.38181 4.71557,4.28332 2.97573,1.9008 4.05316,2.93457 4.774,4.58052 0.96357,2.20026 1.14279,5.73346 0.44034,8.68057 -0.54309,2.27841 -2.29762,5.73702 -3.90116,7.69012 -0.55716,0.67864 -0.62922,0.66564 -0.62922,-0.11349 z m 3.54873,-12.80164 c -0.35058,-2.37114 -1.92057,-4.52431 -4.81575,-6.6046 -0.84278,-0.60557 -1.5835,-1.10103 -1.64603,-1.10103 -0.39738,0 0.14808,0.59718 2.09018,2.28834 2.56996,2.23791 3.46343,3.49827 3.96225,5.58933 0.36388,1.52538 0.64297,1.40807 0.40935,-0.17204 z m 148.45138,-10.79278 c -0.76161,-0.20216 -1.77993,-0.55113 -2.26291,-0.77551 -0.8125,-0.37744 -0.89744,-0.48189 -1.13628,-1.397 -0.14199,-0.54398 -0.31117,-1.26704 -0.37595,-1.60682 -0.1325,-0.6948 -0.3357,-0.58926 2.13315,-1.10797 0.78339,-0.16459 1.94127,-0.48377 2.57306,-0.70929 l 1.14873,-0.41005 0.60104,0.74961 c 0.77713,0.96922 3.42208,5.17928 3.42208,5.44706 0,0.37003 -4.52356,0.22916 -6.10292,-0.19003 z m 6.1665,-1.95989 c -0.76074,-0.86011 -2.45328,-3.14443 -2.98823,-4.03305 -0.31237,-0.51889 -0.31087,-0.52644 0.15061,-0.7535 0.41751,-0.20542 0.52392,-0.17079 1.01957,0.33188 0.30437,0.30869 1.30779,1.55623 2.22982,2.77233 1.57226,2.07371 1.65104,2.21884 1.26819,2.33611 -0.76928,0.23562 -0.95841,0.16203 -1.67996,-0.65377 z M 23.84037,188.58265 c -0.61886,-0.42279 0.0588,-4.26558 1.323,-7.50237 1.9358,-4.95631 5.88263,-7.74409 10.96204,-7.74288 3.26998,7.2e-4 5.7549,0.89391 11.00145,3.95408 5.59085,3.26102 7.92254,4.06103 11.78816,4.04461 2.17034,-0.0101 4.10593,-0.28724 5.22101,-0.74994 0.24895,-0.10332 0.18172,0.10697 -0.28797,0.90069 -0.33703,0.5695 -0.9907,1.84856 -1.45259,2.84238 l -0.83983,1.80692 -1.90025,-0.11736 c -4.30411,-0.26594 -6.4085,-1.14175 -12.91695,-5.37585 -3.44062,-2.2383 -5.0369,-3.11327 -6.78509,-3.71912 -2.57387,-0.89201 -6.68486,-0.82031 -9.13092,0.15925 -0.57708,0.23109 -1.34253,0.77835 -1.97967,1.41535 -1.62726,1.62692 -2.63665,4.0171 -3.4006,8.05248 -0.19926,1.05246 -0.4609,1.98124 -0.58143,2.06393 -0.2947,0.20215 -0.69594,0.18952 -1.02036,-0.0322 z M 134.67272,172.0891 c -2.86412,-3.24484 -9.55324,-9.66196 -16.20648,-15.54751 -7.4339,-6.57616 -10.24542,-8.39376 -15.14365,-9.79009 -1.40616,-0.40085 -2.33749,-0.52497 -4.57024,-0.60906 -1.78212,-0.0671 -2.80419,-0.17937 -2.80419,-0.30797 0,-0.20274 2.10671,-13.27632 2.54509,-15.79405 l 0.23308,-1.33862 1.86022,-0.43144 c 3.88094,-0.90012 6.0871,-1.08577 11.29654,-0.9506 2.64396,0.0686 5.24786,0.192 5.78643,0.27422 l 0.97924,0.14948 -1.51336,0.14791 c -5.89086,0.57573 -9.44654,1.18408 -13.5814,2.32368 -1.64327,0.45291 -3.01694,0.85683 -3.05257,0.8976 -0.11678,0.13359 -0.8326,5.38194 -1.23893,9.08378 l -0.39803,3.62616 0.81192,-0.12122 c 0.44653,-0.0667 2.33416,-0.35272 4.19473,-0.63569 4.38188,-0.66643 10.91734,-0.75736 13.5089,-0.18796 5.25467,1.15451 8.67696,3.22672 12.93021,7.8293 2.38873,2.58495 3.60358,4.25409 5.30814,7.29317 0.67963,1.21171 1.32582,2.23555 1.43595,2.27521 0.26957,0.097 0.11547,-0.30498 -0.83113,-2.16809 -4.22023,-8.30629 -10.38339,-14.12238 -17.30736,-16.33263 -3.66194,-1.16898 -10.10116,-1.18416 -16.21348,-0.0382 l -2.23703,0.41939 0.22729,-1.73532 c 0.37166,-2.83767 1.11888,-7.84275 1.18084,-7.90967 0.16659,-0.1799 5.9264,-1.64161 7.81698,-1.98377 4.34249,-0.78592 11.03732,-1.35086 16.08482,-1.35731 l 1.42906,-0.001 1.24087,1.06781 c 2.03308,1.74955 5.87165,5.62945 7.50342,7.58425 1.69362,2.02885 3.52073,4.6119 4.6589,6.5864 0.68553,1.18922 2.70036,5.37096 2.70036,5.60451 0,0.0547 -0.33435,0.19662 -0.74299,0.31545 -1.07215,0.31176 -1.66434,1.20262 -2.94845,4.43554 -0.67941,1.71048 -2.5401,7.71127 -2.5401,8.19189 0,0.28657 2.31354,-0.48866 4.75539,-1.59343 2.34009,-1.05872 5.25725,-2.70803 9.93324,-5.61605 3.55131,-2.20858 4.54523,-2.92262 3.67466,-2.63993 -0.23116,0.075 -2.87513,1.44735 -5.87543,3.04951 -5.05265,2.69811 -10.45734,5.26467 -10.64947,5.05717 -0.14384,-0.15533 1.73392,-5.34664 2.63881,-7.29534 0.62478,-1.34545 0.99855,-1.93262 1.31226,-2.06143 0.24126,-0.0991 2.2221,-0.66793 4.40184,-1.26417 2.17976,-0.59625 5.52552,-1.67095 7.43506,-2.38826 1.90951,-0.71729 4.75377,-1.7887 6.32056,-2.38087 2.27068,-0.85823 3.07235,-1.07698 3.95096,-1.07803 1.19454,-0.001 1.63089,0.26396 0.74761,0.45474 -0.30135,0.0651 -0.82085,0.41305 -1.1544,0.77325 -0.74167,0.80095 -0.78695,1.52286 -0.18211,2.90444 0.74595,1.70399 1.72225,2.40334 3.35504,2.40334 1.62941,0 3.02844,-1.29553 3.51763,-3.25738 0.19347,-0.77588 0.2181,-0.7981 0.59195,-0.53405 1.16559,0.82324 4.93971,3.04042 6.79967,3.99458 2.66198,1.36558 4.11691,1.98598 5.95157,2.53781 0.789,0.2373 1.43516,0.49811 1.4359,0.57955 0.002,0.19062 -2.3135,1.81014 -3.08607,2.15874 -0.32494,0.14661 -1.57508,0.53491 -2.77811,0.86289 l -2.18729,0.59632 -1.00328,-1.19723 c -1.23699,-1.47614 -2.97576,-2.721 -5.39055,-3.8593 -2.14582,-1.01151 -2.64662,-1.19752 -2.64278,-0.98161 0.001,0.0864 0.85779,0.63303 1.90277,1.21464 2.32363,1.29326 4.21678,2.60072 5.01297,3.46205 0.69977,0.75704 1.54112,2.07889 1.41197,2.21838 -0.0493,0.0532 -0.57454,-0.2886 -1.16713,-0.75971 -1.60715,-1.27762 -4.60946,-3.1187 -6.29594,-3.86079 -1.93466,-0.8513 -3.33066,-1.24705 -4.88023,-1.38349 -1.07644,-0.0948 -1.36514,-0.0487 -2.0475,0.32645 -1.79063,0.98455 -4.99086,3.61149 -15.06142,12.36327 -5.43719,4.72517 -10.51181,8.50793 -11.23185,8.37254 -0.0767,-0.0144 -0.94064,-0.93391 -1.9199,-2.04332 z m 4.62914,-0.90084 c 2.53055,-1.85327 9.75117,-7.82037 9.84162,-8.13308 0.12175,-0.42111 -0.41665,-0.25843 -0.86387,0.26099 -1.00996,1.17305 -7.49004,5.99549 -10.046,7.47618 -2.04968,1.18739 -2.10457,1.23382 -1.84987,1.56527 0.38107,0.49582 0.96261,0.2628 2.91812,-1.16936 z m 32.92702,2.43359 c -1.29407,-0.77944 -1.85833,-1.5283 -1.85833,-2.46623 0,-0.45783 0.15716,-0.75925 0.62934,-1.20695 1.01602,-0.96335 2.13004,-0.74134 3.26119,0.64989 0.8908,1.09561 0.74413,2.47978 -0.3261,3.07741 -0.65916,0.36811 -1.02432,0.35652 -1.7061,-0.0541 z m 10.78279,-10.64986 c -0.83237,-0.0795 -1.9115,-0.26048 -2.39809,-0.40222 l -0.88472,-0.25769 -0.28695,-1.55019 -0.28695,-1.55018 1.26068,-0.23622 c 0.69338,-0.12992 2.00147,-0.49805 2.90685,-0.81806 l 1.64614,-0.58185 0.96553,0.80442 c 1.25088,1.04215 3.88801,4.0087 3.76092,4.23073 -0.18868,0.32968 -4.54715,0.56526 -6.68341,0.36126 z m 6.67663,-2.49299 c -1.6452,-1.44596 -3.47185,-3.29737 -3.47185,-3.5189 0,-0.13103 0.14062,-0.37567 0.31251,-0.54364 0.29071,-0.28409 0.48395,-0.14997 2.7687,1.92157 1.35092,1.22486 2.38955,2.29899 2.30808,2.38696 -0.0815,0.088 -0.38598,0.20946 -0.67668,0.26995 -0.42021,0.0875 -0.67458,-0.0183 -1.24076,-0.51594 z m -23.53726,-10.56151 c -0.73785,-0.39442 -1.47791,-1.56705 -1.47791,-2.34179 0,-0.47839 0.70586,-1.22444 1.67104,-1.76623 l 0.86984,-0.48826 1.53107,0.81577 c 1.86899,0.99582 2.26664,1.55628 1.69802,2.39316 -0.2009,0.29564 -0.74911,0.81875 -1.21828,1.16242 -1.02514,0.75096 -1.96151,0.81948 -3.07378,0.22493 z m -22.12844,-2.82566 c -1.61424,-3.00853 -2.97978,-5.19715 -4.61532,-7.39719 -0.68786,-0.92529 -1.20212,-1.68235 -1.14278,-1.68235 0.0593,0 1.06608,0.39369 2.23719,0.87487 1.17111,0.48119 2.20902,0.84618 2.30645,0.81112 0.0975,-0.0351 0.5186,-1.05606 0.93594,-2.26883 1.77227,-5.15027 3.20322,-7.73371 6.53038,-11.78984 1.37126,-1.6717 1.77508,-2.43195 1.2918,-2.43195 -0.60656,0 -2.96092,2.87095 -4.8696,5.93807 -1.19073,1.9134 -2.5993,5.09684 -3.32768,7.52068 -0.36544,1.2161 -0.67418,2.2312 -0.68607,2.25578 -0.012,0.0246 -0.5399,-0.25251 -1.17337,-0.61575 -0.63346,-0.36324 -1.96088,-0.95359 -2.9498,-1.31189 -1.75362,-0.63534 -1.83509,-0.69141 -3.29545,-2.26827 -2.87238,-3.10151 -6.70358,-6.72928 -7.30467,-6.91683 -0.98862,-0.30845 -5.81991,-1.30454 -7.79748,-1.60767 -4.41545,-0.67679 -10.64617,-0.89654 -14.14682,-0.49893 -0.87709,0.0996 -1.62342,0.15012 -1.65851,0.11216 -0.24067,-0.2599 8.91998,-10.61742 12.6199,-14.26874 4.44963,-4.39118 8.26715,-7.64133 12.92695,-11.00569 2.41277,-1.74203 6.72571,-4.63499 6.90999,-4.63499 0.0426,0 0.40555,0.38456 0.80675,0.85459 1.24431,1.45775 3.42731,2.70854 6.09478,3.4921 0.60832,0.1787 1.17603,0.39193 1.26155,0.47384 0.0856,0.0819 -0.31508,0.40599 -0.89022,0.72018 -2.68026,1.46413 -5.409,3.38052 -7.50293,5.26931 -3.41476,3.08023 -5.7864,7.23329 -7.16185,12.54134 -0.21791,0.84095 -0.44114,1.65546 -0.49607,1.81003 -0.0636,0.1792 -0.0254,0.23141 0.10526,0.14408 0.11282,-0.0753 0.9624,-1.7983 1.88788,-3.82883 3.70713,-8.13358 6.28876,-11.06607 13.21758,-15.01389 1.09224,-0.62232 2.21223,-1.32638 2.48885,-1.56457 0.45861,-0.39491 0.48247,-0.47437 0.2707,-0.9017 -0.35276,-0.71178 -1.47889,-1.40642 -4.00023,-2.46747 -2.58479,-1.08776 -4.22261,-1.93812 -4.54779,-2.36123 -0.12123,-0.15772 0.312,0.0185 0.96271,0.39165 0.65071,0.37312 2.27692,1.10124 3.61377,1.61802 1.33686,0.51679 2.83133,1.2153 3.32101,1.55226 1.89443,1.3036 2.43482,1.534 3.40704,1.4526 0.52474,-0.0439 1.334,-0.30584 1.89932,-0.61471 l 0.98498,-0.53817 1.0384,0.86565 c 0.57116,0.4761 1.71945,1.53137 2.5518,2.34503 0.83237,0.81365 2.05007,1.89284 2.70601,2.39819 l 1.19264,0.91883 -0.61133,0.63986 c -0.33623,0.35191 -0.58082,0.67278 -0.54353,0.71305 0.27125,0.29293 5.44623,-3.13371 5.44623,-3.60625 0,-0.0892 -0.46565,0.0973 -1.03479,0.41429 -1.1007,0.61301 -2.21966,0.86643 -2.95082,0.66826 -0.24543,-0.0665 -1.43202,-1.00771 -2.63689,-2.09155 -1.20487,-1.08382 -2.6955,-2.38961 -3.31252,-2.90174 l -1.12186,-0.93114 0.30697,-0.50593 c 0.16884,-0.27825 0.40224,-0.85382 0.51865,-1.27902 l 0.21169,-0.77311 1.04832,0.0591 c 2.25467,0.12706 4.36212,1.12373 7.50416,3.54893 1.10261,0.85106 1.97673,1.57765 1.94248,1.61463 -0.0342,0.037 -0.84145,-0.32594 -1.79375,-0.80651 -2.29121,-1.15622 -2.71721,-1.24522 -2.93941,-0.61414 -0.11462,0.3253 -0.42187,0.57979 -0.9385,0.7771 l -0.76818,0.2934 0.67936,0.0151 c 0.37365,0.008 0.83293,-0.0735 1.02062,-0.18203 0.25031,-0.14467 0.73277,-0.0893 1.81026,0.2078 1.28061,0.35308 2.24189,0.73485 1.89519,0.75263 -0.0626,0.004 -0.89648,-0.16802 -1.85292,-0.38053 -0.95643,-0.21253 -1.77981,-0.34231 -1.82971,-0.28841 -0.14212,0.15348 -0.0915,0.17285 2.64073,1.01029 3.89812,1.19481 5.41978,1.84903 8.03141,3.45301 3.35379,2.05982 5.34387,3.04282 7.14326,3.52842 l 1.55575,0.41986 -0.42769,0.54888 c -0.61607,0.79066 -0.87545,1.79982 -0.75197,2.92568 0.0773,0.70509 0.0529,0.91065 -0.09,0.75638 -0.14219,-0.15355 -0.28196,-0.15397 -0.508,-10e-4 -0.23461,0.15822 -0.59274,0.12388 -1.44601,-0.13866 -3.02152,-0.92965 -5.13454,-1.10906 -6.62079,-0.56219 -1.65573,0.60924 -3.22901,2.73636 -3.84193,5.19438 l -0.19443,0.77974 -1.11397,-0.25208 c -1.73525,-0.39267 -2.7757,-0.31276 -5.37464,0.41284 -1.32568,0.37011 -2.8486,0.67293 -3.38428,0.67293 -2.80851,0 -6.77335,-2.86698 -8.37563,-6.05643 -1.12351,-2.23644 -1.38172,-2.59339 -1.87283,-2.5891 -0.2448,0.002 -0.98046,0.25055 -1.6348,0.55204 -5.45562,2.51366 -10.23076,9.46181 -10.76939,15.67015 -0.13985,1.61202 0.13212,1.59959 0.46736,-0.0214 0.3477,-1.6813 1.05302,-3.85123 1.70582,-5.24807 1.2521,-2.67914 3.50571,-5.5904 5.60187,-7.23657 0.94212,-0.73987 4.21576,-2.8775 4.58432,-2.99348 0.0984,-0.0309 0.53331,0.68491 0.96654,1.59083 1.46221,3.05756 3.10746,4.9138 5.42119,6.11637 2.66909,1.3873 4.42997,1.58914 6.56529,0.75259 2.01194,-0.78824 2.03955,-0.77841 0.35607,0.12679 -2.769,1.4889 -4.23647,1.57505 -6.74774,0.39616 -2.9332,-1.377 -4.76261,-2.9796 -6.26592,-5.48912 -0.44108,-0.73634 -0.8345,-1.33881 -0.87424,-1.33881 -0.0397,0 -0.75823,0.42624 -1.59663,0.94722 -2.86884,1.78269 -4.94457,3.87867 -6.7738,6.83989 -1.21801,1.97172 -2.44817,4.73551 -2.367,5.31781 0.0483,0.34662 0.27852,0.001 1.00246,-1.5044 1.82242,-3.79016 4.32492,-6.78888 7.67585,-9.19791 0.95555,-0.68695 1.81659,-1.24901 1.9134,-1.24901 0.0969,0 0.47106,0.46261 0.83166,1.02801 0.94923,1.48834 3.03773,3.58929 4.48805,4.51481 1.74218,1.11177 3.95979,1.95714 5.11364,1.94934 0.95913,-0.006 1.6316,-0.23139 4.22343,-1.41252 1.70873,-0.77869 2.74812,-0.87115 4.54012,-0.4039 0.58755,0.15322 1.37763,0.2799 1.75574,0.28155 0.68596,0.002 0.68723,0.001 0.57376,-0.65156 -0.22798,-1.31238 1.31507,-4.69517 2.6392,-5.78582 1.26045,-1.03819 3.1046,-1.30494 5.26883,-0.76209 1.09695,0.27513 3.91696,1.22379 3.91696,1.31765 0,0.0241 -0.20029,0.59582 -0.4451,1.27041 -0.5717,1.57532 -0.56054,1.67705 0.10041,0.9163 0.31192,-0.35897 0.47098,-0.46319 0.37142,-0.24336 -0.19157,0.42294 -1.27309,1.59479 -1.27309,1.37941 0,-0.074 0.15127,-0.72402 0.33616,-1.44449 l 0.33614,-1.30995 -0.82577,-0.34157 c -1.6055,-0.6641 -2.62447,-0.87448 -4.24624,-0.87675 l -1.64006,-0.002 -0.1736,0.72101 c -0.27021,1.12223 -0.5523,2.94448 -0.5523,3.56791 0,0.32889 0.32838,1.14933 0.78541,1.96221 l 0.78538,1.39701 -1.13817,-1.19923 c -0.626,-0.65958 -1.42851,-1.70987 -1.78337,-2.33399 l -0.64519,-1.13476 0.12268,0.76012 c 0.29586,1.83415 1.95697,4.05297 3.16417,4.22653 0.22031,0.0317 0.52075,0.10805 0.66762,0.16973 0.1469,0.0617 0.46737,0.14785 0.71218,0.1915 0.28216,0.0504 0.17971,0.0889 -0.27985,0.10563 -1.26815,0.0457 -2.36763,-0.50539 -3.56102,-1.78514 -0.59947,-0.64286 -1.22053,-1.37992 -1.38012,-1.6379 -0.48922,-0.79082 -0.53824,-0.28778 -0.0773,0.79323 0.79684,1.86874 2.43491,3.21323 4.4069,3.6171 1.33265,0.27291 2.06903,0.23916 2.39204,-0.10963 0.24286,-0.26226 0.27978,-0.2641 0.27978,-0.014 0,0.41388 -0.81693,1.04885 -1.67016,1.29815 -1.45618,0.42548 -2.63716,0.12855 -5.35722,-1.34694 -4.06075,-2.20272 -5.3277,-2.27884 -8.78051,-0.52747 -1.71664,0.87074 -2.36716,1.10126 -3.40024,1.20495 l -1.27749,0.12822 -1.37456,1.57084 c -3.80828,4.3521 -5.22786,6.93982 -5.98841,10.91608 -0.1514,0.79146 -0.39653,3.36148 -0.54476,5.71114 -0.2318,3.67463 -0.53709,6.70658 -0.69212,6.87401 -0.0247,0.0266 -0.63557,-1.05234 -1.35747,-2.39781 z m -34.15033,-23.32794 c 1.69514,-1.07436 3.38077,-2.6688 6.90703,-6.53343 5.43074,-5.95183 11.42029,-11.81106 14.85023,-14.52708 2.39723,-1.89826 3.06465,-2.50053 2.9343,-2.64789 -0.1365,-0.15431 -3.3329,2.10944 -6.03362,4.27309 -4.31153,3.45416 -8.615,7.57881 -13.77032,13.19816 -3.76805,4.10721 -6.1343,6.83454 -5.92971,6.83454 0.0547,0 0.52367,-0.26883 1.04209,-0.59739 z m 21.68893,-2.09436 c 2.89169,-6.8801 4.7605,-9.98092 7.5823,-12.58095 2.36963,-2.18343 6.15267,-4.67995 8.4581,-5.58175 0.54997,-0.21514 1.03068,-0.47767 1.06828,-0.58342 0.13187,-0.37111 -1.10758,-0.30896 -2.36152,0.11834 -2.96765,1.01142 -5.76527,2.94388 -8.44261,5.83169 -3.13974,3.38657 -5.28831,7.27537 -6.84113,12.38208 -1.14451,3.76378 -0.93823,3.9229 0.53658,0.41395 z m 45.08744,-10.47859 c 0.0256,-0.11628 -0.62633,-0.20492 -1.64896,-0.22426 -1.63987,-0.031 -1.66971,-0.024 -0.97924,0.22979 0.79898,0.29366 2.56294,0.28995 2.6282,-0.006 z m 0.38964,-1.23789 c -0.252,-0.26878 -3.0196,-1.09681 -5.10311,-1.52679 -3.57543,-0.73788 -5.9573,-1.04121 -8.3303,-1.06082 -2.07758,-0.0172 -2.57783,0.0418 -3.68818,0.43469 -0.7065,0.24999 -1.42759,0.58035 -1.60238,0.73413 -0.28722,0.25266 -0.24925,0.26983 0.39435,0.17826 4.7841,-0.68059 7.73912,-0.53528 12.93335,0.63603 3.12267,0.70416 5.7675,1.00044 5.39627,0.6045 z M 157.55843,99.70294 c -0.18537,-0.34369 -0.39135,-0.94626 -0.45773,-1.33904 -0.0663,-0.39278 -0.23251,-0.81435 -0.36913,-0.93681 -0.54895,-0.49198 -0.16218,1.82788 0.42749,2.56424 0.48951,0.61124 0.77384,0.4059 0.39937,-0.28839 z m -10.42166,49.14845 c 0.25029,-1.5375 0.46242,-4.22596 0.65464,-8.29679 0.18113,-3.83584 0.24791,-4.45241 0.44995,-4.15404 0.45943,0.67853 1.48776,4.54244 2.1459,8.06325 0.58031,3.10437 0.63132,3.58393 0.39844,3.74591 -0.29794,0.20724 -2.29929,0.88352 -3.17321,1.07227 -0.54411,0.11748 -0.56226,0.10103 -0.47572,-0.4306 z m 17.80343,-29.03037 c -0.3917,-0.15581 -1.35313,-0.40729 -2.13653,-0.55884 l -1.42435,-0.27559 1.15728,0.067 c 1.26269,0.0731 3.38286,0.64397 3.38286,0.9109 0,0.21595 -0.11979,0.19839 -0.97926,-0.14344 z m -4.21743,-0.59005 c 0.12857,-0.0555 0.28211,-0.0486 0.34126,0.0153 0.0592,0.0639 -0.0459,0.10937 -0.23367,0.10103 -0.20742,-0.0101 -0.24961,-0.0548 -0.10754,-0.11616 z m 20.52231,-4.99794 c 0.53909,-0.84413 0.35752,-1.29974 -0.46081,-1.15634 -1.63831,0.28709 -1.70778,-2.07072 -0.0872,-2.95882 0.34272,-0.18782 1.08013,-0.4004 1.63863,-0.47239 0.99122,-0.12778 1.01829,-0.11869 1.1338,0.37828 0.16124,0.69373 -0.72969,2.60883 -1.79521,3.85892 -0.46207,0.54209 -0.64926,0.69488 -0.42923,0.35035 z m -3.21866,-6.39605 c -3.47444,-1.0528 -6.24651,-2.7091 -12.73013,-7.60629 -2.0564,-1.55325 -4.25971,-3.10766 -4.89621,-3.45427 -2.48952,-1.35567 -4.79275,-1.98595 -5.80248,-1.58788 -0.31309,0.12342 -0.45815,-0.002 -0.91409,-0.79477 l -0.54196,-0.94145 0.80542,-0.11918 c 1.60055,-0.23691 4.03351,-0.12063 5.51789,0.26363 1.55057,0.40144 2.95477,1.08981 4.82506,2.36538 l 1.13527,0.77425 0.91478,-0.24738 c 3.49094,-0.94408 6.83878,-2.55794 9.11081,-4.391951 0.78667,-0.63501 2.24885,-2.07231 3.2493,-3.19396 1.00044,-1.12166 1.81897,-1.94479 1.81897,-1.82917 0,0.11567 -0.21098,0.78737 -0.46886,1.49277 -1.41599,3.87346 -4.80021,7.265431 -10.00584,10.028741 -1.09361,0.58051 -1.98837,1.15351 -1.98837,1.27332 0,0.36845 1.54083,1.77609 3.25299,2.97177 1.91684,1.33866 5.06433,3.05848 8.05279,4.40014 l 2.13652,0.95919 -1.15727,-0.006 c -0.63651,-0.004 -1.67808,-0.16389 -2.31459,-0.35675 z m -8.27903,-9.59945 c 3.64005,-1.88028 10.00795,-7.642861 9.29567,-8.412031 -0.0462,-0.05 -0.59439,0.39473 -1.21804,0.98824 -2.6782,2.548751 -6.50422,4.844341 -9.64061,5.784281 -0.903,0.27062 -1.75557,0.53129 -1.89462,0.57926 -0.1803,0.0622 -0.055,0.30593 0.43673,0.84981 0.85871,0.94966 1.50294,0.99453 3.02087,0.21044 z m -22.79871,-0.90165 c -3.08083,-1.75291 -3.42255,-1.91644 -5.77736,-2.76467 -1.22404,-0.44091 -2.89025,-1.18888 -3.70267,-1.66212 -0.81243,-0.473251 -1.5625,-0.803491 -1.66682,-0.733861 -0.24281,0.16205 -0.49972,-0.27373 -0.50321,-0.8536 -0.002,-0.44787 0.003,-0.44665 1.14836,0.23302 1.63518,0.97063 3.31485,1.440621 7.34564,2.055441 l 1.464,0.22331 0.56536,1.32452 c 0.31093,0.72849 0.61358,1.32446 0.67252,1.32439 0.059,-8e-5 0.11211,-0.88691 0.11822,-1.97075 0.0165,-2.922191 0.74178,-4.757611 2.7713,-7.012551 1.66693,-1.85207 3.44952,-2.51262 9.76971,-3.62019 7.60292,-1.33236 10.86159,-2.75923 16.22158,-7.10288 1.10366,-0.89439 2.04216,-1.58779 2.08559,-1.54091 0.20011,0.21611 -1.57645,3.00127 -2.78778,4.37045 -3.0263,3.42063 -7.14334,5.66728 -15.27237,8.33404 -4.18218,1.37197 -4.87765,1.68134 -5.84797,2.60137 -0.83467,0.79139 -1.07571,1.77074 -0.82243,3.341421 0.51214,3.17588 -0.1759,4.29574 -2.75498,4.48407 -1.02872,0.0751 -1.16529,0.0286 -3.02674,-1.0305 z m 4.69001,-0.21763 c 0.26514,-0.21378 0.59128,-0.69851 0.72475,-1.07716 0.22342,-0.63394 0.21124,-0.7361 -0.15397,-1.28994 -0.33007,-0.50057 -0.38397,-0.7899 -0.32134,-1.72492 0.0984,-1.468271 0.71979,-2.485361 2.11248,-3.457421 1.02581,-0.71596 1.54275,-0.91663 7.46773,-2.89873 4.34747,-1.45438 7.917,-3.31947 10.79051,-5.63811 1.48237,-1.19613 3.58151,-3.31402 3.439,-3.46971 -0.0567,-0.062 -1.01812,0.55013 -2.13653,1.36006 -4.34349,3.14545 -8.01893,4.53422 -15.19696,5.74221 -1.65554,0.27862 -3.60248,0.67019 -4.32652,0.87016 -3.26998,0.90314 -5.63579,3.21069 -6.66017,6.49621 -0.58375,1.872201 -0.54278,3.076931 0.13922,4.093601 0.76721,1.14374 1.52556,1.55385 2.69756,1.45883 0.57611,-0.0467 1.12941,-0.22739 1.42424,-0.46508 z"
       id="path2467" /></g></svg>
