<?xml version="1.0" encoding="UTF-8" standalone="no"?>
<!-- Created with Inkscape (http://www.inkscape.org/) -->

<svg
   width="210mm"
   height="297mm"
   viewBox="0 0 210 297"
   version="1.1"
   id="svg1"
   xml:space="preserve"
   xmlns:xlink="http://www.w3.org/1999/xlink"
   xmlns="http://www.w3.org/2000/svg"
   xmlns:svg="http://www.w3.org/2000/svg"><defs
     id="defs1"><g
       id="d-6"><g
         id="b-8"><path
           id="a-5"
           d="M 0,0 V 1 H 0.5 Z"
           transform="rotate(18,3.157,-0.5)" /><use
           xlink:href="#a-5"
           transform="scale(-1,1)"
           id="use1" /></g><g
         id="c-7"><use
           xlink:href="#b-8"
           transform="rotate(72)"
           id="use2" /><use
           xlink:href="#b-8"
           transform="rotate(144)"
           id="use3" /></g><use
         xlink:href="#c-7"
         transform="scale(-1,1)"
         id="use4" /></g><clipPath
       clipPathUnits="userSpaceOnUse"
       id="clipPath204"><path
         id="path205"
         style="fill:#ff0000;fill-opacity:1;fill-rule:nonzero;stroke:none"
         d="M 111.03069,1.6055118e-4 C 108.44689,3.5193106 104.74128,6.9933806 99.755297,10.183761 c -2.49506,1.59652 -4.91214,3.30823 -7.36133,4.97265 -2.52581,1.71477 -5.09241,3.36689 -7.708981,4.93946 -0.83294,0.50579 -1.6937,0.9735 -2.5,1.52343 -0.13715,0.0935 -0.48935,0.33104 -0.52344,0.39063 l -0.002,0.002 -0.002,0.002 v 0.002 0.002 0.002 h 0.002 v 0.002 h 0.002 0.002 c 0.007,8.2e-4 0.0205,2.6e-4 0.0391,-0.006 0.19322,-0.0592 0.33078,-0.23343 0.49609,-0.34961 0.063,-0.0356 0.0987,-0.0565 0.10742,-0.0586 l 0.002,0.002 -0.002,0.002 c -0.0124,0.0178 -0.11429,0.10577 -0.28711,0.28906 -0.93738,0.99412 0.0926,-0.0967 -1.16992,1.23242 -0.48257,0.50801 -0.75438,0.75146 -0.77734,0.78516 l -0.002,0.002 v 0.002 h 0.002 0.002 c 0.0149,-0.006 0.0712,-0.0464 0.17188,-0.11524 -0.89144,1.07122 -1.72733,2.17791 -2.52735,3.31836 -1.00448,1.53077 -1.91608,3.11864 -2.92578,4.65039 -0.89543,1.33663 -1.88136,2.61169 -2.91016,3.84766 -0.79389,1.33018 -1.75072,2.7143 -2.60351,4.07226 -1.17804,2.10079 -2.56013,4.06106 -3.97266,6.00782 -0.007,0.01 -0.012,0.0164 -0.0137,0.0195 v 0.002 h 0.002 c 0.0228,-0.0212 0.19966,-0.23778 0.26953,-0.31836 -0.92821,1.8054 -2.42616,3.2239 -3.50585,4.92578 -1.23651,1.86853 -2.52655,3.70219 -3.85547,5.50586 -1.57233,2.17891 -3.06744,4.42293 -4.67578,6.58789 -2.23702,3.04998 -4.60885,5.99892 -6.78125,9.09571 -1.98989,2.8406 -3.83894,5.774461 -5.69141,8.705071 -2.04056,3.41943 -4.60751,6.47068 -7.25977,9.42383 -1.00795,1.09544 -1.15712,1.64024 -2.68945,3.89844 -1.67878,2.24366 -3.20386,4.57545 -4.57617,7.015628 -1.2612,2.63467 -2.95213,5.05432 -4.24024,7.66797 -0.66246,1.39262 -1.12737,2.93973 -1.50585,4.47656 -0.77917,2.84234 -1.52526,5.69474 -2.29883,8.53906 -0.76156,2.42087 -1.33831,4.88685 -1.93164,7.35156 -0.48553,2.3451 -1.35315,4.5822 -2.29883,6.77344 -0.34148,0.79124 -1.01284,1.8897 -1.21289,2.74024 -0.43961,1.24645 -0.93774,2.47547 -1.29688,3.74414 -0.67409,2.01857 -1.22061,4.00389 -1.7929704,6.03906 -0.54825,1.99734 -1.0688601,4.00332 -1.5937501,6.00781 -2.06856,8.12968 -3.62113,9.79318 -8.35742006693,9.50391 V 423.22316 C 0.78259544,424.68258 1.5260955,426.25237 2.2222455,427.9341 c 2.24156,5.41512 3.69616,11.11372 4.91601,16.83203 0.84787,4.45055 1.43982,8.94956 2.7539101,13.29493 1.6054604,4.60618 2.7273304,9.34272 3.7656304,14.10156 0.58999,2.95959 1.35203,5.87504 2.23242,8.75976 0.78632,2.03902 1.11839,4.33117 2.22656,6.23828 1.39221,2.75846 2.83999,5.48843 4.44922,8.12696 1.75519,2.98254 3.8734,5.71458 5.93555,8.48437 2.57633,3.52146 5.04627,7.12615 7.44726,10.76953 2.30413,3.67223 4.78102,7.22889 7.19531,10.82813 2.45788,3.5554 5.15616,6.97254 7.94141,10.28125 3.03581,3.45842 5.66945,7.24936 8.34766,10.98633 1.90464,2.65497 3.9235,5.2326 6.01367,7.74414 2.67436,3.17518 5.33463,6.36099 8.10742,9.45117 2.80221,2.99324 5.55824,6.02561 8.27148,9.09961 2.64956,2.94403 5.111661,6.0495 7.492191,9.21289 2.0819,2.77599 4.16613,5.53605 6.05664,8.44727 1.04543,2.04725 2.60919,3.82102 3.59766,5.89843 0.54996,1.15585 1.044463,2.33654 1.556643,3.50977 h 688.1543 c 1.85853,-1.76301 3.76083,-3.47874 5.73047,-5.12109 1.2909,-0.72382 3.45983,-4.11919 4.4043,-5.33789 2.84927,-4.12396 5.72956,-8.23915 8.95898,-12.07813 2.53467,-3.07431 5.15132,-6.07864 7.64063,-9.18945 2.65307,-3.42546 5.17763,-6.951 7.78906,-10.40821 2.21628,-3.05155 4.36775,-6.15242 6.33008,-9.375 2.32237,-3.63212 4.83335,-7.11305 7.50586,-10.49414 2.54022,-3.55098 4.83879,-7.27382 7.17382,-10.96093 2.32289,-3.72291 4.71589,-7.40096 6.97659,-11.16211 2.0158,-3.3447 4.1018,-6.64449 6.3144,-9.86329 2.0358,-3.06145 4.0792,-6.11677 6.0801,-9.20117 1.9955,-3.11486 3.9808,-6.2352 5.9766,-9.34961 1.2836,-1.95201 2.7076,-3.80881 3.7656,-5.89843 1.0802,-1.92178 1.7054,-4.10275 2.6133,-6.10938 0.6871,-1.83965 1.1065,-3.73997 1.6699,-5.62305 0.6764,-2.25105 1.3663,-4.49838 2.3106,-6.65429 0.6021,-1.47474 0.8131,-3.08443 1.455,-4.54688 0.7889,-2.51879 1.6613,-5.03371 2.916,-7.37305 0.1684,-0.32556 0.3295,-0.6574 0.5059,-0.97851 0,0.0149 -0.013,0.0575 -0.016,0.0762 -0.046,0.14472 -0.093,0.29079 -0.1387,0.43555 0.4468,-1.02811 0.7564,-2.11559 1.1641,-3.15821 1.1786,-3.24854 2.578,-6.38661 4.2968,-9.38476 0.9141,-1.84811 1.4609,-2.71205 1.8067,-5.05664 0.9789,-3.67091 2.2065,-7.24387 3.7246,-10.72852 1.3363,-3.06721 2.8022,-5.76923 4.3574,-8.12304 V 167.72282 c -16.8148,8.9425 -14.712,14.39995 -18.3047,4.10156 -0.086,-0.27512 -0.1715,-0.5504 -0.2558,-0.82617 -0.6178,0.1395 -0.522,-0.90408 -0.5254,-1.77344 -0.5124,-1.78836 -0.9769,-3.59007 -1.3828,-5.40625 -1.2861,-3.43913 -2.7453,-6.80944 -4.2325,-10.16601 -2.486,-5.54766 -4.9141,-11.11756 -7.1582,-16.76758 -1.7379,-4.56076 -3.3534,-9.15856 -4.6796,-13.85156 -0.3424,-0.5099 -0.6844,-1.01808 -1.0274,-1.52735 -3.3217,-5.05657 -6.4479,-10.23097 -9.5215,-15.4414 -2.8749,-4.63006 -5.9071,-9.163778 -8.83006,-13.763678 -2.78306,-4.15549 -5.73829,-8.20015 -8.33203,-12.47851 -2.47597,-3.96708 -5.17754,-7.779601 -7.81055,-11.642581 -2.90589,-4.20363 -5.98032,-8.28684 -8.96093,-12.4375 -2.48878,-3.33607 -5.23004,-6.48327 -7.55664,-9.93945 -1.97121,-2.99491 -3.76222,-6.09485 -5.66797,-9.13086 -1.53074,-2.41364 -3.01341,-4.85885 -4.57617,-7.25196 -1.48267,-2.45574 -2.86562,-4.96815 -4.18165,-7.51757 -1.28421,-2.43742 -2.87466,-4.70036 -4.25585,-7.08204 -1.47307,-2.53225 -2.81348,-5.1356303 -4.26758,-7.6777304 -1.31369,-2.35587 -2.52993,-4.76121 -3.79297,-7.14258004882 z" /></clipPath><clipPath
       clipPathUnits="userSpaceOnUse"
       id="clipPath216"><path
         id="path217"
         style="fill:#ff0000;fill-opacity:1;fill-rule:nonzero;stroke:none;stroke-width:0.264583"
         d="m 169.1814,9.8133546 -0.004,5.291e-4 c -1.4883,0.00321 -2.97659,0.00366 -4.46484,0.015502 -1.14165,0.01202 -2.28344,0.02155 -3.42408,0.074931 -1.1728,0.059749 -2.34398,0.1526933 -3.50935,0.2997223 -1.80916,0.212403 -3.61896,0.391057 -5.43946,0.474907 -2.1034,0.11181 -4.2082,0.129075 -6.31434,0.117305 -1.29777,0.0063 -2.5957,0.0075 -3.89331,0.03204 -0.18719,0.005 -0.37454,0.01337 -0.56172,0.01809 -0.0196,5.03e-4 -0.066,0.0037 -0.0832,0.0031 -0.38096,0.107644 -0.83096,0.285323 -1.2175,0.387573 -0.89901,0.222843 -1.81172,0.381855 -2.70474,0.631486 -1.37261,0.343934 -2.74477,0.697148 -4.12843,0.991671 -2.7843,0.592657 -4.94048,0.226486 -6.38514,-0.654224 -1.99473,0.792315 -4.02793,1.492094 -6.06423,2.166276 -2.80916,0.880048 -5.64078,1.681838 -8.45788,2.53628 -0.0695,0.06393 -1.63756,0.440563 -1.66657,0.517797 v 5.29e-4 c -3e-5,6.88e-4 -6e-5,0.0016 0,0.0021 v 5.29e-4 5.29e-4 l 5.3e-4,5.29e-4 v 5.3e-4 l 5.3e-4,5.29e-4 c 0.001,9.79e-4 0.003,0.0023 0.005,0.0031 0.0543,0.02314 0.61007,-0.192983 0.71831,-0.235645 -0.0654,0.02608 -0.31611,0.126661 -0.89659,0.364836 -0.92835,0.404287 -1.89365,0.706206 -2.86391,0.989087 -0.0418,0.01739 -0.12536,0.04861 -0.26406,0.09767 -1.34128,0.460616 -2.68591,0.913139 -4.0318,1.360641 -0.24443,0.07827 -0.48762,0.160321 -0.73329,0.234611 -0.37991,0.114874 -0.76091,0.225647 -1.14308,0.332796 -0.20904,0.05861 -0.72544,0.226725 -0.85369,0.251147 -0.0249,0.0077 -0.0498,0.01588 -0.0755,0.02377 -0.14376,0.06844 -0.28816,0.135449 -0.43305,0.201539 -1.131405,0.734544 -2.261708,1.32708 -3.506245,2.021065 -0.334314,0.148472 -0.584046,0.260352 -0.779798,0.348299 -0.445339,0.56979 -1.490657,1.088096 -2.007629,1.609204 -1.476899,1.488717 -3.155138,2.74195 -4.935099,3.835941 -1.408768,0.888315 -2.816,1.778548 -4.258654,2.611729 -1.348065,0.768929 -2.717069,1.495999 -4.028696,2.328021 -0.499507,0.297556 -0.992431,0.607909 -1.483114,0.921909 0.391771,0.598953 0.793443,1.208037 1.204579,1.827279 1.127522,1.698254 -2.673562,3.079578 -4.070038,4.564578 -0.668851,0.71125 -1.623436,1.169122 -2.355411,1.794724 -1.02504,0.745281 -2.241235,1.615583 -3.39204,2.335774 -0.21268,0.13916 -0.424807,0.279066 -0.63717,0.419094 -0.329885,0.495292 -0.677264,0.978755 -1.036113,1.453658 -0.232971,0.382961 -0.488926,0.804728 -0.548286,0.911575 -0.951007,1.84396 -2.198727,3.456778 -3.563091,4.979024 -1.458296,2.264553 -3.419557,4.175892 -5.538163,5.816698 -1.368652,1.002488 -1.934321,1.358016 -3.038575,2.086179 -0.06299,0.03978 -0.119594,0.07539 -0.170016,0.107487 -0.269775,0.230785 -0.534757,0.441203 -0.799949,0.641302 -0.242078,0.412623 -0.491707,0.821153 -0.746726,1.226283 -0.02254,0.0425 -0.04303,0.08138 -0.06201,0.117305 -0.0173,0.115687 -0.03545,0.238411 -0.05478,0.368454 -0.578072,3.384383 -1.869762,6.574991 -3.68401,9.47384 -0.03941,0.07436 -0.132221,0.236268 -0.243396,0.426847 -0.271391,0.598736 -0.552553,1.185384 -0.848529,1.776119 0.694565,-1.207093 1.141478,-1.926963 -1.392164,2.662888 -0.109524,0.198401 -0.278444,0.470572 -0.442867,0.727086 -0.03016,0.100007 -0.06114,0.199705 -0.09302,0.299207 -0.212923,0.664559 -0.520126,1.294476 -0.783413,1.940967 0.04122,-0.08784 0.08224,-0.175215 0.123505,-0.263033 0.06139,-0.130646 -0.229828,0.529553 -0.176734,0.395325 0.01741,-0.04405 0.03536,-0.08841 0.05323,-0.132292 -0.273026,0.581763 -0.545317,1.164238 -0.818038,1.746147 -0.178973,0.324474 -0.345536,0.655754 -0.536919,0.973066 -0.302091,0.500851 -0.616361,0.994685 -0.937409,1.48363 -0.05494,0.09094 -0.110058,0.181821 -0.164848,0.272851 -0.04723,0.07421 -0.131125,0.209757 -0.207225,0.331764 -0.326162,0.584996 -0.299616,0.549942 -0.545703,0.923975 -0.03287,0.0506 -0.05933,0.09131 -0.09095,0.140044 0.02901,-0.04403 0.0549,-0.08345 0.07855,-0.119374 -0.02633,0.04177 -0.06275,0.09954 -0.08062,0.128158 -0.05584,0.08509 -0.162951,0.248735 -0.250629,0.382405 7.94e-4,-0.0016 0.0013,-0.0024 0.0016,-0.0031 -0.01805,0.02784 -0.04031,0.06148 -0.05633,0.0863 -0.0045,0.0068 -0.0084,0.01323 -0.01291,0.02016 -7.94e-4,0.0011 -0.0019,0.0026 -0.0026,0.0036 -0.0066,0.01024 -0.0024,0.0039 -0.0088,0.01394 -0.631677,0.979872 -0.726729,1.151306 -0.869199,1.347722 -0.103603,0.173741 -0.213206,0.35519 -0.310057,0.513665 -0.04432,0.08395 -0.08895,0.168497 -0.13281,0.251663 -0.01995,0.05668 -0.0399,0.112832 -0.05994,0.168982 -0.0016,0.235005 -0.003,0.469865 -0.0052,0.704866 -0.0052,0.953008 -0.0019,1.906248 -5.29e-4,2.859256 0.0032,0.723345 0.0037,1.446565 5.29e-4,2.169893 0.06373,2.375181 -0.378401,4.699836 -0.839224,7.011974 0.150797,0.29387 -0.343437,1.07292 -0.363286,1.49862 -2.64e-4,0.008 -5e-5,0.0138 5.29e-4,0.0165 0.02064,-0.0842 0.04084,-0.1685 0.0615,-0.2527 -0.01987,0.0847 -0.05064,0.23906 -0.05994,0.25425 v 5.3e-4 h -5.29e-4 -5.29e-4 v -5.3e-4 l -5.3e-4,-5.3e-4 c -0.146333,0.5969 -0.292914,1.19369 -0.439248,1.79059 -0.20675,1.21058 -0.401846,2.42361 -0.681614,3.6189 -0.06959,0.29731 -0.163653,0.58769 -0.26665,0.8754 -0.08579,0.47941 -0.194746,1.07031 -0.331763,1.79214 -0.0027,0.0141 -0.0055,0.0283 -0.0083,0.0424 -0.0024,0.13891 -0.0072,0.27797 -0.0093,0.41031 -0.008,0.75835 -0.0047,1.51696 -0.0088,2.27532 -0.0013,0.67041 0.0029,1.34083 0.0026,2.01124 -1.01e-4,0.68839 -0.0021,1.37659 -0.0026,2.06499 5.29e-4,0.78765 -0.0031,1.57552 -0.0031,2.36317 -9.8e-5,0.75768 0.0026,1.51555 0.0031,2.27324 -7.94e-4,0.69391 -2.33e-4,1.38761 -0.0031,2.08153 -0.0016,0.83532 -5.3e-4,1.67047 -0.0031,2.50579 7.94e-4,0.76395 0.0029,1.52789 0,2.29185 2.502813,5.01456 4.015867,11.61351 3.929475,19.79672 -0.0024,0.2206 -0.0043,0.44137 -0.0062,0.66198 -0.0019,0.22377 -0.0049,0.44749 -0.0062,0.67128 0.02297,0.0803 0.0593,0.32869 0.101285,0.59686 0.031,0.18685 0.03066,0.38133 0.09302,0.56017 0.005,0.0143 0.0086,0.0225 0.01085,0.0253 l 5.29e-4,5.3e-4 0.0011,5.3e-4 h 0.0011 0.0011 5.29e-4 v -5.3e-4 c 0.01011,-0.0316 -0.121931,-0.66077 -0.114721,-0.69143 l 0.0011,-5.3e-4 v -5.3e-4 h 5.29e-4 0.0021 l 5.3e-4,5.3e-4 c 0.0019,0.003 0.0057,0.0114 0.01035,0.0259 0.184309,0.57097 0.307663,1.19008 0.448551,1.76888 0.260201,1.05568 0.447762,2.12518 0.590145,3.20136 0.110614,0.28356 0.221869,0.56954 0.336415,0.85783 0.144759,0.48404 0.305083,0.96378 0.434599,1.45211 0.184888,0.69712 0.28262,1.40772 0.413412,2.11201 0.0223,0.0887 0.04436,0.17742 0.06666,0.26614 0.02365,0.14621 0.04807,0.29235 0.0708,0.43873 0.05233,0.32007 0.142904,0.63231 0.187068,0.95498 0.03407,0.24887 0.13457,0.99527 0.08888,0.74827 -0.104513,-0.56551 -0.187706,-1.13493 -0.275952,-1.70325 -0.03862,-0.2362 -0.09381,-0.46985 -0.137459,-0.70487 -0.05735,-0.22813 -0.114742,-0.45607 -0.172083,-0.68419 -0.313261,-1.24624 -0.635468,-2.36778 -0.965832,-3.37241 0.06016,0.48932 0.111845,0.97978 0.157094,1.47071 0.09257,1.06765 0.116697,2.13912 0.130225,3.21014 0.01056,0.71352 0.01127,1.42686 0.01188,2.14044 -5.29e-4,0.2612 -0.0021,0.52273 -0.0021,0.78393 0.118398,0.68467 0.205298,1.37339 0.270785,2.06448 0.08039,0.30452 0.16468,0.60819 0.237197,0.91467 0.0029,0.0121 0.006,0.0241 0.0088,0.0362 0.06353,0.0108 0.0792,0.2612 0.104902,0.46199 0.0186,0.0843 0.03721,0.16827 0.0553,0.2527 0.0383,0.12546 0.0784,0.25061 0.110585,0.37775 0.01151,0.0454 0.02313,0.091 0.03463,0.13643 0.07735,0.13905 0.157734,0.28406 0.241845,0.43511 0.996889,2.3996 0.347956,0.68751 1.17874,2.71715 0.01487,0.0363 0.03469,0.0827 0.05736,0.13488 0.106254,0.24439 0.273902,0.61491 0.274918,0.6599 v 5.3e-4 c 0.325374,0.75436 0.646647,1.50782 0.94878,2.27686 0.47072,1.25385 0.845534,2.5399 1.211297,3.82716 0.02429,0.0854 -0.04595,-0.17155 -0.06873,-0.25735 0.107453,0.34025 0.214403,0.68135 0.31781,1.02371 1.773735,0.31054 3.744097,1.61902 5.422926,4.23592 0.633095,0.98685 1.134166,2.04972 1.677416,3.08663 0.516464,0.94667 0.947526,1.93654 1.393198,2.91765 0.347001,0.72029 0.627875,1.46794 0.869196,2.22932 0.11816,0.36028 0.239683,0.71868 0.353468,1.08004 0.173148,0.16897 0.345643,0.33904 0.516765,0.51005 1.743887,1.74276 2.999597,3.9681 4.157369,6.1128 0.213543,0.54888 0.44546,1.09107 0.670243,1.63608 0.266186,0.17657 0.527446,0.36015 0.78238,0.55397 0.486394,0.33683 0.885518,0.78432 1.357024,1.13792 0.473086,0.33183 0.908778,0.70751 1.308963,1.12344 0.134374,0.16411 0.285358,0.31182 0.427882,0.46871 0.155283,0.1711 0.08182,0.11871 0.172598,0.17931 0.276553,0.25062 0.576993,0.47295 0.877983,0.69299 0.348443,0.25252 0.704148,0.49483 1.059883,0.7369 0.399333,0.25707 0.760357,0.56799 1.151351,0.83664 0.501975,0.29713 0.931762,0.69373 1.4025,1.03301 0.63668,0.44874 1.260332,0.91583 1.900143,1.36013 0.806603,0.55635 1.628319,1.08981 2.458765,1.60972 0.871929,0.52866 1.720405,1.09422 2.584336,1.63556 0.845902,0.54501 1.705903,1.06561 2.56677,1.58646 0.845908,0.50034 1.660853,1.04979 2.46548,1.61334 0.570754,0.39438 1.101344,0.84221 1.66605,1.24489 0.774917,0.54135 1.516996,1.12727 2.287198,1.67535 0.790615,0.54517 1.582579,1.08931 2.382285,1.62109 0.936905,0.6174 1.886688,1.21439 2.830835,1.82056 1.097092,0.711 2.229819,1.36584 3.357417,2.02675 1.476666,0.86905 3.016461,1.6256 4.565101,2.35644 1.9032,0.88924 3.87062,1.63149 5.8291,2.38797 1.78322,0.68134 3.57333,1.34428 5.32474,2.10478 1.14581,0.48913 2.23388,1.09657 3.33106,1.6831 0.38016,0.20108 0.76185,0.40078 1.13844,0.60875 1.87884,0.073 3.75599,0.17578 5.63221,0.31419 2.71122,0.25871 5.42755,0.43825 8.14834,0.55191 2.67049,0.0982 5.34255,0.12573 8.0145,0.14883 2.96985,-0.0896 5.90956,0.10874 8.847,0.53433 0.77865,0.16064 1.26176,0.26029 1.54926,0.31936 h 5.3e-4 c 0.004,8e-4 0.004,0.001 0.008,0.002 0.001,2.6e-4 0.004,7.9e-4 0.006,0.001 -0.0111,-0.001 0.0611,0.0152 0.37517,0.0816 0.13992,0.0297 0.55885,0.12237 0.42013,0.0873 -0.15576,-0.039 -0.31458,-0.063 -0.47077,-0.10025 -0.002,-2.6e-4 -0.003,-7.9e-4 -0.004,-0.001 h -5.3e-4 v -5.3e-4 h 5.3e-4 c 8e-4,-1.6e-4 0.004,-5.3e-4 0.006,-5.3e-4 h 5.3e-4 l 5.3e-4,5.3e-4 h 5.3e-4 c 0.0138,1.1e-4 0.0423,0.002 0.0543,0.004 0.56681,0.0972 1.13277,0.19983 1.69912,0.29972 0.37514,0.0817 0.75354,0.14785 1.12499,0.24495 0.74114,0.19379 1.47976,0.39979 2.21124,0.62735 0.35283,0.10976 0.69862,0.24006 1.04541,0.36793 0.46597,0.12637 0.78746,0.21377 1.22112,0.35347 0.05,0.0132 0.10409,0.0285 0.13436,0.0372 0.56304,0.16119 1.12449,0.32794 1.68671,0.49195 1.09854,0.37741 2.20278,0.70897 3.34502,0.91365 0.50423,0.0871 0.52146,0.0547 1.22835,0.0832 1.60352,0.058 3.20825,0.0696 4.81262,0.0801 1.49135,0.008 2.98279,0.003 4.47415,0.008 0.2208,-2.6e-4 0.44118,-0.002 0.66198,-10e-4 0.18614,10e-4 0.48876,-5.3e-4 0.7984,-0.003 0.11347,-0.0232 0.30426,-0.0541 0.59738,-0.0961 0.005,-0.003 0.0128,-0.007 0.0238,-0.0124 0.7106,-0.31954 2.56639,-0.58566 2.85099,-0.64595 2.2759,-0.33295 2.47784,-0.35497 4.05763,-0.59015 2.13694,-0.31097 4.2956,-0.42431 6.45129,-0.5085 0.8181,-0.0458 1.63822,-0.0334 2.45669,-0.0646 0.0518,-0.002 -0.16723,0.004 -0.18397,-0.002 l -5.3e-4,-0.001 h -5.3e-4 v -5.3e-4 -5.3e-4 h 5.3e-4 5.3e-4 l 5.3e-4,-0.001 h 5.3e-4 l 5.3e-4,-5.3e-4 c 2.7e-4,-1.1e-4 0.002,-2.5e-4 0.003,-5.2e-4 l 5.3e-4,-5.3e-4 5.3e-4,-0.001 c 0.24874,-0.0498 0.57434,-0.0276 0.28267,-0.0429 1.13055,-0.17098 2.24333,-0.43046 3.35638,-0.68782 1.28186,-0.25708 2.14708,-0.58694 3.34605,-0.96531 1.25107,-0.37442 1.16008,-0.36258 2.81482,-0.74363 0.33509,-0.0772 0.68902,-0.30151 1.02009,-0.30282 0.0348,-0.0105 0.0696,-0.0205 0.10439,-0.031 1.7482,-0.47319 3.50192,-0.92903 5.26117,-1.3596 0.0376,-0.01 0.075,-0.0189 0.11266,-0.0284 -0.17674,-0.80523 -0.34577,-1.61208 -0.53227,-2.41484 0.12523,-0.028 0.25104,-0.0543 0.37724,-0.0775 0.004,-0.0289 0.0547,-0.0222 0.10387,-0.0181 0.0744,-0.0129 0.14906,-0.0255 0.22376,-0.0367 0.0172,-0.004 0.0349,-0.008 0.0522,-0.0124 0.50458,-0.11923 1.00881,-0.24074 1.51257,-0.36328 1.77699,-0.41598 3.54067,-0.88606 5.30769,-1.34204 1.20435,-1.51198 3.70702,-3.30762 7.87342,-5.47822 0.0132,-0.007 0.025,-0.0151 0.0372,-0.0217 -0.18817,0.12283 -0.50949,0.34571 -0.99323,0.70951 -0.55227,0.41533 -1.09149,0.84826 -1.63349,1.27693 0.19602,-0.14823 0.50428,-0.37926 0.37517,-0.2775 -0.20846,0.1643 -0.41994,0.32444 -0.62993,0.48679 0.0201,-0.0187 0.0399,-0.0383 0.0615,-0.0553 0.0649,-0.0511 0.12955,-0.10226 0.19431,-0.15348 -0.0385,0.0291 -0.073,0.0543 -0.0987,0.0739 -0.95518,0.72841 -1.91414,1.45792 -2.76314,2.31304 -0.2322,0.2203 -0.46637,0.43948 -0.70383,0.65422 1.09548,-0.31396 2.17798,-0.66311 3.24838,-1.05678 0.43185,-0.15882 0.81398,-0.30734 1.19424,-0.4594 0.17518,-0.18161 0.3524,-0.36134 0.53486,-0.53641 0.63957,-0.60252 1.35762,-1.13533 2.13578,-1.54719 0.2395,-0.12677 0.4873,-0.23801 0.73071,-0.35708 0.67831,-0.28674 1.35055,-0.5861 2.01796,-0.89607 0.092,-0.068 0.18414,-0.13593 0.27595,-0.20412 0.63996,-0.49397 1.25013,-1.02653 1.9079,-1.49759 1.08003,-0.78517 2.18885,-1.53054 3.32848,-2.22673 1.01332,-0.62555 2.03353,-1.24032 3.0763,-1.81488 -1.40063,-2.5966 -3.7269,-3.14717 -7.64553,-0.20929 -0.0647,0.0654 -0.13334,0.13493 -0.20878,0.21084 -0.0789,0.0794 0.0394,-0.0452 0.16744,-0.17983 -0.54944,0.41416 -1.15737,0.95529 -1.77096,1.50998 0.7674,-0.70931 1.51859,-1.43717 2.32958,-2.10478 0.10769,-0.11569 0.0457,-0.0489 0.61857,-0.64854 2.01501,-2.03575 4.19083,-3.89346 6.50813,-5.57899 3.69725,-2.72424 7.56503,-5.19151 11.38121,-7.74371 4.65043,-3.11805 9.31158,-6.22102 13.92732,-9.39012 0.16706,-0.18447 0.33444,-0.36865 0.50229,-0.55243 0.94065,-1.02037 1.85935,-2.05999 2.76262,-3.1135 0.055,-0.0648 0.11033,-0.13002 0.16537,-0.19482 0.0715,-0.10943 0.14299,-0.2187 0.21446,-0.32815 0.64779,-0.99098 1.31432,-1.96925 1.95852,-2.96261 0.53756,-0.78902 1.0522,-1.59242 1.572,-2.39313 0.46043,-0.66755 0.93281,-1.32716 1.36789,-2.01176 0.56621,-0.865 1.17063,-1.70374 1.75131,-2.55902 0.8164,-1.15826 1.64637,-2.30667 2.46134,-3.46594 0.6052,-0.86525 1.21285,-1.72892 1.81641,-2.59519 -0.52443,-0.59226 -1.0329,-1.19726 -1.49653,-1.83761 -0.17854,-0.24654 -0.0735,-0.60516 -0.0775,-0.90951 -0.0116,-0.86265 0.15348,-1.70729 0.29715,-2.55282 0.24376,-1.31525 0.56311,-2.60756 0.92967,-3.8933 0.28799,-1.07879 0.62341,-2.14353 0.94308,-3.21324 0.27088,-0.8181 0.58261,-1.62083 0.80409,-2.45515 0.22638,-0.7672 0.40032,-1.55193 0.60151,-2.32595 0.1919,-0.71377 0.41767,-1.41695 0.60875,-2.13114 0.20463,-0.75622 0.3017,-1.53839 0.52917,-2.28926 0.2083,-0.78236 0.45235,-1.55408 0.64129,-2.34043 0.24345,-1.01082 0.52171,-2.01266 0.76068,-3.02462 0.27673,-1.03415 0.59364,-2.058 0.93639,-3.07216 0.0768,-0.20705 0.1515,-0.41474 0.22995,-0.62116 -0.003,0.0112 -0.009,0.0332 -0.0114,0.0429 -0.0151,0.0585 -0.0304,0.11667 -0.0455,0.17518 0.0111,-0.0344 0.11964,-0.43733 0.13073,-0.47852 0.0286,-0.10637 0.0573,-0.21297 0.0858,-0.31936 0.16454,-0.57176 0.33379,-1.13946 0.45063,-1.72445 0.17294,-0.7517 0.32597,-1.50828 0.48729,-2.26239 0.13065,-0.64185 0.29114,-1.27923 0.37414,-1.9296 0.10721,-0.86572 0.16378,-1.74211 0.41135,-2.58434 0.13142,-0.48239 0.29051,-0.95773 0.39069,-1.44797 0.13422,-0.56992 0.2758,-1.1375 0.40153,-1.70946 0.12692,-0.5259 0.22386,-1.05909 0.36843,-1.58078 0.12052,-0.31458 0.095,-0.79948 0.1628,-1.14773 0.0587,-0.57454 0.1343,-1.14698 0.22942,-1.71669 0.10938,-0.61781 0.0705,-1.26067 0.18968,-1.87896 0.0456,-0.13607 0.005,-0.008 0.0254,-0.36432 0.0324,-0.59378 0.0859,-1.18831 0.21288,-1.77043 0.10205,-0.33976 0.20056,-0.68033 0.30594,-1.01906 0.0196,-0.0631 0.0431,-0.22163 0.0734,-0.23203 v -5.3e-4 c 0,-3e-5 0.003,0 0.003,0 v 5.3e-4 c 0,2e-5 0.003,0 0.003,0 0.004,0.001 0.009,0.005 0.0135,0.0129 0.005,0.009 0.008,0.0183 0.008,0.0279 0.15233,-0.44473 0.0214,-0.94843 0.0646,-1.418 -0.003,-0.70913 -1.1e-4,-1.41788 -0.003,-2.127 -0.004,-0.70672 -0.006,-1.41373 -0.0233,-2.12028 -0.0132,-0.46892 -0.0246,-0.93911 -0.0765,-1.4056 -0.0635,-0.53828 -0.20561,-1.06237 -0.2744,-1.5999 0.0103,0.0192 0.018,0.0297 0.0222,0.0336 v 5.3e-4 c 2.3e-4,1.4e-4 0.003,0.001 0.003,0.001 v -0.001 -5.3e-4 c 0.008,-0.0248 -0.0756,-0.27891 -0.0796,-0.29094 -0.0706,-0.2363 -0.15028,-0.46971 -0.22116,-0.7059 -0.0356,-0.1184 -0.0689,-0.23784 -0.10335,-0.35657 -0.21055,-0.77185 -0.39833,-1.54961 -0.61754,-2.31924 -0.31657,-1.12305 -0.71617,-2.21664 -1.07796,-3.32538 -0.50358,-1.55043 -1.04659,-3.08648 -1.6056,-4.6178 -0.48048,-1.549334 -0.86048,-3.128584 -1.07746,-4.738738 -0.14486,-1.104453 -0.29104,-2.391087 -0.0765,-3.537252 -0.15888,0.0389 -0.31977,0.07922 -0.48368,0.120923 v -5.29e-4 c -0.0611,-0.04158 -0.36166,-1.187141 -0.41291,-1.391129 -0.092,-0.252317 -0.20137,-0.498412 -0.31057,-0.744659 -0.60581,-1.306754 -1.27211,-2.584143 -1.91254,-3.87418 -0.94575,-1.792319 -1.92124,-3.568706 -2.92282,-5.330426 -1.08043,-1.815817 -2.1513,-3.637809 -3.24424,-5.446178 -0.83693,-1.366811 -1.67543,-2.732437 -2.53111,-4.087606 -0.96309,-1.491533 -1.76515,-3.073784 -2.52699,-4.67465 -0.56985,-1.339096 -1.26329,-2.617285 -1.8774,-3.935677 -0.44706,-1.265116 -0.96735,-2.451823 -1.57097,-3.647324 -0.66958,-1.355685 -1.46742,-2.637597 -2.30683,-3.892785 -1.07127,-1.41954 -2.11333,-2.85939 -3.12694,-4.320667 -0.0395,-0.03764 -0.0788,-0.07557 -0.11834,-0.113171 -0.93592,-0.925658 -1.82727,-1.897015 -2.79983,-2.784842 -0.76608,-0.687901 -1.55551,-1.348291 -2.35645,-1.995229 -0.708,-0.569618 -1.44298,-1.105117 -2.14405,-1.683617 -0.88536,-0.694347 -1.84206,-1.299319 -2.7342,-1.985926 -1.08447,-0.809461 -2.14362,-1.657125 -3.12953,-2.585371 -0.56278,-0.519252 -1.19032,-0.946046 -1.80092,-1.407665 -0.82558,-0.64507 -1.63828,-1.307486 -2.40192,-2.025716 -0.55559,-0.504846 -1.12472,-0.993997 -1.726,-1.444358 -0.63913,-0.496541 -1.2795,-0.990513 -1.94251,-1.455208 -0.65717,-0.465667 -1.34721,-0.880195 -2.01693,-1.32705 -0.61766,-0.447651 -1.33949,-0.759862 -1.91978,-1.267108 -0.67817,-0.490045 -1.39218,-0.924581 -2.07895,-1.401979 -0.57608,-0.444955 -1.29991,-0.692209 -1.87843,-1.139984 -0.47636,-0.340551 -0.95399,-0.691134 -1.3994,-1.071253 0.0305,0.01521 0.10869,0.05851 0.11834,0.06149 h 0.001 5.3e-4 v -5.29e-4 c -7.9e-4,-7.93e-4 -0.003,-0.0024 -0.007,-0.0047 -0.40422,-0.275291 -0.85991,-0.487466 -1.28467,-0.727607 -0.13984,-0.07906 -0.27872,-0.159846 -0.41807,-0.239777 -0.6936,-0.408391 -1.36629,-0.847223 -2.04018,-1.286743 -0.60957,-0.419945 -1.1945,-0.873402 -1.81074,-1.28416 -0.5871,-0.43631 -1.1555,-0.895625 -1.7322,-1.345654 -0.4345,-0.355659 -0.94773,-0.599995 -1.39991,-0.931209 -0.73108,-0.477568 -1.51547,-0.868892 -2.24121,-1.355473 -0.0967,-0.06424 -0.58473,-0.325121 -0.71055,-0.485242 -0.73615,-0.316285 -1.48663,-0.594305 -2.21227,-0.934827 -1.01716,-0.483645 -2.03797,-0.959467 -3.05821,-1.436604 -1.04103,-0.498082 -2.06369,-1.033061 -3.10627,-1.527039 -0.72672,-0.325095 -1.49989,-0.546787 -2.24586,-0.823722 -0.89962,-0.291463 -1.81319,-0.510188 -2.72696,-0.754994 -0.90679,-0.263072 -1.81006,-0.538321 -2.72128,-0.785997 -0.63041,-0.186238 -1.27629,-0.323384 -1.90945,-0.500745 -0.89233,-0.229182 -1.78255,-0.469624 -2.66288,-0.741557 -0.4476,-0.165991 -0.93991,-0.222124 -1.3963,-0.365352 -0.87518,-0.184626 -1.77888,-0.236969 -2.66547,-0.338482 -1.4017,-0.131087 -2.8019,-0.2857 -4.20956,-0.34003 -1.91547,-0.115915 -3.82799,-0.280947 -5.7304,-0.536402 -1.97346,-0.235878 -3.94801,-0.461894 -5.92522,-0.6640416 -1.42389,-0.1209006 -2.8511,-0.1162661 -4.27933,-0.1043863 z m -27.50788,0.9911534 c 0.0155,-0.0037 -0.0314,0.0055 -0.047,0.0083 -0.014,0.0034 -0.0281,0.0072 -0.0424,0.01085 0.0298,-0.0061 0.0598,-0.01211 0.0894,-0.01912 z M 87.949154,27.549224 c -0.01984,0.01154 -0.03975,0.02315 -0.05943,0.03462 -0.105035,0.06972 -0.227714,0.15127 -0.374137,0.249595 -0.12292,0.08254 0.247721,-0.162224 0.371554,-0.243396 0.02064,-0.0136 0.08337,-0.05325 0.06201,-0.04082 z M 72.223498,39.301478 c -0.008,0.0083 -0.01601,0.01675 -0.02376,0.02479 -0.0096,0.01 -0.01929,0.02005 -0.02894,0.02997 -0.179631,0.304641 -0.358318,0.609578 -0.531752,0.917773 -0.174294,0.309719 0.370565,-0.606258 0.549836,-0.913122 0.0114,-0.01953 0.02312,-0.03934 0.03462,-0.05943 z m -0.75396,4.327382 c -0.05558,0.07396 -0.183385,0.249013 -0.351398,0.477491 0.0028,-0.0035 0.0055,-0.0069 0.0083,-0.01034 0.120118,-0.151403 0.459235,-0.621654 0.34313,-0.467156 z m -1.519285,2.104782 c -0.0032,0.0021 -0.0066,0.0046 -0.0098,0.0067 -0.245118,0.382717 -0.385106,0.601515 0.0098,-0.0067 z m -3.512449,4.63486 c -0.114573,0.197342 -0.22733,0.395512 -0.339514,0.59428 0.08572,-0.142192 0.170765,-0.286628 0.254765,-0.434083 0.02833,-0.05342 0.11511,-0.212487 0.08475,-0.160197 z m -8.425842,5.353677 c -0.124973,0.347027 -0.246464,0.695076 -0.367935,1.043347 0.02466,-0.0604 0.04907,-0.120806 0.07338,-0.181382 0.113091,-0.281819 0.397444,-1.147665 0.294555,-0.861965 z m -2.541963,4.008543 c -0.2393,0.772573 -0.41652,1.360779 -0.549836,1.813325 0.03185,-0.03849 0.06321,-0.07697 0.09457,-0.115756 0.07501,-0.232275 0.149371,-0.500009 0.319876,-1.118793 0.05262,-0.190992 0.194014,-0.768014 0.135393,-0.578776 z M 54.97494,61.17921 c -0.0414,0.147407 -0.08111,0.295399 -0.120407,0.443386 0.0026,-0.0029 0.0052,-0.0059 0.0078,-0.0088 0.0077,-0.0091 0.01511,-0.01823 0.02273,-0.02739 0.07699,-0.30294 0.140751,-0.588301 0.08992,-0.407212 z m 0.238744,0.590664 c -0.0037,0.0027 -0.0072,0.0055 -0.01085,0.0083 -0.17122,0.315738 -0.307221,0.568018 -0.415994,0.771011 0.01871,-0.03017 0.03732,-0.06064 0.05581,-0.09095 0.09304,-0.152466 0.282361,-0.513694 0.371036,-0.68833 z m -0.480073,0.347265 c -0.0035,0.0024 -0.0074,0.0053 -0.01085,0.0078 -0.0098,0.03793 -0.01961,0.07577 -0.02946,0.113688 0.01302,-0.03947 0.02665,-0.08011 0.04031,-0.121438 z m -0.565857,1.717207 c -0.145237,0.315402 -0.369424,0.810051 -0.728638,1.637628 -0.08329,0.191889 0.183636,-0.376338 0.275436,-0.564309 0.250521,-0.547391 0.326332,-0.707657 0.453202,-1.073319 z m -5.492689,11.585858 c -0.11122,0.403625 -0.213606,0.809707 -0.315743,1.215946 0.08378,-0.275458 0.161724,-0.554625 0.234611,-0.838708 0.02697,-0.125802 0.115337,-0.501277 0.08113,-0.377238 z m -3.549137,8.687324 c -0.213021,0.367731 -0.380769,0.659662 -0.51418,0.894003 0.02733,-0.0388 0.05468,-0.07776 0.08165,-0.116789 0.05674,-0.09298 0.112636,-0.185955 0.167434,-0.280086 0.09446,-0.162274 0.35922,-0.659603 0.265099,-0.497128 z m -2.618446,3.72432 c -0.07799,0.241408 -0.154998,0.47598 -0.232026,0.705382 0.03862,-0.105921 0.07787,-0.215059 0.117821,-0.329176 0.0382,-0.125442 0.154517,-0.500986 0.114205,-0.376206 z m -3.368786,7.306014 c -0.226309,0.314859 -0.458184,0.626546 -0.672309,0.949296 -0.144076,0.217162 0.305975,-0.422006 0.458885,-0.633037 0.0724,-0.104667 0.143473,-0.210283 0.213424,-0.316259 z M 280.094,95.488228 v 5.29e-4 5.3e-4 5.29e-4 5.29e-4 5.29e-4 5.29e-4 c 0,0.02204 0.0512,0.135845 0.1845,0.323493 -0.013,-0.02781 -0.0259,-0.05556 -0.0393,-0.0832 -0.0713,-0.157128 -0.12493,-0.23531 -0.14107,-0.243396 z M 40.53241,104.35229 c -0.0034,0.0182 -0.007,0.036 -0.01035,0.0543 0.0093,-0.0156 0.01064,-0.0343 0.01035,-0.0543 z m -1.682586,8.2305 c -0.06587,0.23887 -0.133668,0.47735 -0.192752,0.71779 -0.04952,0.20151 0.108244,-0.40065 0.162264,-0.601 0.01058,-0.0388 0.02074,-0.0778 0.03049,-0.11679 z m 245.503866,8.19227 c -0.0257,0.0451 -0.061,0.0924 -0.0393,0.13539 0.0217,-0.0416 0.0273,-0.0899 0.0393,-0.13539 z M 44.546118,193.69309 c 0.275537,0.17752 0.553,0.35332 0.829924,0.52968 -0.0044,-0.004 -0.009,-0.008 -0.01344,-0.0119 -0.02307,-0.0195 -0.04558,-0.0387 -0.0677,-0.0574 -0.03977,-0.0261 -0.08167,-0.053 -0.126609,-0.0811 -0.205745,-0.12896 -0.82631,-0.51081 -0.622183,-0.3793 z m 179.817962,25.86457 c -0.55458,0.5296 -1.15258,1.15468 -1.75906,1.79782 -0.33406,0.36125 -0.67764,0.71386 -1.00614,1.07952 0.15056,-0.17767 0.29824,-0.34929 0.39274,-0.45268 0.21799,-0.2385 0.40192,-0.40258 0.6134,-0.62684 0.34704,-0.37528 0.66132,-0.78041 1.02732,-1.13688 0.23552,-0.23283 0.49347,-0.4336 0.73174,-0.66094 z m 11.61738,3.10575 c -0.25692,0.14984 -0.51252,0.30186 -0.76739,0.45527 -0.001,0.0123 -0.002,0.0244 -0.003,0.0367 0.2579,-0.15744 0.51562,-0.31446 0.7736,-0.4718 -0.001,-0.007 -0.002,-0.0135 -0.003,-0.0202 z m -13.51184,0.37414 h 0.001 5.3e-4 v 5.3e-4 h -5.3e-4 c -0.009,0.009 -0.0831,0.0577 -0.20929,0.12505 0.13461,-0.0879 0.20056,-0.12462 0.20825,-0.12557 z m -66.91374,13.78572 v 5.3e-4 c 0.15862,0.0442 0.30185,0.0839 0.43356,0.11989 -0.004,-0.002 -0.009,-0.003 -0.0134,-0.005 -0.14007,-0.0384 -0.55949,-0.15403 -0.42013,-0.11524 z" /></clipPath><clipPath
       clipPathUnits="userSpaceOnUse"
       id="clipPath530"><path
         id="path531"
         style="fill:#ff0000;fill-opacity:1;fill-rule:nonzero;stroke:none;stroke-width:6.74416"
         d="m 4018.1989,-0.07936995 -2000.924,0.05297831 c -8.6313,8.80254434 -17.1947,17.64581564 -25.0733,27.01946664 -17.543,21.070995 -36.2363,41.121828 -55.6688,60.570694 -2.5179,2.252638 -5.0124,4.504745 -7.5255,6.751622 v 0.01324 0.01324 0.01324 0.01324 c 0,0.05298 0,0.150326 -0.261,0.285421 -10.3471,15.414438 -27.3969,25.525208 -41.3704,38.000738 -25.1572,18.84863 -52.1103,35.11959 -80.3012,49.36969 -34.3153,17.71661 -71.7817,27.91474 -109.2736,37.06912 -17.9949,3.47955 -35.8758,7.44941 -53.8466,11.0328 -0.4396,0.1 -0.8826,0.17549 -1.2981,0.25032 -0.261,0.12517 -0.4671,0.27284 -0.7006,0.41323 -20.2381,12.10409 -40.8827,24.21367 -61.1593,35.71129 -10.0435,6.98863 -20.7284,13.00968 -31.4828,18.90975 -18.4853,17.90534 -40.3429,31.92241 -61.0631,47.18393 -8.2055,6.36839 -16.8994,12.08608 -25.6345,17.74562 -3.634,2.76321 -7.2968,5.4859 -10.9597,8.21309 -7.8264,6.87149 -15.7648,13.57126 -23.8535,20.20321 -23.3371,19.90316 -49.317,36.2467 -75.4288,52.44806 -4.3635,2.23006 -8.7296,4.45793 -13.0937,6.68699 0,0.0132 0,0.053 0,0.053 -14.2799,10.90923 -30.0549,19.73422 -45.8636,28.37776 -20.5699,16.59135 -43.1905,30.19717 -66.2968,43.29063 -3.011,1.70703 6.1059,-3.26777 9.1637,-4.90221 0.261,-0.12517 0.9862,-0.46025 1.0645,-0.47813 0,0.007 0,0.0265 0,0.053 -18.9605,12.86373 -21.0918,13.95979 -38.0454,25.59654 -1.4018,0.49535 -5.1533,3.04208 -9.3635,6.06635 -1.1683,1.54431 -2.4403,3.34386 -3.7274,5.38047 0,0.0265 0,0.053 0,0.0748 v 0.0132 0.0133 0 c 0,-0.0748 0.9079,-1.00865 1.2198,-1.34406 -12.1748,21.70653 -25.8941,42.55899 -40.1898,63.01504 -12.9556,18.8279 -26.6777,36.95701 -41.1417,54.68587 v 0.0132 0.0132 0.0132 0.0132 0.0132 0.0132 0.0132 0.0132 c -0.9086,1.55432 -2.0247,3.38922 -2.5962,4.39767 -10.9569,19.8711 -22.2388,38.01849 -35.3482,56.52222 0,0.12516 -0.261,0.25496 -0.3091,0.40065 -12.7043,20.33691 -11.3052,18.48797 -21.4373,32.52934 -7.7824,14.24653 -16.2579,27.14754 -25.4731,41.09176 -6.895,8.18707 -13.1898,20.43308 -29.71488,44.40291 -2.10307,2.86659 -11.40134,16.13779 -18.63089,26.41154 -9.58675,17.0661 -20.00936,33.6058 -30.024,50.44316 -14.433,24.35837 -23.49775,38.3659 -39.57158,62.84711 -12.61085,17.54695 -11.58267,12.67301 -29.29733,41.88107 -1.27201,2.0899 -2.62987,4.133 -3.79747,6.273 v 0.013 0.013 0 c 0,-0.1252 0.49451,-0.6404 0.67309,-0.7633 v 0 -0.013 -0.013 0 0 0.013 0 0.013 0.013 0.013 c 0,1.3716 -5.92595,12.3416 -6.17252,13.141 0,0 0,0.02 0,0.026 v 0.013 0 0 c 0,-0.053 0.26099,-0.2907 0.49451,-0.7634 -0.26099,0.4377 -0.54259,1.5768 -0.57007,1.707 0,-0.013 0,-0.053 0,-0.1 1.58383,-3.5556 2.3881,-5.1395 2.62987,-5.3548 v 0 -0.013 0 0 0 0.013 0.013 0.013 c 0,0.9335 -4.47537,13.5227 -6.80166,19.9314 -3.74321,16.9034 -8.11418,33.1449 -13.1191,49.7967 -7.22199,20.419 -11.46865,41.6206 -16.58002,62.5753 -4.06534,20.9258 -12.90687,40.6661 -18.06976,61.2432 -0.28846,2.2476 -0.39149,3.1468 -0.39149,3.2854 v 0.013 0 c 0.261,-0.3304 2.71503,-17.2578 -2.64291,20.5655 -3.01655,14.4665 -4.52688,29.1431 -5.53927,43.8467 -0.96087,14.016 -1.3764,28.0589 -1.63534,42.1008 -0.26099,14.5521 -0.39149,29.1111 -0.39149,43.6655 0,42.7888 -9.69045,84.8582 -20.4867,126.1079 -2.36269,10.7693 -7.20894,20.9599 -9.85941,31.6629 0,0.2252 0,0.3404 0,0.3881 v 0.013 0.013 0 -0.013 c 0.26099,-0.3 1.66143,-4.6796 2.18068,-6.3378 1.1937,1.5343 -4.55573,22.4216 -9.75296,39.9407 -1.86886,12.0165 -6.51044,38.4032 -6.92048,40.4062 -5.77073,28.3686 -9.48578,44.1219 -15.84306,70.2068 -1.47942,5.1164 -2.79058,10.2621 -4.39982,15.3398 -7.38752,23.3424 -5.10107,14.7969 -12.06069,34.0556 0.26099,-0.4132 0.46704,-1.2239 0.62501,-1.3716 v 0 -0.013 0 0 0.013 0 0.013 0.053 c 0,0.9011 -0.93409,3.1246 -0.98628,3.3887 v 0.013 0 c 0,-0.026 0,-0.075 0,-0.1749 0.67309,-1.4116 0.98628,-2.9677 1.48011,-4.4494 0.26099,8.9189 -6.72885,44.6472 -9.44388,58.5013 -5.52141,25.2534 -11.97485,50.2695 -18.61785,75.2638 -1.92105,7.6707 -1.11609,4.035 -1.37571,11.2268 -0.80496,12.2102 -0.93478,24.4507 -1.1944,36.6815 -0.30907,14.5929 -0.30907,29.1885 -0.30907,43.7819 0,21.5609 0,43.1229 0,64.6838 0.002,21.4387 0,42.8701 0,64.3085 0,20.8911 0,41.7879 0,62.6792 0,10.1671 0,20.3309 0,30.4985 2.05018,9.0874 2.68893,19.6013 3.78442,28.3778 0.80497,7.1225 1.1683,11.5684 1.24591,11.8475 v 0 c 0,-0.1252 0,-1.0186 0,-2.7549 4.213,18.2199 5.3552,36.9637 8.62656,55.3193 0.57006,3.1942 -0.80497,-6.445 -1.2205,-9.6617 6.34423,21.916 12.0401,44.6967 17.82868,66.184 11.92814,32.1707 20.18587,65.3821 26.80277,98.8945 2.54401,15.2751 2.70198,15.4653 4.44103,28.6622 0.36402,1.339 0.75345,2.834 1.19439,4.5012 5.08528,20.5802 9.06751,41.4176 12.94328,62.2389 5.3394,28.0909 7.95621,56.534 9.59155,85.0164 1.47942,18.5003 0.85647,37.0884 1.73904,55.6039 0,0.2729 0,0.4258 0,0.4782 v 0.013 0.013 0 -0.013 c 0,-0.4106 0,-5.9031 0,-7.9675 3.31807,18.2848 5.15327,36.8359 6.78861,55.3324 0.93477,13.6744 3.44238,28.5489 5.67457,43.3033 3.20818,16.2404 8.44936,31.9652 13.15825,47.8307 4.60244,18.5699 8.26323,26.7193 14.20772,42.1135 8.4054,20.8144 14.40416,42.3407 18.94203,64.1924 -0.261,-1.8847 9.35047,36.8236 7.37722,27.291 9.52973,24.9263 16.23249,50.7453 22.57672,76.5701 10.2928,10.299 20.29439,20.8598 29.87357,31.7792 23.9751,28.3263 46.8348,57.6053 65.88053,89.2975 9.82576,15.5545 20.94138,30.1047 31.63117,45.1402 7.9301,11.0188 11.3931,16.7015 18.9812,25.157 17.8362,21.651 35.0028,43.8062 50.7621,66.9214 2.6662,7.2149 0,0.5483 12.9563,15.4562 10.812,12.4565 21.1048,25.2664 31.7816,37.8195 2.4918,2.9297 9.3291,10.5618 9.5373,11.1492 v 0.013 0.013 0 0 0 c 0,-0.053 -0.3366,-0.2503 -0.7013,-0.5834 -1.6614,-1.5618 -6.4273,-6.5093 -4.8696,-4.8374 6.0743,6.5354 12.7819,12.5209 18.8204,19.091 12.8547,13.1856 25.559,26.5083 38.5538,39.5655 17.0601,19.6714 42.7021,31.9464 60.3,51.2191 9.7447,8.5617 12.8341,11.3845 22.3219,16.944 21.0657,13.9229 42.0167,28.1485 61.2781,44.3641 15.4873,12.7236 31.9478,24.3018 47.056,37.4573 10.5908,8.7179 21.26,17.3004 31.5116,26.4115 12.0937,8.3292 24.4683,16.2702 36.3682,24.8594 21.5273,16.742 42.4948,34.0049 63.0618,51.84 7.9404,7.6826 19.6042,17.6577 27.3914,27.2521 0.261,0.2251 -15.3492,-13.7962 -6.8401,-5.9886 4.7041,4.3145 9.4885,8.5329 14.2331,12.8056 17.0842,18.0086 33.3833,35.6107 47.6219,55.7199 11.6088,12.9817 22.6647,26.4587 32.5708,40.6906 2.1285,2.2476 4.452,4.729 7.0297,7.4759 8.3326,11.7083 14.9728,21.004 20.1879,28.2613 0.3091,0.3709 0.467,0.5828 0.522,0.6735 v 0 0 0 0 c 0,0.073 0,0.1523 0.261,0.2252 13.9192,13.3472 27.5706,26.9865 38.7281,42.67 8.823,12.1632 17.953,23.9687 25.232,37.108 0.9863,1.7794 3.6965,6.823 7.2165,13.6459 h 2534.8138 c 18.942,-23.9866 40.4075,-45.7421 65.6367,-63.7786 19.223,-14.0459 39.0606,-27.2381 58.8777,-40.484 14.3059,-9.0534 21.3122,-13.8611 36.044,-21.794 7.1595,-3.8555 26.2258,-14.3107 27.4594,-14.2922 0,0.1523 -0.5701,0.5563 -1.5062,1.2013 -3.0392,2.1178 -12.4859,8.007 -9.3217,6.0673 4.7714,-2.929 9.4364,-6.0296 14.1528,-9.0421 19.4276,-11.7499 39.6547,-22.2787 57.9243,-35.71 18.9345,-11.6598 39.5826,-22.7648 50.7731,-30.4347 18.7531,-14.2233 37.2226,-28.7897 56.4215,-42.4634 24.5418,-15.8439 28.5858,-17.2087 50.0512,-33.0978 22.9037,-16.3222 45.9838,-31.404 70.507,-45.1015 5.4438,-4.2131 10.8897,-8.426 16.7023,-12.1448 10.8739,-8.0889 40.1272,-29.9211 48.3197,-32.1287 -5.4493,4.6745 -1.1161,0.8811 8.9192,-6.3893 16.0814,-11.6471 32.5185,-22.9032 49.7943,-32.8528 8.1719,-3.9709 14.6693,-10.7838 22.6983,-15.5598 -0.8826,0.7833 -3.6182,3.0768 -2.6841,2.3402 9.2982,-7.3213 18.1638,-15.2032 27.7162,-22.2081 -10.8793,11.5527 14.6906,-14.556 16.3774,-16.5558 5.4438,-5.8012 10.5758,-11.8808 15.1473,-18.3536 14.137,-19.3187 27.9938,-38.9463 44.4028,-56.535 -1.4279,2.0173 -5.8127,8.0228 -4.3071,6.0531 4.3668,-5.7112 22.4908,-29.0841 29.3907,-37.4056 7.902,-12.7896 16.0038,-25.4521 24.5081,-37.8971 1.6614,-2.3552 3.2288,-4.5317 4.6539,-6.5446 7.2818,-13.51 16.4269,-29.868 17.2394,-30.3823 0,0.2801 -0.5426,1.5693 -1.7651,4.1 15.7414,-23.0644 32.298,-45.3903 51.7545,-65.7185 0.5701,-0.651 1.7652,-2.4679 2.1285,-2.7161 v -0.026 0.013 0.013 0.2251 c 0,0.1504 0,0.3358 -0.261,0.5305 3.5275,-5.6316 6.8374,-11.4006 10.6637,-16.8531 9.4961,-15.7061 22.0183,-35.7311 35.6182,-51.8013 12.1383,-23.9757 25.4841,-47.2622 39.6265,-70.1937 13.0573,-22.2491 25.5638,-44.9002 41.2351,-65.589 7.7776,-8.9202 13.7221,-15.7429 18.19,-20.863 3.3874,-4.4615 3.6182,-4.8832 8.9603,-12.2228 3.1313,-4.1706 6.2302,-8.359 9.3924,-12.5073 1.7912,-2.3427 2.6505,-3.2973 2.9231,-3.4017 0.4671,-0.8084 1.0378,-1.6769 1.6093,-2.6386 5.8016,-9.9658 8.7062,-15.3303 15.012,-24.7945 3.691,-5.5408 7.5303,-10.9811 11.3491,-16.4395 0.261,-0.288 0.7006,-0.9335 0.8826,-1.1262 -0.5701,1.3315 -3.11,4.8493 -0.625,1.3065 0.261,-0.4331 0.467,-0.881 0.7005,-1.3316 0,0 0,-0.02 0,-0.026 v 0 c 0.3915,-0.7434 0.7789,-1.4718 1.1422,-2.0825 4.4912,-13.1701 9.6259,-27.1799 15.4406,-40.1995 0.4945,-2.2852 0.9863,-4.5698 1.4794,-6.855 1.8696,-7.7761 3.8943,-15.5108 5.9445,-23.2428 0.4121,-1.5268 0.9609,-3.02 1.4279,-4.5267 5.0001,-19.1974 8.4212,-28.9031 10.6795,-41.2731 4.2419,-18.29 8.5325,-36.7007 14.2332,-54.6468 2.6092,-13.345 6.0303,-26.7344 9.8724,-39.1257 -0.2884,1.837 -1.2459,7.3345 -0.8826,5.5098 4.8594,-24.0056 9.6589,-48.0231 17.2648,-71.4093 3.8009,-13.1556 10.8643,-38.6026 14.4722,-45.8776 0.4396,-7.046 1.0124,-14.0746 1.7651,-21.0956 3.9562,-34.7962 9.7763,-69.5762 22.3611,-102.5808 0.9348,-2.0624 1.8434,-4.0342 2.7102,-5.9239 0.9087,-4.4066 1.8689,-8.8128 2.8971,-13.2317 0.9601,-11.0473 2.0508,-22.8288 2.5179,-26.489 3.2425,-25.7545 8.086,-50.4938 14.3265,-75.4838 v -29.8909 -71.4999 c 0,-30.2422 0,-60.4784 -0.261,-90.7203 -0.261,-20.1804 -0.261,-40.365 -1.1422,-60.5317 0.261,-5.3139 -1.1676,-10.9755 -2.5694,-18.9227 -3.0839,-16.6081 -7.7048,-45.569 -8.2756,-53.2112 -4.1484,-23.1016 -10.4927,-45.8058 -13.966,-69.0296 -3.2088,-20.5483 -9.8072,-40.5902 -14.3272,-60.881 -5.9081,-27.1481 -10.6039,-54.4051 -13.4543,-82.0025 -1.9464,-15.5488 -6.9857,-30.7635 -9.3216,-46.2915 0.805,1.4166 1.2198,2.1374 1.2981,2.2125 0,-0.4933 -2.5179,-6.1486 -5.4074,-16.0772 -6.0715,-20.8052 -11.2324,-41.8784 -14.5264,-63.2736 -3.4135,-20.7226 -6.7261,-41.5163 -7.5675,-62.511 -2.2321,-9.3453 -5.7707,-23.4555 -7.042,-24.4585 -4.5303,-18.3838 -7.8552,-36.7595 -13.9921,-54.6986 -8.4054,-25.9001 -16.6864,-51.8308 -21.0059,-78.6913 -3.6058,-15.288 -7.8085,-30.3934 -11.2145,-45.7352 -0.3091,-1.3992 -1.272,-4.9928 -1.1422,-5.4581 v -0.013 0 0.013 c 0,0.053 0,0.1252 0.261,0.2503 0,0.2 0.261,0.4457 0.364,0.7109 -0.3366,-0.8811 -0.6456,-1.7546 -0.9863,-2.6386 -8.3017,-23.6991 -16.2551,-47.6069 -21.9325,-72.0045 8.3979,25.0739 -1.921,-5.585 -3.0316,-9.6618 -2.1546,-7.7991 -7.4535,-28.4674 -7.5544,-30.4339 -6.3882,-18.9525 -16.0869,-38.0963 -18.9263,-58.0227 4.5736,12.055 -4.2734,-12.7083 -7.165,-20.9016 -12.8368,-20.9674 -15.9907,-33.3756 -26.1846,-47.0803 -14.6693,-27.8757 -27.7526,-56.2432 -40.5922,-84.9258 -9.0435,-18.4865 -17.7737,-37.1865 -30.0212,-53.987 -16.6632,-25.34007 -33.0948,-50.84926 -48.0395,-77.17842 -7.2577,-12.49778 -17.1302,-30.19339 -19.155,-32.91727 -10.7001,-15.42821 -22.1866,-30.3528 -32.7445,-45.87736 -14.4199,-20.98842 -32.6765,-41.97736 -42.3649,-63.67489 0.8572,1.34909 3.4348,5.42484 2.6038,4.04827 -7.0709,-11.83304 -11.9879,-20.42758 -16.2318,-26.6961 -14.137,-20.11613 -28.1449,-40.30563 -40.1376,-61.7088 -2.6814,-4.73626 -4.6677,-8.17628 -6.0612,-10.59308 -12.4213,-16.32798 -24.3604,-32.8502 -34.6917,-50.5468 -6.2927,-9.42398 -12.1459,-18.79459 -17.8287,-28.42936 -11.3539,-14.92657 -22.7477,-29.91903 -32.3681,-45.90312 0.5426,0.68832 1.8688,2.41032 2.1546,2.71614 v -0.0748 c -2.518,-3.8945 -5.3367,-7.61808 -8.2234,-11.27861 -3.6732,-2.27264 -7.2509,-4.69521 -10.7187,-7.29472 0.4396,0.22516 0.6456,0.31787 0.7006,0.32317 v -0.0133 c -0.4945,-0.42316 -7.891,-4.71248 -10.6376,-6.38938 -25.7354,-15.71959 -15.6975,-9.19975 -43.0634,-29.36044 -8.0545,-5.19552 -19.2999,-12.38964 -19.9462,-12.36514 -15.1809,-10.17859 -29.3337,-20.24659 -44.764,-30.09777 -24.2711,-17.37093 -48.0312,-35.45547 -70.6677,-54.78898 -19.1028,-16.07997 -39.4081,-30.79681 -57.9916,-47.45545 -11.5882,-10.00091 -23.0905,-20.1044 -36.2879,-28.15777 -18.2387,-12.62294 -36.0076,-25.89864 -55.1605,-37.25037 -19.2511,-11.89581 -38.4912,-23.85322 -58.3529,-34.79271 -20.4682,-11.21829 -40.6774,-22.80855 -60.9017,-34.41782 -27.1998,-14.81876 -54.2203,-30.07598 -78.8238,-48.72315 -2.8792,1.1138 -7.902,-6.45528 -11.5367,-8.88559 -14.2826,-9.5559 -13.3553,-8.91638 -21.5327,-15.17193 3.9149,2.31019 -31.4155,-22.46565 -31.75,-23.75991 v -0.0132 -0.0132 -0.0132 -0.0132 c 0.2885,0.053 1.4279,0.63309 3.5797,1.92722 1.6093,0.93613 6.3882,3.8102 4.8305,2.80653 -21.2807,-13.66092 -41.9858,-27.52528 -61.8282,-43.09666 -3.2323,-2.53621 -6.3601,-5.18804 -9.5373,-7.78629 -4.1093,-3.465046 -7.0744,-5.992509 -9.1094,-7.773308 -3.1615,-1.982316 -5.5681,-3.436769 -12.2345,-7.540734 -21.418,-13.820583 -41.7543,-29.003504 -62.7939,-43.238841 v 0.01325 C 4053.7786,28.234025 4035.0495,14.146895 4017.9894,-0.08665447 Z M 1633.6967,231.86906 c -0.6731,0.12516 -1.1937,0.34767 -3.1642,1.12625 1.0124,-0.33773 2.0763,-0.71832 3.1642,-1.12625 z m -3.2192,1.13877 c -1.3496,0.36555 -4.8359,1.21142 -5.2041,1.35909 v 0 0.0132 c 0,4.6e-4 0.261,-0.007 0.3091,-0.053 1.3242,-0.22516 3.0214,-0.71084 4.8957,-1.33154 z m -442.3206,304.15965 c -0.5151,0.37813 -1.0377,0.76839 -1.557,1.15135 0.5975,-0.27019 1.09,-0.67329 1.557,-1.15135 z m 3674.5841,43.83399 c 0.261,0.0748 0.3365,0.17549 0.4945,0.27284 3.7219,1.83464 15.0168,7.1028 11.2681,5.31571 -3.917,-1.86722 -7.8525,-3.72338 -11.777,-5.58749 z M 1042.7981,756.55674 c -0.261,0.29006 -0.4121,0.59336 -0.6525,0.89355 -2.544,3.94708 -1.2459,2.01231 0.6525,-0.89355 z m 4207.719,525.42436 c 0.3915,1.364 0.7528,2.7289 1.1944,4.0742 v 0.013 0.013 0.013 0.013 c 0,0 0,0.026 0,0.053 0,0.013 0,0.026 0,0.053 0,-0.3431 -0.5701,-2.1751 -0.7527,-2.8974 -0.261,-0.4331 -0.3366,-0.871 -0.4946,-1.3065 z m 179.3267,1027.2695 c -0.261,0.931 -0.7013,2.5126 -0.987,3.5311 v 0.2251 c 0.3365,-1.2489 0.6731,-2.5004 1.0124,-3.7508 z m -50.5602,261.9682 c -0.261,1.0839 -0.3091,2.1751 -0.4396,3.2596 0,-0.543 0.3366,-1.9773 0.4121,-2.135 v -0.013 c 0,-0.3702 0,-0.7408 0,-1.1113 z m -74.6918,280.3092 c 0,0.3682 -0.261,0.7434 -0.261,1.1113 0,-0.3682 0.261,-0.7434 0.309,-1.1113 z m -0.261,1.1113 v 0 c 0,0.1 0,0.1755 0,0.2576 0,-0.1 0,-0.1755 0,-0.2576 z m 0,0.2576 c -0.5151,1.7595 -1.0639,3.5116 -1.5832,5.2772 0,-0.2603 0.261,-0.4855 0.3091,-0.6331 v -0.013 -0.013 -0.013 0 -0.013 0 0 c 0,0 0,-0.013 0,-0.013 v 0.013 0.013 0.013 c 0,0.2655 -0.261,1.2415 -0.261,1.6419 0.4396,-2.0874 0.908,-4.1736 1.3496,-6.26 z m -4463.32001,54.7112 c 0.28847,1.389 0.5426,2.7742 0.83038,4.1648 -0.261,-1.0812 -0.39149,-2.0499 -0.51512,-2.7422 -0.261,-0.5755 -0.261,-1.0437 -0.30908,-1.4217 z m 4147.98291,430.3194 c -0.9087,1.2489 -1.895,2.6153 -2.9651,4.1 0.3366,-0.4556 0.987,-1.3416 1.2981,-1.732 -0.8303,1.5092 -3.3771,6.0037 -2.4918,4.527 1.3757,-2.3002 2.7748,-4.6003 4.1711,-6.894 z m -269.9282,235.2207 c 0,0.1 -0.261,0.1755 -0.3365,0.2576 0.261,-0.1 0.2884,-0.1755 0.4121,-0.2576 z m -0.3365,0.2702 c -0.7013,0.4258 -1.3764,0.856 -2.0509,1.2814 0,-0.02 0.261,-0.053 0.261,-0.075 v 0.013 c -1.1683,1.0062 -4.8415,3.8002 -3.5955,2.8844 1.8173,-1.3466 3.6216,-2.7182 5.4177,-4.1003 z m -4424.71479,22.79 c -0.49451,4.0566 -0.96018,8.1096 -1.40181,12.1711 1.58382,0.02 3.1594,0.026 4.73499,0.053 -1.1161,-4.075 -2.23219,-8.1418 -3.32494,-12.2227 z M 1576.304,3809.0396 c 3.2418,1.6848 5.9232,3.0907 7.5249,3.9456 0,0.073 0.261,0.099 0.261,0.1258 -0.261,-0.2251 -2.8346,-1.8191 -3.8882,-2.3032 -1.2981,-0.596 -2.5962,-1.1735 -3.8785,-1.7589 z m 7.7797,4.0615 z" /></clipPath><clipPath
       clipPathUnits="userSpaceOnUse"
       id="clipPath532"><path
         id="path533"
         style="fill:#ff0000;fill-opacity:1;fill-rule:nonzero;stroke:none;stroke-width:0.264583"
         d="m 1708.9035,120.03453 -77.0806,0.002 c -0.3325,0.35169 -0.6624,0.70501 -0.9659,1.07952 -0.6758,0.84186 -1.3959,1.64296 -2.1445,2.42001 -0.097,0.09 -0.1931,0.17998 -0.2899,0.26975 v 5.3e-4 5.2e-4 5.3e-4 5.3e-4 c 0,0.002 0,0.006 -0.01,0.0114 -0.3985,0.61586 -1.0553,1.01982 -1.5936,1.51826 -0.9692,0.75307 -2.0075,1.40315 -3.0934,1.97249 -1.322,0.70784 -2.7653,1.11529 -4.2095,1.48104 -0.6932,0.13902 -1.3821,0.29763 -2.0743,0.4408 -0.017,0.004 -0.034,0.007 -0.05,0.01 -0.01,0.005 -0.018,0.0109 -0.027,0.0165 -0.7797,0.4836 -1.5749,0.96742 -2.3561,1.42679 -0.3869,0.27922 -0.7985,0.51978 -1.2127,0.75551 -0.7121,0.71538 -1.5542,1.27541 -2.3524,1.88516 -0.316,0.25444 -0.651,0.48288 -0.9875,0.709 -0.1399,0.1104 -0.281,0.21918 -0.4222,0.32814 -0.3014,0.27454 -0.6072,0.54222 -0.9188,0.80719 -0.8991,0.7952 -1.8999,1.44818 -2.9058,2.09548 -0.168,0.0891 -0.3362,0.17811 -0.5044,0.26717 0,5.2e-4 0,0.002 0,0.002 -0.5501,0.43586 -1.1577,0.78845 -1.7667,1.13379 -0.7924,0.66288 -1.6638,1.20648 -2.554,1.72961 -0.116,0.0682 0.2353,-0.13056 0.353,-0.19586 0.01,-0.005 0.038,-0.0184 0.041,-0.0191 0,2.6e-4 0,0.001 0,0.002 -0.7304,0.51395 -0.8125,0.55774 -1.4656,1.02267 -0.054,0.0198 -0.1986,0.12154 -0.3608,0.24237 -0.045,0.0617 -0.094,0.1336 -0.1435,0.21497 0,0.001 0,0.002 0,0.003 v 5.3e-4 5.2e-4 0 c 0,-0.003 0.035,-0.0403 0.047,-0.0537 -0.469,0.86726 -0.9975,1.70038 -1.5482,2.51767 -0.499,0.75224 -1.0277,1.47656 -1.5848,2.18489 v 5.3e-4 5.3e-4 5.3e-4 5.3e-4 5.3e-4 5.3e-4 5.3e-4 5.3e-4 c -0.035,0.0621 -0.078,0.13541 -0.1001,0.1757 -0.422,0.79392 -0.8566,1.51897 -1.3617,2.25826 0,0.005 -0.01,0.0102 -0.012,0.016 -0.4894,0.81253 -0.4355,0.73866 -0.8258,1.29966 -0.2998,0.5692 -0.6263,1.08464 -0.9813,1.64176 -0.2656,0.3271 -0.5081,0.81637 -1.1447,1.77405 -0.081,0.11453 -0.4392,0.64476 -0.7177,1.05523 -0.3693,0.68185 -0.7708,1.34267 -1.1566,2.01538 -0.556,0.9732 -0.9052,1.53285 -1.5244,2.51096 -0.4858,0.70106 -0.4462,0.50633 -1.1286,1.67329 -0.049,0.0835 -0.1013,0.16513 -0.1463,0.25063 v 5.3e-4 5.3e-4 0 c 0,-0.005 0.019,-0.0256 0.026,-0.0305 v 0 -5.3e-4 -5.3e-4 0 0 5.3e-4 0 5.3e-4 5.3e-4 5.3e-4 c 0,0.0548 -0.2283,0.49309 -0.2378,0.52503 0,0 0,7.9e-4 0,0.001 v 5.3e-4 0 0 c 0,-0.002 0.01,-0.0116 0.019,-0.0305 -0.01,0.0175 -0.021,0.063 -0.022,0.0682 0,-5.3e-4 0,-0.002 0,-0.004 0.061,-0.14206 0.092,-0.20534 0.1013,-0.21394 v 0 -5.3e-4 0 0 0 5.3e-4 5.3e-4 5.3e-4 c 0,0.0373 -0.1724,0.54028 -0.262,0.79633 -0.1442,0.67535 -0.3126,1.32425 -0.5054,1.98955 -0.2782,0.81581 -0.4418,1.66289 -0.6387,2.5001 -0.1566,0.83606 -0.4972,1.62475 -0.6961,2.44688 -0.011,0.0898 -0.015,0.12572 -0.015,0.13126 v 5.3e-4 0 c 0.01,-0.0132 0.1046,-0.68951 -0.1018,0.82166 -0.1162,0.57799 -0.1744,1.16436 -0.2134,1.75183 -0.037,0.55998 -0.053,1.12105 -0.063,1.68207 -0.01,0.58141 -0.015,1.16309 -0.015,1.74458 0,1.70957 -0.3733,3.39039 -0.7892,5.03845 -0.091,0.43028 -0.2777,0.83742 -0.3798,1.26505 0,0.009 0,0.0136 0,0.0155 v 5.3e-4 5.3e-4 0 -5.3e-4 c 0.01,-0.012 0.064,-0.18697 0.084,-0.25322 0.046,0.0613 -0.1755,0.89582 -0.3757,1.59577 -0.072,0.4801 -0.2508,1.53434 -0.2666,1.61437 -0.2223,1.13342 -0.3654,1.76282 -0.6103,2.805 -0.057,0.20442 -0.1075,0.41001 -0.1695,0.61288 -0.2846,0.93261 -0.1965,0.59119 -0.4646,1.36064 0.01,-0.0165 0.018,-0.0489 0.024,-0.0548 v 0 -5.3e-4 0 0 5.3e-4 0 5.3e-4 0.002 c 0,0.036 -0.036,0.12483 -0.038,0.13539 v 5.3e-4 0 c 0,-10e-4 0,-0.003 0,-0.007 0.026,-0.0564 0.038,-0.11857 0.057,-0.17777 0.01,0.35634 -0.2592,1.78381 -0.3638,2.33733 -0.2127,1.00896 -0.4613,2.00844 -0.7172,3.00705 -0.074,0.30647 -0.043,0.16121 -0.053,0.44855 -0.031,0.48784 -0.036,0.97689 -0.046,1.46555 -0.012,0.58304 -0.012,1.16618 -0.012,1.74924 0,0.86143 0,1.72291 0,2.58434 10e-5,0.85655 0,1.71281 0,2.56935 0,0.83467 0,1.66957 0,2.50425 0,0.40621 0,0.81229 0,1.21852 0.079,0.36307 0.1036,0.78314 0.1458,1.13379 0.031,0.28457 0.045,0.4622 0.048,0.47335 v 0 c 0,-0.005 0,-0.0407 0,-0.11007 0.1623,0.72795 0.2063,1.47683 0.3323,2.2102 0.022,0.12762 -0.031,-0.2575 -0.047,-0.38602 0.2444,0.87562 0.4638,1.78579 0.6868,2.64428 0.4595,1.28533 0.7776,2.61224 1.0325,3.95118 0.098,0.61029 0.1041,0.61789 0.1711,1.14515 0.014,0.0535 0.029,0.11323 0.046,0.17984 0.1959,0.82225 0.3493,1.65478 0.4986,2.48666 0.2057,1.12233 0.3065,2.25873 0.3695,3.3967 0.057,0.73915 0.033,1.48181 0.067,2.22157 0,0.0109 0,0.017 0,0.0191 v 5.3e-4 5.3e-4 0 -5.3e-4 c 0,-0.0164 0,-0.23585 0,-0.31833 0.1278,0.73054 0.1985,1.47172 0.2615,2.21072 0.036,0.54634 0.1326,1.14063 0.2186,1.73012 0.1236,0.64886 0.3255,1.27712 0.5069,1.911 0.1773,0.74193 0.3183,1.06753 0.5473,1.68258 0.3238,0.83161 0.5549,1.69166 0.7297,2.56471 -0.01,-0.0753 0.3602,1.47123 0.2842,1.09037 0.3671,0.99589 0.6253,2.02745 0.8697,3.05924 0.3965,0.41148 0.7818,0.83342 1.1508,1.26969 0.9236,1.13173 1.8042,2.30153 2.5379,3.56774 0.3785,0.62146 0.8067,1.20279 1.2185,1.80351 0.3055,0.44024 0.4389,0.66728 0.7312,1.00511 0.6871,0.86503 1.3484,1.75021 1.9555,2.67374 0.1027,0.28826 0,0.0219 0.4991,0.61753 0.4165,0.49768 0.813,1.00948 1.2243,1.51102 0.096,0.11705 0.3594,0.42198 0.3674,0.44545 v 5.3e-4 5.3e-4 0 0 0 c 0,-0.002 -0.013,-0.01 -0.027,-0.0233 -0.064,-0.0624 -0.2476,-0.26007 -0.1876,-0.19327 0.234,0.26111 0.4924,0.50025 0.725,0.76275 0.4952,0.52681 0.9846,1.0591 1.4852,1.58078 0.6572,0.78594 1.645,1.27637 2.3229,2.04638 0.3754,0.34207 0.4944,0.45485 0.8599,0.67697 0.8115,0.55627 1.6186,1.12463 2.3606,1.7725 0.5966,0.50835 1.2307,0.97094 1.8127,1.49655 0.408,0.34831 0.819,0.69121 1.2139,1.05523 0.4659,0.33278 0.9426,0.65005 1.401,0.99322 0.8293,0.6689 1.637,1.35861 2.4293,2.07119 0.3059,0.30694 0.7552,0.70548 1.0552,1.08881 0.01,0.009 -0.5913,-0.55121 -0.2635,-0.23926 0.1812,0.17237 0.3655,0.34091 0.5483,0.51162 0.6581,0.71951 1.286,1.42277 1.8345,2.2262 0.4472,0.51867 0.8731,1.05712 1.2547,1.62574 0.082,0.0898 0.1715,0.18894 0.2708,0.29869 0.321,0.46778 0.5768,0.83917 0.7777,1.12913 0.012,0.0148 0.018,0.0233 0.02,0.0269 v 0 0 0 0 c 0,0.003 0,0.006 0.01,0.009 0.5362,0.53326 1.0621,1.0782 1.4919,1.70481 0.3399,0.48596 0.6916,0.95763 0.972,1.48259 0.038,0.0711 0.1424,0.2726 0.278,0.5452 h 97.6474 c 0.7297,-0.95834 1.5566,-1.82755 2.5285,-2.54817 0.7405,-0.56118 1.5047,-1.08826 2.2681,-1.61748 0.5511,-0.36171 0.821,-0.5538 1.3885,-0.87074 0.2758,-0.15404 1.0103,-0.57177 1.0579,-0.57103 0,0.006 -0.022,0.0222 -0.058,0.048 -0.1171,0.0846 -0.481,0.31991 -0.3591,0.24241 0.1838,-0.11702 0.3635,-0.2409 0.5452,-0.36126 0.7484,-0.46945 1.5276,-0.89011 2.2314,-1.42674 0.7294,-0.46585 1.5248,-0.90953 1.9559,-1.21597 0.7224,-0.56827 1.4339,-1.15025 2.1735,-1.69656 0.9454,-0.63302 1.1012,-0.68755 1.9281,-1.32237 0.8823,-0.65213 1.7714,-1.2547 2.7161,-1.80196 0.2097,-0.16833 0.4195,-0.33665 0.6434,-0.48523 0.4189,-0.32318 1.5459,-1.19545 1.8614,-1.28365 -0.2099,0.18676 -0.043,0.0352 0.3436,-0.25528 0.6195,-0.46534 1.2527,-0.91506 1.9182,-1.31258 0.3148,-0.15865 0.5651,-0.43085 0.8744,-0.62167 -0.034,0.0313 -0.1394,0.12293 -0.1034,0.0935 0.3582,-0.29251 0.6997,-0.60742 1.0677,-0.88729 -0.4191,0.46157 0.5659,-0.58156 0.6309,-0.66146 0.2097,-0.23178 0.4074,-0.47468 0.5835,-0.73329 0.5446,-0.77185 1.0784,-1.55604 1.7105,-2.25877 -0.055,0.0806 -0.2239,0.32054 -0.1659,0.24184 0.1682,-0.22818 0.8664,-1.16201 1.1322,-1.49448 0.3044,-0.51099 0.6165,-1.0169 0.9441,-1.51412 0.064,-0.0941 0.1244,-0.18106 0.1793,-0.26148 0.2805,-0.53977 0.6328,-1.19333 0.6641,-1.21388 0,0.0112 -0.021,0.0627 -0.068,0.16381 0.6064,-0.9215 1.2442,-1.8135 1.9937,-2.62568 0.022,-0.026 0.068,-0.0986 0.082,-0.10852 v -10e-4 5.3e-4 5.3e-4 0.009 c 0,0.006 0,0.0134 -0.01,0.0212 0.1359,-0.225 0.2634,-0.45549 0.4108,-0.67334 0.3658,-0.62751 0.8482,-1.42758 1.3721,-2.06964 0.4676,-0.95791 0.9817,-1.88829 1.5265,-2.80448 0.503,-0.88893 0.9848,-1.79392 1.5885,-2.62051 0.2996,-0.35639 0.5286,-0.62898 0.7007,-0.83355 0.1305,-0.17825 0.1394,-0.1951 0.3452,-0.48834 0.1206,-0.16663 0.24,-0.33397 0.3618,-0.49971 0.069,-0.0936 0.1021,-0.13174 0.1126,-0.13591 0.018,-0.0323 0.04,-0.067 0.062,-0.10542 0.2235,-0.39817 0.3354,-0.6125 0.5783,-0.99063 0.1422,-0.22137 0.2901,-0.43873 0.4372,-0.65681 0.01,-0.0115 0.027,-0.0373 0.034,-0.045 -0.022,0.0532 -0.1198,0.19375 -0.024,0.0522 0.01,-0.0173 0.018,-0.0352 0.027,-0.0532 0,0 0,-8e-4 0,-10e-4 v 0 c 0.015,-0.0297 0.03,-0.0588 0.044,-0.0832 0.173,-0.52619 0.3708,-1.08593 0.5948,-1.60611 0.019,-0.0913 0.038,-0.18258 0.057,-0.27388 0.072,-0.31068 0.15,-0.61971 0.229,-0.92863 0.016,-0.061 0.037,-0.12066 0.055,-0.18086 0.1926,-0.767 0.3244,-1.15478 0.4114,-1.649 0.1634,-0.73075 0.3287,-1.46632 0.5483,-2.18333 0.1005,-0.53318 0.2323,-1.06813 0.3803,-1.56321 -0.011,0.0734 -0.048,0.29304 -0.034,0.22014 0.1872,-0.95911 0.3721,-1.91869 0.6651,-2.85305 0.1464,-0.52561 0.4185,-1.54231 0.5575,-1.83297 0.017,-0.28151 0.039,-0.56233 0.068,-0.84284 0.1524,-1.39023 0.3766,-2.77981 0.8614,-4.09846 0.036,-0.0824 0.071,-0.16118 0.1044,-0.23668 0.035,-0.17606 0.072,-0.3521 0.1116,-0.52865 0.037,-0.44138 0.079,-0.91209 0.097,-1.05833 0.1249,-1.02898 0.3115,-2.0174 0.5519,-3.01584 v -1.19424 -2.85667 c 0,-1.20828 0,-2.41632 -0.01,-3.62459 -0.01,-0.80628 -0.01,-1.61272 -0.044,-2.41845 0.01,-0.21231 -0.045,-0.43851 -0.099,-0.75603 -0.1188,-0.66355 -0.2968,-1.82064 -0.3188,-2.12597 -0.1598,-0.92299 -0.4042,-1.8301 -0.538,-2.75797 -0.1237,-0.82098 -0.3778,-1.62172 -0.552,-2.43241 -0.2276,-1.08466 -0.4085,-2.17367 -0.5183,-3.27628 -0.075,-0.62123 -0.2691,-1.22911 -0.359,-1.84951 0.031,0.0566 0.047,0.0854 0.05,0.0884 0,-0.0197 -0.097,-0.24566 -0.2083,-0.64234 -0.2339,-0.83124 -0.4327,-1.67319 -0.5596,-2.528 -0.1315,-0.82794 -0.2591,-1.65872 -0.2916,-2.49753 -0.086,-0.37338 -0.2223,-0.93713 -0.2712,-0.9772 -0.1746,-0.7345 -0.3026,-1.46867 -0.539,-2.1854 -0.3238,-1.0348 -0.6428,-2.07082 -0.8092,-3.14399 -0.139,-0.61081 -0.3008,-1.21432 -0.4321,-1.82728 -0.012,-0.0559 -0.049,-0.19948 -0.044,-0.21807 v -5.3e-4 0 5.3e-4 c 0,0.002 0,0.005 0.01,0.01 0,0.008 0.01,0.0178 0.014,0.0284 -0.013,-0.0352 -0.025,-0.0701 -0.038,-0.10542 -0.3198,-0.94686 -0.6262,-1.90206 -0.8449,-2.87683 0.3235,1.00179 -0.074,-0.22314 -0.1168,-0.38602 -0.083,-0.3116 -0.2871,-1.13737 -0.291,-1.21594 -0.2461,-0.75722 -0.6197,-1.52208 -0.7291,-2.31821 0.1762,0.48164 -0.1646,-0.50774 -0.276,-0.83509 -0.4945,-0.83772 -0.616,-1.33347 -1.0087,-1.88102 -0.5651,-1.11373 -1.0691,-2.24711 -1.5637,-3.39308 -0.3484,-0.7386 -0.6847,-1.48573 -1.1565,-2.15697 -0.6419,-1.01242 -1.2749,-2.0316 -1.8506,-3.08354 -0.2796,-0.49933 -0.6599,-1.20633 -0.7379,-1.31516 -0.4122,-0.61641 -0.8547,-1.2127 -1.2614,-1.83296 -0.5555,-0.83856 -1.2588,-1.67714 -1.632,-2.54403 0.033,0.0539 0.1323,0.21674 0.1003,0.16174 -0.2724,-0.47277 -0.4618,-0.81615 -0.6253,-1.0666 -0.5446,-0.80371 -1.0842,-1.61035 -1.5462,-2.46548 -0.1033,-0.18923 -0.1798,-0.32667 -0.2335,-0.42323 -0.4785,-0.65236 -0.9384,-1.31248 -1.3364,-2.01952 -0.2424,-0.37652 -0.4679,-0.75091 -0.6868,-1.13585 -0.4374,-0.59637 -0.8763,-1.19537 -1.2469,-1.83399 0.021,0.0275 0.072,0.0963 0.083,0.10852 v -0.003 c -0.097,-0.1556 -0.2056,-0.30437 -0.3168,-0.45062 -0.1415,-0.0908 -0.2793,-0.18759 -0.4129,-0.29145 0.017,0.009 0.025,0.0127 0.027,0.0129 v -5.2e-4 c -0.019,-0.0169 -0.304,-0.18829 -0.4098,-0.25528 -0.9914,-0.62805 -0.6047,-0.36756 -1.6589,-1.17305 -0.3103,-0.20758 -0.7435,-0.49501 -0.7684,-0.49403 -0.5848,-0.40667 -1.13,-0.80893 -1.7244,-1.20251 -0.935,-0.69403 -1.8503,-1.41657 -2.7223,-2.18901 -0.7359,-0.64245 -1.5181,-1.23044 -2.234,-1.89601 -0.4464,-0.39957 -0.8895,-0.80324 -1.3979,-1.125 -0.7026,-0.50433 -1.3871,-1.03474 -2.1249,-1.48828 -0.7416,-0.47528 -1.4828,-0.95302 -2.2479,-1.39009 -0.7885,-0.44821 -1.567,-0.91128 -2.3461,-1.37511 -1.0478,-0.59207 -2.0887,-1.20164 -3.0365,-1.94666 -0.1109,0.0445 -0.3044,-0.25791 -0.4444,-0.35501 -0.5502,-0.38179 -0.5145,-0.35624 -0.8295,-0.60617 0.1508,0.0923 -1.2102,-0.89758 -1.2231,-0.94929 v -5.3e-4 -5.3e-4 -5.3e-4 -5.3e-4 c 0.011,0.002 0.055,0.0253 0.1379,0.077 0.062,0.0374 0.2461,0.15223 0.1861,0.11213 -0.8198,-0.5458 -1.6174,-1.09973 -2.3818,-1.72186 -0.1245,-0.10133 -0.245,-0.20728 -0.3674,-0.31109 -0.1583,-0.13844 -0.2725,-0.23942 -0.3509,-0.31057 -0.1218,-0.0792 -0.2145,-0.13731 -0.4713,-0.30128 -0.8251,-0.55218 -1.6085,-1.15879 -2.419,-1.72754 v 5.3e-4 c -0.7881,-0.55295 -1.5096,-1.11578 -2.1668,-1.68446 z m -91.857,9.26714 c -0.026,0.005 -0.046,0.0139 -0.1219,0.045 0.039,-0.0135 0.08,-0.0287 0.1219,-0.045 z m -0.124,0.0455 c -0.052,0.0146 -0.1863,0.0484 -0.2005,0.0543 v 0 5.3e-4 c 0,2e-5 0.01,-2.7e-4 0.012,-0.002 0.051,-0.009 0.1164,-0.0284 0.1886,-0.0532 z m -17.0393,12.15223 c -0.02,0.0151 -0.04,0.0307 -0.06,0.046 0.023,-0.0108 0.042,-0.0269 0.06,-0.046 z m 141.5542,1.75132 c 0.01,0.003 0.013,0.007 0.019,0.0109 0.1434,0.0733 0.5785,0.28378 0.4341,0.21238 -0.1509,-0.0746 -0.3025,-0.14876 -0.4537,-0.22324 z m -147.1538,7.01404 c -0.01,0.0116 -0.016,0.0237 -0.025,0.0357 -0.098,0.1577 -0.048,0.0804 0.025,-0.0357 z m 162.0919,20.99252 c 0.015,0.0545 0.029,0.10903 0.046,0.16278 v 5.3e-4 5.3e-4 5.3e-4 5.3e-4 c 0,0 0,0.001 0,0.002 0,5.3e-4 0,0.001 0,0.002 0,-0.0137 -0.022,-0.0869 -0.029,-0.11576 -0.01,-0.0173 -0.013,-0.0348 -0.019,-0.0522 z m 6.9081,41.04297 c -0.01,0.0372 -0.027,0.10039 -0.038,0.14108 v 0.009 c 0.013,-0.0499 0.026,-0.0999 0.039,-0.14986 z m -1.9477,10.46654 c -0.01,0.0433 -0.012,0.0869 -0.017,0.13023 0,-0.0217 0.013,-0.079 0.016,-0.0853 v -5.3e-4 c 0,-0.0148 0,-0.0296 0,-0.0444 z m -2.8773,11.19932 c 0,0.0147 -0.01,0.0297 -0.01,0.0444 0,-0.0147 0.01,-0.0297 0.012,-0.0444 z m -0.01,0.0444 v 0 c 0,0.004 0,0.007 0,0.0103 0,-0.004 0,-0.007 0,-0.0103 z m 0,0.0103 c -0.02,0.0703 -0.041,0.1403 -0.061,0.21084 0,-0.0104 0.01,-0.0194 0.012,-0.0253 v -5.3e-4 -5.3e-4 -5.3e-4 0 -5.3e-4 0 0 c 0,0 0,-5.3e-4 0,-5.3e-4 v 5.3e-4 5.3e-4 5.3e-4 c 0,0.0106 -0.01,0.0496 -0.01,0.0656 0.017,-0.0834 0.035,-0.16675 0.052,-0.25011 z m -171.9383,2.1859 c 0.011,0.0555 0.021,0.11084 0.032,0.1664 -0.01,-0.0432 -0.015,-0.0819 -0.02,-0.10956 -0.01,-0.023 -0.01,-0.0417 -0.012,-0.0568 z m 159.7908,17.19275 c -0.035,0.0499 -0.073,0.10449 -0.1143,0.16381 0.013,-0.0182 0.038,-0.0536 0.05,-0.0692 -0.032,0.0603 -0.1301,0.23987 -0.096,0.18087 0.053,-0.0919 0.1068,-0.1838 0.1606,-0.27544 z m -10.3984,9.39788 c 0,0.004 -0.01,0.007 -0.013,0.0103 0.01,-0.004 0.011,-0.007 0.016,-0.0103 z m -0.013,0.0108 c -0.027,0.017 -0.053,0.0342 -0.079,0.0512 0,-8e-4 0.01,-0.002 0.01,-0.003 v 5.3e-4 c -0.045,0.0402 -0.1865,0.15182 -0.1385,0.11524 0.07,-0.0538 0.1395,-0.10861 0.2087,-0.16382 z m -170.4511,0.91054 c -0.019,0.16208 -0.037,0.32401 -0.054,0.48628 0.061,7.9e-4 0.1217,10e-4 0.1824,0.002 -0.043,-0.16281 -0.086,-0.32529 -0.1281,-0.48834 z m 49.397,8.50334 c 0.1249,0.0673 0.2282,0.12348 0.2899,0.15764 0,0.003 0.01,0.004 0.01,0.005 -0.01,-0.009 -0.1092,-0.0727 -0.1498,-0.092 -0.05,-0.0238 -0.1,-0.0469 -0.1494,-0.0703 z m 0.2997,0.16227 z" /></clipPath><clipPath
       clipPathUnits="userSpaceOnUse"
       id="clipPath541"><path
         id="path542"
         style="fill:#ff0000;fill-opacity:1;fill-rule:nonzero;stroke:none;stroke-width:0.264582"
         d="m 1708.8952,120.03382 v 5.1e-4 h 0.01 z m 0,5.1e-4 -72.6865,0.002 c 0.02,0.0665 0.039,0.13374 0.055,0.20155 0.012,0.0513 -0.088,0.062 -0.1359,0.0881 -0.1367,0.0751 -0.2951,0.1068 -0.4418,0.15797 -0.3207,0.0973 -0.6433,0.18869 -0.9545,0.31249 -0.3681,0.14661 -0.719,0.32694 -1.0536,0.53483 -0.4704,0.28333 -0.9353,0.57528 -1.401,0.86564 -0.4771,0.30305 -0.95,0.61226 -1.4443,0.88941 -0.048,0.0251 -0.2928,0.16506 -0.3928,0.18719 -0.1226,0.0273 -0.2464,0.0666 -0.3721,0.0599 -0.3145,-0.0157 -0.5786,-0.24649 -0.6619,-0.53483 -0.2283,0.24853 -0.4596,0.49407 -0.694,0.73738 -0.097,0.09 -0.1932,0.18012 -0.29,0.26989 v 5e-4 5.1e-4 5.1e-4 5.1e-4 0.003 5e-4 0.002 c 0,2.5e-4 0,7.6e-4 0,0.001 v 5e-4 5.1e-4 5.1e-4 5.1e-4 0 5e-4 5.1e-4 c 0,0.001 0,0.002 -0.01,0.003 -0.3986,0.61586 -1.0553,1.0199 -1.5937,1.51834 -0.9691,0.75307 -2.0074,1.40311 -3.0933,1.97245 -1.322,0.70784 -2.7654,1.11545 -4.2096,1.4812 -0.6932,0.13902 -1.3822,0.29757 -2.0743,0.44074 -0.017,0.004 -0.034,0.007 -0.05,0.01 -0.01,0.005 -0.018,0.0109 -0.027,0.0163 -0.7797,0.4836 -1.5746,0.96735 -2.3559,1.42672 -0.3869,0.27922 -0.7986,0.51997 -1.2129,0.7557 -0.7121,0.71538 -1.5536,1.27555 -2.3518,1.8853 -0.316,0.25444 -0.6515,0.48303 -0.988,0.70915 -0.14,0.1104 -0.2811,0.21887 -0.4222,0.32783 -0.3014,0.27454 -0.6072,0.54224 -0.9188,0.80721 -0.899,0.7952 -1.8994,1.44846 -2.9053,2.09576 -0.168,0.0891 -0.3366,0.17786 -0.5048,0.26692 v 0.002 c 0,2.5e-4 0,10e-4 0,0.002 0.066,0.10951 0.1015,0.25912 0.1504,0.42441 0.017,0.0585 -0.052,0.1109 -0.078,0.16639 -0.037,0.0395 -0.072,0.0803 -0.1106,0.11836 -0.013,0.0127 -0.029,0.0222 -0.044,0.0332 -0.084,0.0632 -0.1729,0.12146 -0.2569,0.18471 -0.107,0.0766 -0.2156,0.15121 -0.324,0.22582 -0.076,0.0953 -0.1911,0.18716 -0.3509,0.26494 -0.024,0.0118 -0.048,0.0244 -0.072,0.0371 -0.01,0.004 -0.01,0.007 -0.015,0.0104 -0.01,0.005 -0.01,0.007 -0.02,0.0119 -0.01,0.006 -0.01,0.0189 -0.02,0.0208 v 0 0 -5.1e-4 -5.1e-4 c 0,-0.003 0.01,-0.0117 0.011,-0.0168 v -5.1e-4 c 0,0.001 0,0.002 -0.01,0.003 0,0.001 0,0.002 0,0.003 v 0.001 5.1e-4 0 5.1e-4 5e-4 0 -0.003 c 0,0.001 0,0.003 -0.01,0.003 -0.011,0.0348 -0.02,0.0696 -0.035,0.10302 -0.042,0.10156 -0.09,0.20217 -0.1607,0.28871 -0.076,0.0946 -0.1504,0.19228 -0.2424,0.27336 -0.075,0.0665 -0.1467,0.13636 -0.2237,0.20055 -0.097,0.0671 -0.1997,0.12479 -0.2977,0.18968 -0.1832,0.11623 -0.3696,0.22762 -0.5565,0.33824 -0.2607,0.15238 -0.5218,0.30436 -0.785,0.45262 0,0.004 -0.01,0.007 -0.01,0.0104 -0.1413,0.16996 -0.295,0.32987 -0.4532,0.48532 -0.1793,0.18128 -0.3761,0.34491 -0.5726,0.50859 -0.1731,0.13458 -0.327,0.28793 -0.4831,0.43975 -0.029,0.028 -0.059,0.0551 -0.087,0.0842 -0.036,0.0381 -0.1343,0.15636 -0.1633,0.19115 -0.093,0.11216 -0.1864,0.22471 -0.2764,0.33922 -0.165,0.20846 -0.3187,0.42436 -0.4765,0.63784 -0.1796,0.2411 -0.3516,0.48746 -0.523,0.73392 -0.1417,0.20545 -0.2828,0.41118 -0.4247,0.61654 -0.1241,0.18311 -0.2447,0.36812 -0.3721,0.5492 -0.089,0.12386 -0.1658,0.25486 -0.2548,0.37884 -0.1268,0.18442 -0.3382,0.26532 -0.5426,0.3417 -0.071,0.0286 -0.1491,0.0521 -0.216,0.0911 -0.041,0.0557 -0.059,0.0792 -0.1271,0.16837 -0.073,0.095 -0.147,0.19552 -0.232,0.28129 -0.024,0.0241 -0.052,0.0449 -0.077,0.0674 -0.081,-0.0585 -0.1551,-0.10713 -0.2238,-0.14807 0,0.006 0,0.0115 -0.01,0.0173 -0.034,0.0969 -0.064,0.19522 -0.092,0.29366 -0.01,0.0538 -0.022,0.11021 -0.041,0.16937 -0.01,0.0176 10e-5,0.0514 -0.013,0.0589 0,7.6e-4 0,0.002 -0.01,0.002 -0.1257,-0.006 -0.2407,-0.004 -0.3442,0.001 -0.3056,0.53443 -0.6263,1.04722 -0.9813,1.56687 v 5.1e-4 5e-4 5.1e-4 5.1e-4 5.1e-4 5e-4 5.1e-4 c -2e-4,2.5e-4 0,10e-4 0,0.002 0,0.003 -0.01,0.007 -0.01,0.0109 -0.4894,0.81253 -0.4355,0.73895 -0.8258,1.29995 -0.2998,0.5692 -0.6263,1.08452 -0.9813,1.64164 -0.2656,0.3271 -0.5081,0.81619 -1.1447,1.77387 -0.081,0.11453 -0.4392,0.64484 -0.7177,1.05531 -0.3693,0.68185 -0.7708,1.34282 -1.1566,2.01553 -0.556,0.9732 -0.9052,1.53265 -1.5244,2.51076 -0.4858,0.70106 -0.4462,0.50638 -1.1286,1.67334 -0.048,0.0818 -0.099,0.162 -0.1432,0.24563 0.01,-0.008 0.018,-0.0198 0.023,-0.0238 v 5.1e-4 c 0,0.0546 -0.2255,0.48795 -0.2367,0.52295 0,-0.003 0.01,-0.007 0.01,-0.0134 -0.01,0.015 -0.01,0.0347 -0.012,0.0461 0.059,-0.13817 0.09,-0.19959 0.099,-0.20848 0,0.0373 -0.1724,0.54026 -0.262,0.79631 -0.1442,0.67535 -0.3126,1.32448 -0.5054,1.98978 -0.2782,0.81581 -0.4418,1.66265 -0.6387,2.49986 -0.1566,0.83606 -0.4972,1.62474 -0.6961,2.44687 -0.011,0.0898 -0.015,0.12619 -0.015,0.13173 v 5.1e-4 c 0.01,-0.0132 0.1046,-0.68961 -0.1018,0.82157 -0.1162,0.57798 -0.1744,1.16411 -0.2134,1.75158 -0.037,0.55999 -0.053,1.12124 -0.063,1.68226 -0.01,0.58142 -0.015,1.16315 -0.015,1.74465 0,1.70956 -0.3737,3.39027 -0.7896,5.03834 -0.091,0.43027 -0.2772,0.83765 -0.3793,1.26528 v 0.0153 c 0.01,-0.0126 0.064,-0.18644 0.084,-0.25256 0.046,0.0613 -0.1754,0.89564 -0.3757,1.59559 -0.072,0.48011 -0.2508,1.53438 -0.2666,1.61441 -0.2223,1.13342 -0.3654,1.76273 -0.6103,2.80491 -0.057,0.20441 -0.1074,0.41021 -0.1695,0.61308 -0.2846,0.93261 -0.1965,0.59092 -0.4646,1.36037 0.01,-0.0155 0.017,-0.0455 0.023,-0.054 v 0.002 0.0208 c 0.01,-0.0235 0.014,-0.0467 0.021,-0.0698 0.01,0.35635 -0.2591,1.78391 -0.3638,2.33743 -0.2127,1.00896 -0.4613,2.00835 -0.7172,3.00696 -0.074,0.30647 -0.043,0.16134 -0.053,0.44867 -0.031,0.48785 -0.036,0.97668 -0.046,1.46534 -0.012,0.58305 -0.012,1.16605 -0.012,1.74911 v 2.58454 c 10e-5,0.85655 0,1.71264 0,2.56919 v 2.50432 1.21873 c 0.079,0.36307 0.1035,0.78291 0.1457,1.13355 0.031,0.28458 0.045,0.46227 0.048,0.47343 v -0.10994 c 0.1624,0.72794 0.2064,1.47678 0.3324,2.21015 0.022,0.12762 -0.031,-0.25775 -0.047,-0.38627 0.2445,0.87562 0.4639,1.78599 0.6868,2.64447 0.4595,1.28533 0.7775,2.6124 1.0324,3.95134 0.098,0.61028 0.1042,0.61768 0.1712,1.14494 0.014,0.0535 0.029,0.11315 0.046,0.17976 0.196,0.82225 0.3494,1.65512 0.4987,2.48699 0.2057,1.12233 0.3065,2.25871 0.3695,3.39669 0.057,0.73915 0.033,1.4818 0.067,2.22155 v -0.29862 c 0.1279,0.73054 0.1986,1.47164 0.2616,2.21065 0.036,0.54633 0.1326,1.1403 0.2186,1.7298 0.1235,0.64885 0.3255,1.27715 0.5069,1.91104 0.1773,0.74192 0.3183,1.06771 0.5473,1.68275 0.3238,0.83162 0.5553,1.69167 0.7302,2.56473 0,-7.6e-4 -2e-4,-0.002 0,-0.002 v -5.1e-4 0 0 5.1e-4 5.1e-4 c 0,0.006 0.011,0.0318 0.018,0.0733 v -0.0272 c 0,0.0175 0.01,0.0346 0.01,0.052 v 0.007 c 0,0.013 -2e-4,0.0262 0.01,0.0391 v -0.0272 c 0.086,0.34089 0.3134,1.28083 0.2522,0.97459 0.3671,0.99589 0.6253,2.02717 0.8697,3.05896 0.3965,0.41148 0.7818,0.83347 1.1508,1.26974 0.9236,1.13173 1.8047,2.30183 2.5384,3.56804 0.3785,0.62147 0.8062,1.20238 1.218,1.80309 0.3055,0.44025 0.4389,0.66747 0.7312,1.00529 0.6871,0.86504 1.3488,1.75015 1.9559,2.67368 0.1027,0.28826 0,0.0219 0.4987,0.61753 0.4165,0.49767 0.8135,1.00937 1.2248,1.51091 0.094,0.11441 0.3444,0.4061 0.3632,0.44124 -0.01,-0.004 -0.014,-0.01 -0.022,-0.0178 -0.064,-0.0624 -0.2475,-0.25993 -0.1874,-0.19313 0.2339,0.26111 0.4923,0.50013 0.7249,0.76263 0.4953,0.52681 0.9847,1.05906 1.4852,1.58074 0.6572,0.78594 1.6449,1.27623 2.3229,2.04624 0.3753,0.34207 0.4944,0.45484 0.8598,0.67696 0.8116,0.55627 1.6186,1.12501 2.3607,1.77288 0.5965,0.50835 1.2307,0.97094 1.8128,1.49655 0.4079,0.34831 0.8189,0.6908 1.2138,1.05482 0.4659,0.33278 0.9426,0.65023 1.4009,0.99341 0.8294,0.66887 1.6371,1.3584 2.4293,2.07098 0.306,0.30693 0.7554,0.70566 1.0553,1.08898 0.01,0.009 -0.5914,-0.55112 -0.2636,-0.23918 0.1812,0.17237 0.3656,0.34083 0.5484,0.51157 0.6581,0.71948 1.2859,1.42255 1.8344,2.22598 0.4472,0.51869 0.8731,1.05718 1.2548,1.62582 0.082,0.0898 0.1715,0.18887 0.2708,0.29861 0.3209,0.46777 0.5767,0.83913 0.7776,1.12909 0.012,0.0147 0.018,0.0236 0.02,0.0272 v 0.003 0 0 c 0,0 0,0.003 0,0.003 v 0 0 0 0 0 0 0 c 0,0 0,0 0.01,0 0.5362,0.53324 1.0621,1.07843 1.4919,1.70503 0.3399,0.48598 0.6916,0.95721 0.972,1.48218 0.038,0.0711 0.1425,0.27265 0.2781,0.54524 h 97.6472 c 0.7297,-0.95832 1.5567,-1.82727 2.5286,-2.54789 0.7405,-0.56118 1.5046,-1.08816 2.268,-1.61738 0.5511,-0.36171 0.8211,-0.55416 1.3886,-0.8711 0.2756,-0.15395 1.0095,-0.57077 1.0578,-0.57049 v 0.003 0 c -10e-5,0 0,0.003 0,0.003 -0.01,0.008 -0.028,0.0226 -0.056,0.0431 -0.1171,0.0846 -0.481,0.32016 -0.3591,0.24265 0.1838,-0.11702 0.3635,-0.24115 0.5452,-0.36152 0.7484,-0.46945 1.5276,-0.89009 2.2314,-1.4267 0.7295,-0.46585 1.5248,-0.90934 1.9559,-1.21576 0.7224,-0.56826 1.4338,-1.15033 2.1735,-1.69664 0.9453,-0.63301 1.1011,-0.68788 1.9281,-1.3227 0.8822,-0.65211 1.7714,-1.25434 2.7161,-1.80161 0.2097,-0.1683 0.4195,-0.33674 0.6434,-0.48532 0.4189,-0.32316 1.546,-1.19539 1.8614,-1.28359 -0.2099,0.18676 -0.043,0.0349 0.3436,-0.25553 0.6196,-0.46534 1.2528,-0.91481 1.9182,-1.31233 0.3148,-0.15865 0.5651,-0.43117 0.8744,-0.62199 -0.034,0.0313 -0.1394,0.12301 -0.1034,0.0936 0.3582,-0.29251 0.6997,-0.60706 1.0677,-0.88693 -0.4191,0.46157 0.5659,-0.58171 0.6309,-0.66161 0.2097,-0.23178 0.4074,-0.47481 0.5835,-0.73342 0.5446,-0.77185 1.0784,-1.55596 1.7105,-2.25869 -0.055,0.0806 -0.2239,0.32037 -0.1659,0.24167 0.1682,-0.22818 0.8664,-1.1621 1.1322,-1.49457 0.3044,-0.51099 0.6165,-1.01666 0.9441,-1.51388 0.064,-0.0941 0.1245,-0.18105 0.1794,-0.26147 0.2805,-0.53977 0.6327,-1.19323 0.664,-1.21378 0,0.0112 -0.021,0.0628 -0.068,0.16392 0.6064,-0.9215 1.2442,-1.81396 1.9937,-2.62614 0.018,-0.0213 0.052,-0.0733 0.072,-0.0971 v -5.1e-4 c 0,-0.005 0.01,-0.009 0.01,-0.0109 v 0.009 0.004 c 0.1324,-0.21981 0.2572,-0.44406 0.401,-0.65666 0.3658,-0.62751 0.8482,-1.42795 1.3721,-2.07001 0.4676,-0.95791 0.9816,-1.88822 1.5265,-2.80441 0.503,-0.88893 0.9848,-1.79361 1.5885,-2.6202 0.2996,-0.35639 0.5285,-0.62888 0.7007,-0.83345 0.1304,-0.17825 0.1394,-0.19554 0.3452,-0.48878 0.1207,-0.16663 0.24,-0.33393 0.3618,-0.49967 0.069,-0.0936 0.1021,-0.13152 0.1126,-0.13569 0.018,-0.0323 0.04,-0.0671 0.062,-0.10548 0.2235,-0.39817 0.3354,-0.61231 0.5783,-0.99044 0.1422,-0.22137 0.2901,-0.43907 0.4372,-0.65715 0.01,-0.0115 0.027,-0.0374 0.034,-0.0451 -0.022,0.0532 -0.1199,0.19404 -0.024,0.0525 0.01,-0.0173 0.018,-0.0355 0.027,-0.0535 v -0.001 c 0.015,-0.0297 0.03,-0.0588 0.044,-0.0832 0.1729,-0.52619 0.3709,-1.08581 0.5947,-1.60599 0.019,-0.0913 0.038,-0.18255 0.057,-0.27385 0.072,-0.31068 0.1498,-0.61961 0.2288,-0.92853 0.016,-0.061 0.037,-0.12056 0.055,-0.18076 0.1927,-0.767 0.3243,-1.15485 0.4113,-1.64907 0.1635,-0.73075 0.3288,-1.46641 0.5484,-2.18342 0.1006,-0.53318 0.2322,-1.06832 0.3802,-1.5634 -0.011,0.0734 -0.048,0.29327 -0.034,0.22037 0.1873,-0.95911 0.3721,-1.91858 0.6651,-2.85294 0.1465,-0.52561 0.4188,-1.54264 0.5577,-1.8333 0.017,-0.28151 0.039,-0.56235 0.068,-0.84286 0.1524,-1.39023 0.3768,-2.77977 0.8616,-4.09842 0.036,-0.0824 0.071,-0.16121 0.1043,-0.23671 0.035,-0.17606 0.072,-0.35185 0.1112,-0.5284 0.037,-0.44138 0.079,-0.91204 0.097,-1.05828 0.1248,-1.02898 0.3114,-2.01744 0.5518,-3.01588 v -1.19446 -2.85641 c 0,-1.20828 0,-2.41623 -0.01,-3.6245 -0.01,-0.80628 -0.01,-1.61291 -0.044,-2.41864 0.01,-0.21231 -0.045,-0.43868 -0.099,-0.7562 -0.1188,-0.66355 -0.2968,-1.82064 -0.3188,-2.12597 -0.1598,-0.92299 -0.4042,-1.83 -0.538,-2.75787 -0.1237,-0.82098 -0.3777,-1.62181 -0.5519,-2.4325 -0.2275,-1.08466 -0.4084,-2.17375 -0.5182,-3.27636 -0.075,-0.62123 -0.2693,-1.22875 -0.3591,-1.84915 0.031,0.0566 0.047,0.0851 0.05,0.0882 0,-0.0197 -0.097,-0.24561 -0.2083,-0.64229 -0.2339,-0.83124 -0.4326,-1.67328 -0.5596,-2.52809 -0.1315,-0.82794 -0.259,-1.65857 -0.2914,-2.49738 -0.086,-0.37338 -0.2225,-0.937 -0.2713,-0.97707 -0.1746,-0.7345 -0.3028,-1.46866 -0.5391,-2.18539 -0.3238,-1.0348 -0.6428,-2.07097 -0.8092,-3.14414 -0.1391,-0.61081 -0.3006,-1.21439 -0.4319,-1.82735 -0.012,-0.0534 -0.046,-0.18658 -0.044,-0.21443 v 5.1e-4 c 0,2.5e-4 0,5e-4 0,0.001 v 5.1e-4 5e-4 5.1e-4 5.1e-4 0 5.1e-4 5e-4 0 5.1e-4 c 0,7.6e-4 0,0.001 0.01,0.002 0,0.006 0.01,0.0122 0.011,0.0193 -0.012,-0.0319 -0.022,-0.0635 -0.034,-0.0956 -0.3198,-0.94687 -0.6263,-1.90244 -0.8449,-2.87721 0.065,0.20139 0.1009,0.31237 0.1164,0.36052 -0.042,-0.12883 -0.2069,-0.64455 -0.2336,-0.7463 -0.083,-0.3116 -0.2871,-1.13767 -0.291,-1.21625 -0.2462,-0.75722 -0.6197,-1.52198 -0.7291,-2.31811 0.1762,0.48164 -0.1653,-0.50759 -0.2766,-0.83494 -0.4945,-0.83771 -0.6149,-1.3333 -1.0075,-1.88084 -0.5653,-1.11373 -1.0693,-2.24727 -1.5639,-3.39323 -0.3485,-0.7386 -0.6847,-1.48591 -1.1565,-2.15716 -0.6419,-1.01241 -1.2749,-2.0313 -1.8505,-3.08323 -0.2796,-0.49934 -0.66,-1.20647 -0.738,-1.3153 -0.4122,-0.61642 -0.8548,-1.21254 -1.2614,-1.8328 -0.5555,-0.83856 -1.2587,-1.67752 -1.6319,-2.54442 0.033,0.0539 0.1321,0.21693 0.1002,0.16193 -0.2725,-0.47276 -0.4622,-0.81625 -0.6258,-1.0667 -0.5445,-0.80371 -1.0846,-1.61006 -1.5467,-2.46519 -0.1032,-0.18923 -0.1792,-0.32685 -0.2329,-0.42341 -0.4785,-0.65236 -0.9379,-1.31247 -1.3358,-2.0195 -0.2425,-0.37653 -0.4684,-0.75108 -0.6874,-1.13603 -0.4373,-0.59637 -0.8759,-1.19517 -1.2465,-1.83379 0.021,0.0275 0.072,0.0962 0.083,0.10846 v -0.003 c -0.097,-0.1556 -0.2056,-0.3039 -0.3168,-0.45015 -0.1415,-0.0908 -0.2792,-0.18832 -0.4128,-0.29218 0.016,0.008 0.024,0.0128 0.027,0.0134 v -5.1e-4 c -0.019,-0.0169 -0.3039,-0.18804 -0.4098,-0.25503 -0.9913,-0.62805 -0.6047,-0.36768 -1.6588,-1.17317 -0.3103,-0.20758 -0.7435,-0.49472 -0.7684,-0.49374 -0.5848,-0.40667 -1.1302,-0.8093 -1.7245,-1.20288 -0.9351,-0.69403 -1.8504,-1.41642 -2.7223,-2.18886 -0.736,-0.64245 -1.5181,-1.23062 -2.234,-1.89619 -0.4465,-0.39957 -0.8894,-0.80288 -1.3978,-1.12464 -0.7026,-0.50433 -1.3871,-1.03508 -2.1249,-1.48862 -0.7416,-0.47528 -1.4829,-0.95301 -2.248,-1.39008 -0.7886,-0.44821 -1.5669,-0.91089 -2.3461,-1.37472 -1.0478,-0.59207 -2.0888,-1.20168 -3.0365,-1.9467 -0.1109,0.0445 -0.3045,-0.25797 -0.4444,-0.35507 -0.5502,-0.38179 -0.5143,-0.35622 -0.8294,-0.60615 0.1509,0.0923 -1.2102,-0.89762 -1.2231,-0.94933 v -5e-4 -0.001 -5.1e-4 -5e-4 c 0.011,0.002 0.055,0.0251 0.1379,0.0768 0.062,0.0374 0.246,0.15251 0.186,0.11242 -0.8199,-0.54581 -1.6172,-1.09975 -2.3817,-1.72187 -0.1243,-0.10134 -0.245,-0.20769 -0.3674,-0.3115 -0.1583,-0.13843 -0.2726,-0.23886 -0.351,-0.31 -0.1219,-0.0792 -0.2144,-0.13712 -0.4712,-0.30109 -0.8251,-0.55218 -1.6085,-1.15956 -2.419,-1.72831 v 0.001 c -0.7878,-0.55272 -1.5089,-1.11531 -2.1658,-1.68374 z m -78.1188,2.6296 c -0.01,0.008 -0.01,0.0256 -0.01,0.0322 0.01,-0.0105 0.01,-0.0215 0.01,-0.0322 z m -13.7309,6.6379 c -0.026,0.005 -0.046,0.014 -0.122,0.0451 0.039,-0.0135 0.08,-0.0288 0.122,-0.0451 z m -0.124,0.0451 c 0,5.1e-4 -0.01,7.6e-4 -0.01,0.001 v 5.1e-4 0 5.1e-4 c 0,-5.1e-4 0.01,-7.6e-4 0.01,-0.001 v -5e-4 0 z m -0.01,0.002 v -5.1e-4 c 0,0.001 -0.01,0.003 -0.012,0.004 0,-0.001 0.01,-0.002 0.013,-0.003 z m -0.013,0.003 c -0.06,0.0161 -0.1698,0.0437 -0.1825,0.049 v 5.1e-4 c 0,2e-5 0.01,-1.8e-4 0.01,-0.001 2e-4,-8e-5 0,-5e-4 0,-5e-4 v 0 -5.1e-4 -5.1e-4 c 0.047,-0.008 0.1061,-0.0251 0.1715,-0.0471 z m -12.3342,9.66912 c -10e-5,2.5e-4 0,7.6e-4 0,0.001 3e-4,-5.1e-4 0,-5.1e-4 0,-0.001 z m 136.8672,4.22916 v 5.1e-4 5.1e-4 5e-4 0 c 0,0.002 0.01,0.003 0.012,0.005 v -5e-4 -5.1e-4 -5.1e-4 c 0,-0.002 -0.01,-0.003 -0.013,-0.005 z m 0.018,0.006 v 5.1e-4 5.1e-4 5e-4 0 5.1e-4 0 c 0,5.1e-4 0,0.001 0.01,0.002 0.1434,0.0733 0.5784,0.28385 0.434,0.21245 -0.1461,-0.0722 -0.2927,-0.14381 -0.4392,-0.21591 z m -144.831,3.79188 c -0.01,0.0259 -0.014,0.0518 -0.021,0.0778 0.011,-0.0286 0.024,-0.0582 0.021,-0.0778 z m -2.3414,3.21544 c -0.01,0.0116 -0.016,0.0237 -0.025,0.0357 -0.098,0.15769 -0.048,0.0804 0.025,-0.0357 z m 162.0919,20.99227 v 0.001 c 0,0.0137 0.01,0.0275 0.014,0.0411 0,-0.014 -0.01,-0.0281 -0.011,-0.0421 z m 0.01,0.0421 c 0,5.1e-4 0,0.001 0,0.002 -2e-4,-7.6e-4 0,-0.001 0,-0.002 z m 0,0.002 c 0.01,0.0215 0.012,0.043 0.018,0.0644 -0.01,-0.021 -0.01,-0.0423 -0.013,-0.055 0,-0.001 -2e-4,-0.003 0,-0.004 0,-2e-4 0,-10e-4 0,-0.002 v -5e-4 -5.1e-4 -5.1e-4 -5.1e-4 c 0,-5e-4 0,-0.002 0,-0.002 z m -174.3382,17.90013 c -0.01,0.0266 -0.015,0.0535 -0.024,0.0792 0.01,-0.0239 0.019,-0.0552 0.024,-0.0792 z m -0.024,0.0827 c 0,0.008 -0.01,0.0167 -0.01,0.0248 v 0.004 c 0,-0.005 0.01,-0.0156 0.01,-0.0292 z m 181.2592,23.01623 c -0.01,0.0372 -0.027,0.10044 -0.038,0.14113 v 0.009 c 0.013,-0.0499 0.026,-0.10008 0.039,-0.15005 z m -1.9487,10.47038 c -0.01,0.028 -0.01,0.0565 -0.012,0.0847 0,-0.0204 0.01,-0.0405 0.012,-0.0441 v -5.1e-4 z m -2.8934,11.24986 c -0.01,0.0285 -0.012,0.0566 -0.017,0.0852 0.01,-0.0285 0.017,-0.0566 0.025,-0.0852 z m -0.017,0.0852 c -0.011,0.0367 -0.021,0.0741 -0.032,0.11093 0,-0.003 0.01,-0.005 0.01,-0.007 v -5.1e-4 -5e-4 -5.1e-4 0 c -2e-4,0.0132 -0.01,0.048 -0.01,0.0629 0.011,-0.0549 0.023,-0.11009 0.034,-0.16491 z m -171.911,2.12894 c 0,0.006 -2e-4,0.0135 0.01,0.0208 0,-0.007 2e-4,-0.0143 -0.01,-0.0208 z m 163.7833,11.27611 v 5.1e-4 c 0,0.004 -0.01,0.009 -0.01,0.0129 v 5e-4 5.1e-4 5.1e-4 c 0.01,-0.005 0.01,-0.0103 0.01,-0.0149 z m -3.9956,5.88813 c -0.035,0.0499 -0.073,0.1046 -0.1142,0.16392 0.013,-0.0182 0.038,-0.0537 0.05,-0.0693 -0.032,0.0603 -0.1298,0.23975 -0.096,0.18075 0.053,-0.0919 0.1064,-0.1837 0.1602,-0.27534 z m -10.3984,9.39476 v 0.003 z m 0,0.007 c 0,0.003 -0.01,0.003 -0.01,0.004 v 0 0 0 0 c 0.01,-0.003 0.01,-0.003 0.01,-0.004 z m -0.01,0.006 v 0 c -0.027,0.017 -0.053,0.0341 -0.078,0.051 l 0.01,-0.003 c -0.046,0.0406 -0.1848,0.1513 -0.137,0.11489 0.07,-0.0538 0.1391,-0.10822 0.2083,-0.16342 z m -170.4541,0.91218 c -0.019,0.16179 -0.037,0.32338 -0.054,0.48532 0.061,0 0.1218,-2e-5 0.1825,0.003 -0.043,-0.16283 -0.086,-0.32523 -0.1282,-0.48832 z m 49.3934,8.5034 c 0.014,0.007 0.029,0.0134 0.043,0.0203 -0.012,-0.006 -0.024,-0.0127 -0.036,-0.0193 z m 0.043,0.0203 c 0.095,0.0514 0.1764,0.0954 0.2316,0.12579 -0.033,-0.0223 -0.098,-0.0626 -0.1287,-0.0772 -0.034,-0.0162 -0.069,-0.0326 -0.1029,-0.0486 z m 0.2316,0.12579 c 0.01,0.006 0.016,0.0109 0.018,0.0134 v -0.003 c -0.01,-0.003 -0.012,-0.007 -0.018,-0.0104 z" /></clipPath><clipPath
       clipPathUnits="userSpaceOnUse"
       id="clipPath557"><path
         id="path558"
         style="fill:#ff0000;fill-opacity:1;fill-rule:nonzero;stroke:none;stroke-width:0.264584"
         d="m 1708.9096,120.02974 v 5.2e-4 0.003 l -0.01,5.2e-4 v 5.2e-4 l -72.5077,0.002 c 0.601,0.075 0.9031,0.2855 0.1901,0.93362 -0.08,0.0727 -0.1592,0.14544 -0.2392,0.21813 -0.1558,0.0831 -0.308,0.17233 -0.4672,0.24894 -0.1852,0.0891 -0.4081,0.0852 -0.6005,0.154 -0.4869,0.1382 -0.9641,0.30313 -1.4469,0.45394 -0.7128,0.22474 -1.4338,0.42188 -2.1456,0.64884 -0.5902,0.20017 -1.174,0.41806 -1.7658,0.614 -0.192,0.0682 -0.3835,0.14955 -0.5793,0.20652 -0.1026,0.0299 -0.2049,0.0918 -0.3111,0.0783 -0.1216,-0.0155 -0.2298,-0.029 -0.3271,-0.0414 -0.091,0.0849 -0.1825,0.16979 -0.2739,0.25448 v 5.2e-4 5.2e-4 5.1e-4 0.001 5.1e-4 5.2e-4 5.2e-4 5.1e-4 0.002 5.2e-4 5.2e-4 5.1e-4 5.2e-4 5.2e-4 5.2e-4 5.1e-4 5.2e-4 5.2e-4 5.1e-4 5.2e-4 5.2e-4 5.1e-4 0 5.2e-4 c 0,2.6e-4 0,2.6e-4 -0.01,0.001 -0.3986,0.61585 -1.0553,1.01988 -1.5937,1.51833 -0.969,0.75307 -2.0075,1.40294 -3.0934,1.97228 -1.322,0.70784 -2.7653,1.11522 -4.2095,1.48097 -0.6932,0.13902 -1.3822,0.29765 -2.0743,0.44081 -0.017,0.004 -0.034,0.007 -0.05,0.0101 -0.01,0.005 -0.018,0.0112 -0.027,0.0166 -0.7797,0.4836 -1.5745,0.96757 -2.3559,1.42694 -0.3869,0.27922 -0.798,0.51966 -1.2124,0.75539 -0.712,0.71538 -1.5541,1.27517 -2.3523,1.88492 -0.316,0.25444 -0.651,0.48331 -0.9875,0.70943 -0.14,0.1104 -0.2811,0.21874 -0.4222,0.3277 -0.3014,0.27454 -0.6077,0.54242 -0.9193,0.80739 -0.2835,0.25097 -0.577,0.48756 -0.878,0.71448 0.079,0.11068 0.1531,0.22384 0.2206,0.34134 0.046,0.0801 0.021,0.18284 0.021,0.27468 -0.011,0.31846 -0.1029,0.6158 -0.2579,0.89424 -0.1487,0.25398 -0.3117,0.49972 -0.4769,0.74377 -0.2034,0.29122 -0.4172,0.57536 -0.6207,0.86647 -0.2917,0.3918 -0.6115,0.76143 -0.9379,1.126 -0.3604,0.3784 -0.7531,0.71819 -1.1803,1.0235 -0.3855,0.30379 -0.7603,0.62008 -1.1224,0.95029 -0.5545,0.48621 -1.1193,0.96371 -1.741,1.36736 -0.4933,0.33873 -0.9852,0.68033 -1.4603,1.0432 -0.068,0.1017 -0.1354,0.20387 -0.2021,0.30649 -0.1841,0.28606 -0.3897,0.55778 -0.5757,0.84274 -0.1975,0.31904 -0.4315,0.61437 -0.6749,0.9008 -0.223,0.25471 -0.4575,0.49939 -0.679,0.75538 -0.2439,0.28947 -0.4796,0.58565 -0.709,0.88616 -0.2016,0.25901 -0.3817,0.53293 -0.571,0.80032 -0.1112,0.21732 -0.3474,0.35819 -0.4543,0.57613 -0.1385,0.21173 -0.285,0.41754 -0.4247,0.62865 -0.2141,0.32215 -1.1632,1.10653 -1.6423,0.64732 -0.1923,-0.18427 -0.3521,-0.34847 -0.4827,-0.49786 -0.2559,0.45834 -0.5302,0.8909 -0.8242,1.35221 -0.2656,0.3271 -0.508,0.81616 -1.1446,1.77384 -0.081,0.11453 -0.4393,0.64484 -0.7178,1.05531 -0.3693,0.68185 -0.7707,1.34299 -1.1565,2.0157 -0.556,0.9732 -0.9053,1.53242 -1.5245,2.51053 -0.4858,0.70106 -0.4462,0.50639 -1.1286,1.67335 -0.048,0.0815 -0.098,0.16165 -0.1426,0.2449 0.01,-0.008 0.017,-0.0187 0.023,-0.0227 0,0.0529 -0.211,0.46098 -0.2346,0.51857 0,-0.001 0,-0.002 0.01,-0.004 -0.01,0.0135 -0.01,0.0298 -0.01,0.0399 0.059,-0.13682 0.09,-0.19867 0.099,-0.20753 0,0.0373 -0.1724,0.54023 -0.262,0.79628 -0.1442,0.67535 -0.3126,1.32465 -0.5054,1.98995 -0.2783,0.81581 -0.4413,1.66272 -0.6382,2.49993 -0.1566,0.83606 -0.4978,1.62478 -0.6966,2.44691 -0.011,0.0898 -0.015,0.12574 -0.015,0.13128 v 5.2e-4 c 0.01,-0.0132 0.1051,-0.68965 -0.1013,0.82152 -0.1162,0.57799 -0.175,1.16466 -0.214,1.75213 -0.037,0.55998 -0.053,1.12091 -0.062,1.68193 -0.01,0.58141 -0.015,1.16306 -0.015,1.74455 0,1.70957 -0.3742,3.39018 -0.7901,5.03824 -0.091,0.43028 -0.2772,0.83773 -0.3793,1.26536 v 0.0157 c 0.01,-0.0131 0.064,-0.18646 0.084,-0.25246 0.046,0.0613 -0.1755,0.89563 -0.3757,1.59558 -0.072,0.4801 -0.2513,1.53475 -0.2671,1.61478 -0.2223,1.13342 -0.3654,1.76273 -0.6103,2.80491 -0.057,0.20442 -0.1076,0.41012 -0.1695,0.61299 -0.2836,0.92895 -0.1967,0.59342 -0.461,1.35121 0,-0.002 0,-0.003 0,-0.005 -0.01,0.0208 -0.01,0.0416 -0.017,0.0616 0.01,-0.0203 0.017,-0.0456 0.021,-0.0677 0,-0.003 0,-0.006 0,-0.009 v -0.001 -5.2e-4 -5.2e-4 -5.1e-4 c 0,-2.6e-4 0,-5.2e-4 0,-0.001 0,-0.009 0.01,-0.0162 0.01,-0.0207 v 0.0207 c 0.01,-0.0235 0.014,-0.0466 0.021,-0.0697 0.01,0.35634 -0.2592,1.78382 -0.3638,2.33734 -0.2127,1.00896 -0.4613,2.00828 -0.7172,3.00689 -0.074,0.30647 -0.043,0.16154 -0.053,0.44888 -0.031,0.48784 -0.036,0.97666 -0.046,1.46532 -0.012,0.58304 -0.012,1.16604 -0.012,1.7491 v 2.58476 c 10e-5,0.85655 0,1.71256 0,2.5691 v 2.50448 1.2184 c 0.079,0.36307 0.1035,0.78293 0.1457,1.13358 0.031,0.28457 0.045,0.46248 0.048,0.47363 v -0.11008 c 0.1623,0.72795 0.2062,1.47673 0.3322,2.2101 0.022,0.12762 -0.031,-0.25775 -0.047,-0.38627 0.2444,0.87562 0.4638,1.78585 0.6868,2.64434 0.4595,1.28533 0.7776,2.61217 1.0325,3.95111 0.098,0.61029 0.104,0.61793 0.171,1.14519 0.014,0.0535 0.029,0.11315 0.046,0.17976 0.1959,0.82225 0.3494,1.65492 0.4987,2.4868 0.2057,1.12233 0.3065,2.25872 0.3695,3.39669 0.057,0.73915 0.033,1.48195 0.067,2.22171 v -0.29892 c 0.1278,0.73054 0.1984,1.47211 0.2614,2.21111 0.036,0.54634 0.1327,1.14041 0.2186,1.7299 0.1237,0.64886 0.3256,1.2773 0.507,1.91118 0.1773,0.74193 0.3188,1.06739 0.5478,1.68244 0.3234,0.83084 0.555,1.68982 0.7296,2.56204 v 5.2e-4 5.2e-4 c 0,0.006 0.011,0.0323 0.018,0.0737 v -0.0217 c 0,0.0153 0.01,0.0307 0.01,0.046 v 0.008 c 0,0.013 -10e-5,0.0259 0.01,0.0389 v -0.0273 c 0.086,0.3409 0.3128,1.28076 0.2516,0.97452 0.3671,0.99588 0.6258,2.02711 0.8702,3.0589 0.3965,0.41148 0.7814,0.83363 1.1504,1.26991 0.9236,1.13172 1.8046,2.30165 2.5383,3.56786 0.3785,0.62146 0.8067,1.2024 1.2185,1.80312 0.3055,0.44024 0.439,0.6675 0.7313,1.00533 0.6871,0.86503 1.3483,1.75009 1.9554,2.67362 0.1027,0.28826 0,0.0219 0.4987,0.61754 0.4165,0.49768 0.8134,1.00973 1.2247,1.51127 0.094,0.1144 0.3449,0.40562 0.3638,0.4408 -0.01,-0.004 -0.014,-0.01 -0.022,-0.0177 -0.064,-0.0624 -0.2477,-0.26019 -0.1876,-0.19339 0.2339,0.26111 0.4924,0.50046 0.725,0.76296 0.4953,0.52681 0.9847,1.05876 1.4852,1.58044 0.6572,0.78593 1.6449,1.27649 2.3229,2.0465 0.3753,0.34207 0.4945,0.45499 0.8599,0.67712 0.8116,0.55627 1.6185,1.12445 2.3606,1.77232 0.5965,0.50835 1.2307,0.97101 1.8128,1.49662 0.4079,0.34831 0.8189,0.69129 1.2138,1.05532 0.4659,0.33278 0.9426,0.65004 1.401,0.9932 0.8293,0.66891 1.6371,1.35862 2.4293,2.07125 0.306,0.30687 0.7553,0.70531 1.0552,1.08862 0.01,0.009 -0.5913,-0.55125 -0.2635,-0.23934 0.1812,0.17241 0.3655,0.34128 0.5483,0.51201 0.6581,0.71948 1.286,1.42236 1.8345,2.22576 0.4472,0.51871 0.873,1.05727 1.2547,1.6259 0.082,0.0898 0.1715,0.18919 0.2708,0.29891 0.3209,0.46777 0.5768,0.83907 0.7777,1.12903 0.012,0.0147 0.018,0.0233 0.02,0.0268 v 0.003 h 0.01 c 0.2425,0.24103 0.4829,0.48448 0.7131,0.7367 0.1778,-0.0915 0.3893,-0.14348 0.6263,-0.1449 0.4356,-0.003 0.9567,0.16563 1.5105,0.5741 0.3603,0.26582 0.7207,0.5319 1.0837,0.79428 0.056,0.0428 0.1118,0.0852 0.1684,0.12673 0.1262,0.0387 0.2527,0.077 0.3788,0.11561 0.6181,0.17026 1.2098,0.40966 1.7772,0.70138 0.3501,0.17898 0.6713,0.4034 1.0035,0.61046 0.025,0.0155 0.052,0.0314 0.078,0.047 0.092,0.0558 0.179,0.11287 0.2599,0.17117 h 92.7907 c 0.7298,-0.95836 1.556,-1.82727 2.528,-2.54788 0.7404,-0.56119 1.5052,-1.08858 2.2686,-1.61781 0.5511,-0.36173 0.8205,-0.55361 1.388,-0.87051 0.2756,-0.15398 1.0095,-0.57083 1.0579,-0.57059 v 0.003 0 0 0 c 0,0.008 -0.031,0.0222 -0.055,0.0404 -0.1172,0.0846 -0.4812,0.31985 -0.3592,0.24239 0.1837,-0.11703 0.3634,-0.24071 0.5452,-0.36103 0.7484,-0.46946 1.5272,-0.89031 2.2309,-1.42696 0.7294,-0.46581 1.5252,-0.90944 1.9564,-1.21588 0.7223,-0.56824 1.4338,-1.15026 2.1735,-1.69657 0.9453,-0.63301 1.1007,-0.68761 1.9276,-1.32242 0.8824,-0.65213 1.7718,-1.25486 2.7166,-1.80212 0.2096,-0.16833 0.419,-0.33666 0.6429,-0.48524 0.419,-0.32318 1.5464,-1.19534 1.8619,-1.28354 -0.059,0.0525 -0.089,0.0783 -0.091,0.0818 0.01,-0.003 0.1692,-0.13708 0.4351,-0.33679 0.6194,-0.46534 1.2528,-0.91531 1.9182,-1.31283 0.3148,-0.15865 0.5647,-0.43076 0.8739,-0.62158 -0.034,0.0313 -0.139,0.1229 -0.1029,0.0934 0.3581,-0.29251 0.6992,-0.6073 1.0672,-0.88717 -0.4191,0.46157 0.5663,-0.58157 0.6314,-0.66147 0.2096,-0.23178 0.407,-0.47455 0.583,-0.73316 0.5447,-0.77185 1.0783,-1.55635 1.7104,-2.25908 -0.055,0.0806 -0.2238,0.32057 -0.1658,0.24187 0.1682,-0.22818 0.8664,-1.16214 1.1322,-1.49461 0.3045,-0.51099 0.617,-1.01657 0.9446,-1.51379 0.064,-0.0941 0.1239,-0.18114 0.1788,-0.26156 0.2805,-0.53977 0.6328,-1.19331 0.6641,-1.21386 0,0.0112 -0.021,0.0625 -0.068,0.1636 0.6064,-0.9215 1.2442,-1.81348 1.9937,-2.62566 0.013,-0.016 0.036,-0.0479 0.055,-0.0737 10e-5,2.6e-4 0,0.001 0,0.002 v 5.2e-4 5.1e-4 5.2e-4 0.001 -5.2e-4 -5.2e-4 -5.2e-4 c 0,-0.002 0.01,-0.004 0.01,-0.006 v -5.2e-4 -0.005 5.2e-4 c 0,0.001 -0.01,0.003 -0.01,0.005 0.011,-0.015 0.021,-0.0282 0.026,-0.0318 v 0.009 0.005 c 0.1324,-0.21981 0.2572,-0.44434 0.401,-0.65692 0.366,-0.62752 0.8482,-1.42767 1.3721,-2.06973 0.4676,-0.95791 0.9817,-1.88823 1.5265,-2.80441 0.503,-0.88893 0.9848,-1.79401 1.5885,-2.6206 0.2995,-0.35639 0.5285,-0.62908 0.7007,-0.83365 0.1304,-0.17825 0.1393,-0.19504 0.3452,-0.48827 0.1206,-0.16664 0.2401,-0.33414 0.3618,-0.49989 0.069,-0.0936 0.102,-0.13166 0.1126,-0.13583 0.018,-0.0323 0.04,-0.0671 0.062,-0.10553 0.2235,-0.39817 0.3355,-0.61204 0.5783,-0.99017 0.1423,-0.22137 0.2902,-0.43884 0.4372,-0.65692 0.01,-0.0115 0.027,-0.0372 0.034,-0.0449 -0.022,0.0532 -0.1201,0.19359 -0.024,0.052 0.01,-0.0173 0.018,-0.035 0.027,-0.053 v -5.2e-4 c 0.015,-0.0297 0.03,-0.0589 0.044,-0.0833 0.173,-0.52619 0.3708,-1.08602 0.5948,-1.6062 0.019,-0.0913 0.038,-0.18237 0.057,-0.27367 0.072,-0.31068 0.1499,-0.61966 0.2289,-0.92858 0.016,-0.061 0.037,-0.12107 0.055,-0.18127 0.1926,-0.767 0.3248,-1.15439 0.4118,-1.64861 0.1634,-0.73075 0.3282,-1.46632 0.5478,-2.18333 0.1005,-0.53318 0.2323,-1.0682 0.3803,-1.56328 -0.011,0.0734 -0.048,0.29305 -0.034,0.22015 0.1872,-0.95911 0.3716,-1.91902 0.6646,-2.85338 0.1464,-0.52561 0.4186,-1.54226 0.5576,-1.83292 0.017,-0.28151 0.039,-0.56222 0.068,-0.84273 0.1524,-1.39023 0.3766,-2.7799 0.8614,-4.09855 0.036,-0.0824 0.071,-0.16132 0.1039,-0.23682 0.035,-0.17606 0.072,-0.35161 0.1111,-0.52816 0.037,-0.44138 0.079,-0.9121 0.097,-1.05834 0.1249,-1.02898 0.3115,-2.01753 0.5519,-3.01597 v -1.19417 -2.85692 c 0,-1.20828 0,-2.41615 -0.01,-3.62442 -0.01,-0.80628 -0.011,-1.61291 -0.044,-2.41864 0.01,-0.21231 -0.045,-0.43836 -0.099,-0.75588 -0.1188,-0.66355 -0.2969,-1.82045 -0.3188,-2.12578 -0.1599,-0.92299 -0.4042,-1.83058 -0.538,-2.75845 -0.1237,-0.82098 -0.3777,-1.62158 -0.5519,-2.43227 -0.2277,-1.08466 -0.4085,-2.17341 -0.5183,-3.27602 -0.075,-0.62123 -0.2692,-1.22917 -0.3592,-1.84957 0.031,0.0566 0.047,0.0854 0.05,0.0884 0,-0.0197 -0.097,-0.24559 -0.2078,-0.64227 -0.2339,-0.83124 -0.4332,-1.6734 -0.5601,-2.52821 -0.1315,-0.82794 -0.2589,-1.6586 -0.2915,-2.49741 -0.086,-0.37338 -0.2223,-0.93697 -0.2713,-0.97704 -0.1746,-0.7345 -0.3021,-1.46863 -0.5385,-2.18536 -0.3238,-1.0348 -0.6433,-2.07106 -0.8097,-3.14423 -0.139,-0.61081 -0.3007,-1.21439 -0.432,-1.82735 -0.011,-0.0499 -0.04,-0.1692 -0.043,-0.20753 v 0 c 0,5.2e-4 0,0.001 0.01,0.002 v 5.2e-4 c 0,1.7e-4 0,7.7e-4 0,0.001 v 5.2e-4 0.002 c 0,2.6e-4 0,10e-4 0,0.002 v 5.2e-4 c 10e-5,1.9e-4 0,0.001 0,0.002 v 5.1e-4 5.2e-4 5.2e-4 c 0,0.002 0,0.003 0.01,0.005 -0.011,-0.0299 -0.022,-0.0592 -0.032,-0.0894 -0.3198,-0.94686 -0.6261,-1.90235 -0.8448,-2.87712 0.071,0.21885 0.1068,0.33101 0.1199,0.37163 -0.034,-0.10661 -0.2091,-0.6524 -0.2367,-0.7574 -0.083,-0.3116 -0.2876,-1.13781 -0.2914,-1.21638 -0.2461,-0.75722 -0.6194,-1.52203 -0.7287,-2.31816 0.1761,0.48164 -0.1651,-0.50731 -0.2764,-0.83466 -0.4946,-0.83772 -0.6155,-1.33383 -1.0082,-1.88138 -0.5651,-1.11373 -1.0692,-2.24719 -1.5638,-3.39316 -0.3484,-0.7386 -0.6848,-1.48533 -1.1566,-2.15657 -0.6418,-1.01242 -1.2747,-2.0317 -1.8505,-3.08364 -0.2795,-0.49933 -0.66,-1.20652 -0.738,-1.31535 -0.4121,-0.61641 -0.8546,-1.21265 -1.2614,-1.83291 -0.5554,-0.83856 -1.2587,-1.67697 -1.6319,-2.54386 0.033,0.0539 0.1323,0.21658 0.1002,0.16158 -0.2723,-0.47277 -0.4618,-0.81598 -0.6252,-1.06643 -0.5446,-0.80371 -1.0847,-1.61046 -1.5466,-2.46559 -0.1033,-0.18923 -0.1795,-0.32658 -0.2331,-0.42314 -0.4785,-0.65236 -0.9384,-1.31269 -1.3363,-2.01973 -0.2425,-0.37652 -0.468,-0.75066 -0.6868,-1.1356 -0.4375,-0.59637 -0.8765,-1.1953 -1.2471,-1.83392 0.021,0.0275 0.072,0.0958 0.083,0.10805 v -0.003 c -0.097,-0.15561 -0.2057,-0.30465 -0.3169,-0.45091 -0.1415,-0.0908 -0.2792,-0.18749 -0.4128,-0.29134 0.016,0.008 0.024,0.012 0.027,0.0126 v -5.2e-4 c -0.019,-0.0169 -0.3039,-0.188 -0.4097,-0.25499 -0.9914,-0.62805 -0.6046,-0.36748 -1.6588,-1.17297 -0.3104,-0.20758 -0.7441,-0.49531 -0.769,-0.49433 -0.5847,-0.40667 -1.1295,-0.80866 -1.724,-1.20224 -0.9349,-0.69403 -1.8502,-1.41645 -2.7223,-2.18889 -0.7358,-0.64245 -1.5179,-1.23046 -2.2339,-1.89603 -0.4464,-0.39957 -0.8895,-0.80324 -1.3979,-1.125 -0.7026,-0.50433 -1.3875,-1.035 -2.1254,-1.48854 -0.7416,-0.47528 -1.4824,-0.95302 -2.2475,-1.39009 -0.7884,-0.44821 -1.5669,-0.9111 -2.346,-1.37493 -1.0478,-0.59207 -2.0887,-1.20201 -3.0366,-1.94703 -0.1108,0.0445 -0.3043,-0.25787 -0.4444,-0.35497 -0.5502,-0.38179 -0.5144,-0.35599 -0.8293,-0.60592 0.1507,0.0923 -1.2104,-0.89757 -1.2232,-0.94928 v -0.001 -5.2e-4 -5.1e-4 -5.2e-4 c 0.011,0.002 0.055,0.0249 0.1379,0.0767 0.062,0.0374 0.2461,0.15219 0.186,0.11209 -0.8197,-0.5458 -1.6177,-1.09969 -2.3822,-1.72182 -0.1244,-0.10133 -0.2445,-0.20723 -0.3669,-0.31104 -0.1583,-0.13844 -0.2731,-0.23939 -0.3515,-0.31054 -0.1217,-0.0792 -0.2143,-0.13747 -0.4712,-0.30144 -0.8251,-0.55218 -1.608,-1.15863 -2.4185,-1.72738 v 5.2e-4 c -0.7878,-0.55272 -1.5087,-1.11553 -2.1658,-1.68396 z m -79.2039,3.09424 c -0.045,0.0258 -0.089,0.0537 -0.1313,0.0843 v 0.002 5.2e-4 5.1e-4 c 0.01,-10e-4 0.048,-0.0248 0.063,-0.0353 0.024,-0.0167 0.054,-0.0293 0.071,-0.052 z m -12.6602,6.17787 c -0.026,0.005 -0.046,0.0138 -0.122,0.0449 0.039,-0.0135 0.08,-0.0286 0.122,-0.0449 z m -0.1251,0.0449 c 0,5.2e-4 -0.01,7.8e-4 -0.01,0.001 v 5.2e-4 5.2e-4 c 0,-5.2e-4 0.01,-7.8e-4 0.01,-0.001 v -5.1e-4 -5.2e-4 z m 124.5123,13.90539 v 5.2e-4 5.1e-4 5.2e-4 5.2e-4 0 c 0,7.7e-4 0.01,0.002 0.01,0.004 v 5.2e-4 0 -5.2e-4 -5.2e-4 -5.1e-4 -5.2e-4 -5.2e-4 -5.1e-4 0 0 -5.2e-4 c 0,-5.2e-4 -0.01,-0.001 -0.01,-0.002 v 0 -5.2e-4 z m 0.013,0.006 v 5.2e-4 5.1e-4 5.2e-4 5.2e-4 5.2e-4 5.1e-4 5.2e-4 0 c 0,2.6e-4 0,5.2e-4 0.01,5.2e-4 0.1434,0.0733 0.5784,0.28347 0.434,0.21207 -0.1461,-0.0722 -0.2927,-0.14402 -0.4392,-0.21611 z m -147.2116,7.07363 c -0.055,0.0885 -0.04,0.0656 0,0.002 z m 162.1358,20.92599 v 0.001 c 0,0.0136 0.01,0.0273 0.014,0.0409 0,-0.014 -0.01,-0.0279 -0.011,-0.0419 z m 0.015,0.0434 -0.01,5.2e-4 v 5.2e-4 5.1e-4 5.2e-4 5.2e-4 c 0,0.004 0.01,0.009 0.01,0.0131 v -0.007 -0.004 -5.2e-4 -5.1e-4 -5.2e-4 -5.2e-4 -5.2e-4 -5.1e-4 z m 0,0.0172 c 0,0.0129 0,0.0311 0.011,0.0485 0,-0.0159 -0.01,-0.0324 -0.011,-0.0485 z m -174.3548,17.91053 c 0,0.001 0,0.003 0,0.004 0,-0.001 0,-0.002 0,-0.004 z m -0.016,0.0631 c 0,0.005 -0.01,0.011 -0.01,0.0161 v 5.2e-4 0.002 c 0,-0.004 0.01,-0.0109 0.01,-0.0187 z m 181.2613,23.00834 v 5.1e-4 c -0.01,0.0372 -0.027,0.10018 -0.038,0.14087 v 0.009 c 0.013,-0.0499 0.026,-0.1 0.039,-0.14996 z m -1.9497,10.47184 c -0.01,0.0239 -0.01,0.0477 -0.011,0.0717 0,-0.0156 0.01,-0.0285 0.011,-0.0313 v -5.2e-4 z m -2.8934,11.24943 c -0.01,0.0285 -0.012,0.0573 -0.017,0.0858 0.01,-0.0285 0.018,-0.0572 0.025,-0.0858 z m -0.017,0.0858 c -0.011,0.0358 -0.021,0.071 -0.032,0.10704 v 0 -5.2e-4 c 0,-7.8e-4 0.01,-0.002 0.01,-0.003 v -5.1e-4 0 c 0,0.0148 -0.01,0.0456 -0.01,0.0596 0.011,-0.0548 0.022,-0.10926 0.034,-0.1641 z m -0.032,0.10704 v 0 5.1e-4 c 10e-5,-2e-4 0,-2.5e-4 0,-5.1e-4 z m -171.8789,2.01974 c 0,0.006 0,0.0134 0.01,0.0207 0,-0.007 0,-0.0142 -0.01,-0.0207 z m 159.7871,17.16625 c -0.035,0.0499 -0.072,0.10392 -0.1136,0.1631 0.013,-0.0182 0.038,-0.0541 0.05,-0.0697 -0.032,0.0603 -0.1295,0.23976 -0.096,0.18076 0.053,-0.0918 0.1059,-0.18268 0.1596,-0.27418 z m -10.3978,9.39734 v 10e-4 5.2e-4 5.1e-4 5.2e-4 5.2e-4 5.2e-4 5.1e-4 0 c 0,5.2e-4 -0.01,0.002 -0.01,0.003 v 0 5.1e-4 0 5.2e-4 5.2e-4 5.2e-4 5.1e-4 5.2e-4 5.2e-4 5.1e-4 -5.1e-4 c -0.027,0.0169 -0.053,0.0336 -0.078,0.0505 0,-1.7e-4 0.01,-2e-4 0.01,-5.2e-4 -0.048,0.042 -0.182,0.15052 -0.1349,0.11462 0.07,-0.0538 0.1396,-0.10839 0.2088,-0.1636 v -5.2e-4 c 0.01,-0.004 0.01,-0.006 0.015,-0.009 z m -170.4645,0.9215 c -0.019,0.16208 -0.037,0.32398 -0.054,0.48625 0.061,7.7e-4 0.1217,0.001 0.1824,0.002 -0.043,-0.16265 -0.086,-0.32538 -0.1282,-0.48827 z m 49.4016,8.5031 v 0.003 c 0.1228,0.0662 0.2254,0.1218 0.2863,0.15553 l 0.01,0.003 c -0.012,-0.0103 -0.1093,-0.0724 -0.1493,-0.0914 -0.049,-0.0233 -0.098,-0.0458 -0.1463,-0.0687 z" /></clipPath></defs><g
     id="layer1"><g
       id="g559"
       transform="matrix(0.52583799,0,0,0.55478423,-727.18442,7.0733573)"><path
         fill="#b22234"
         d="m 1554.1124,120.0377 h 285.4518 v 155.81849 h -285.4518 z"
         id="path1-7"
         style="stroke-width:0.0392315"
         clip-path="url(#clipPath557)"
         transform="matrix(1,0,0,1.0234287,0,-6.4629429)" /><path
         d="m 1554.1124,138.01676 h 285.4518 m 0,23.97207 h -285.4518 m 0,23.97208 h 285.4518 m 0,23.97207 h -285.4518 m 0,23.97208 h 285.4518 m 0,23.97208 h -285.4518"
         stroke="#ffffff"
         stroke-width="11.7694"
         id="path2-9"
         clip-path="url(#clipPath532)" /><path
         fill="#3c3b6e"
         d="m 1554.1124,120.0377 h 114.1807 v 83.90227 h -114.1807 z"
         id="path3-3"
         style="stroke-width:0.0392315"
         clip-path="url(#clipPath541)"
         transform="matrix(1,0,0,1.0435098,0,-8.8733923)" /><g
         fill="#ffffff"
         id="g11"
         transform="matrix(0.03852251,0,0,0.03995346,1554.1124,120.0377)"
         clip-path="url(#clipPath530)"><g
           id="d-1"><g
             id="c-9"><g
               id="e-8"><g
                 id="b-6"><path
                   id="a-50"
                   d="M 247,90 317.534,307.082 132.874,172.918 H 361.127 L 176.466,307.082 Z" /><use
                   xlink:href="#a-50"
                   y="420"
                   id="use3-2" /><use
                   xlink:href="#a-50"
                   y="840"
                   id="use4-8" /><use
                   xlink:href="#a-50"
                   y="1260"
                   id="use5-6" /></g><use
                 xlink:href="#a-50"
                 y="1680"
                 id="use6-0" /></g><use
               xlink:href="#b-6"
               x="247"
               y="210"
               id="use7-24" /></g><use
             xlink:href="#c-9"
             x="494"
             id="use8-8" /></g><use
           xlink:href="#d-1"
           x="988"
           id="use9-6" /><use
           xlink:href="#c-9"
           x="1976"
           id="use10-50" /><use
           xlink:href="#e-8"
           x="2470"
           id="use11-9" /></g><ellipse
         style="fill:none;fill-opacity:1;stroke:#ffffff;stroke-width:7.106;stroke-linejoin:bevel;stroke-dasharray:none;stroke-opacity:1"
         id="path136-3-4-1-3-9-8"
         cx="1671.7383"
         cy="199.4285"
         rx="91.797813"
         ry="86.338005" /><path
         style="opacity:1;fill:#ffffff;fill-opacity:1;stroke:#ffffff;stroke-width:3.61593;stroke-linejoin:bevel;stroke-dasharray:none;stroke-opacity:1"
         d="m 6302.7963,1066.1128 c -29.6109,-1.3515 -58.5927,-7.1062 -86.9634,-15.7027 -8.646,-2.6199 -30.046,-6.4105 -29.2212,-6.3951 19.044,0.3565 63.4406,0.5138 132.7597,0.433 l 101.465,-0.1183 26.1655,0.041 c 0,0 -42.1105,11.8455 -61.1206,15.5393 -27.3078,5.3062 -55.9239,7.4426 -83.085,6.2028 z"
         id="path559"
         transform="scale(0.26458333)" /></g><g
       id="g560"
       transform="matrix(0.57719136,0,0,0.56468176,44.219515,68.930633)"><rect
         style="fill:#ffffff;fill-opacity:1;stroke:#2d2d2d;stroke-width:0;stroke-linejoin:bevel;stroke-opacity:0.900794"
         id="rect136"
         width="488.30563"
         height="362.5448"
         x="-95.794357"
         y="-33.405212"
         ry="3.5248849"
         clip-path="url(#clipPath216)"
         transform="matrix(0.75548611,0,0,0.7626841,-15.433577,46.703205)" /><g
         id="g135"
         transform="matrix(0.19988903,0,0,0.2017935,15.118465,81.284014)"
         clip-path="url(#clipPath204)"><rect
           fill="#ffffff"
           height="600"
           width="900"
           id="rect1"
           x="0"
           y="0" /><circle
           fill="#bc002d"
           cx="450"
           cy="300"
           r="180"
           id="circle1" /></g><ellipse
         style="fill:none;fill-opacity:1;stroke:#ffffff;stroke-width:7.106;stroke-linejoin:bevel;stroke-dasharray:none;stroke-opacity:1"
         id="path136"
         cx="105.14729"
         cy="141.71284"
         rx="91.797813"
         ry="86.338005" /></g></g></svg>
